<svg xmlns="http://www.w3.org/2000/svg" width="94.617" height="95.138" viewBox="0 0 94.617 95.138">
  <g id="Group_1356" data-name="Group 1356" transform="translate(-3841.876 -291.845)">
    <g id="Group_1355" data-name="Group 1355">
      <path id="Path_2449" data-name="Path 2449" d="M3843.376,339.414a45.81,45.81,0,1,1,45.809,46.069A45.939,45.939,0,0,1,3843.376,339.414Z" fill="#fff"/>
      <path id="Path_2450" data-name="Path 2450" d="M3889.186,386.983a47.636,47.636,0,0,1-44.452-63.887,1.5,1.5,0,1,1,2.82,1.024,44.28,44.28,0,1,0,41.632-29.275,44.09,44.09,0,0,0-34.233,16.269,1.5,1.5,0,0,1-2.322-1.9,47.422,47.422,0,1,1,36.555,77.768Z"/>
      <path id="Path_2451" data-name="Path 2451" d="M3857.761,372.917a45.576,45.576,0,0,0,62.849,0,109.228,109.228,0,0,0-62.849,0Z" fill="#99b9ff"/>
      <path id="Path_2452" data-name="Path 2452" d="M3889.458,376.085a7.252,7.252,0,0,1-7.231-7.271V331.736h14.461v37.078A7.251,7.251,0,0,1,3889.458,376.085Z" fill="#fff"/>
      <path id="Path_2453" data-name="Path 2453" d="M3917.452,345.264c-.908-11.517,4.143-18.705-7.18-31.717-11.724-13.474-21.785-4.439-21.785-4.439s-8.384-7-19.389,7.637c-9.713,12.92,2.727,24.5-1.455,32.541s-18.359,12.431-18.359,12.431,4.545,9.141,10.18,13.162h59.806s12.361-13.527,12.361-17.366C3931.631,357.513,3918.361,356.781,3917.452,345.264Z"/>
      <g id="Group_1354" data-name="Group 1354">
        <path id="Path_2454" data-name="Path 2454" d="M3857.761,372.917a45.576,45.576,0,0,0,62.849,0,109.228,109.228,0,0,0-62.849,0Z" fill="#99b9ff"/>
        <path id="Path_2455" data-name="Path 2455" d="M3889.186,386.983a46.971,46.971,0,0,1-32.457-12.978l-1.855-1.76,2.441-.76a110.723,110.723,0,0,1,63.741,0l2.44.76-1.854,1.76A46.974,46.974,0,0,1,3889.186,386.983Zm-28.422-13.391a44.065,44.065,0,0,0,56.843,0,108.38,108.38,0,0,0-56.843,0Z"/>
      </g>
      <path id="Path_2456" data-name="Path 2456" d="M3890.162,319.671h-.5l-14.715,14.876V342.7a14.809,14.809,0,0,0,7.283,12.77v13.339a7.231,7.231,0,1,0,14.461,0V355.726a14.818,14.818,0,0,0,7.705-13.021v-8.722A14.272,14.272,0,0,0,3890.162,319.671Z" fill="#fff"/>
      <path id="Path_2457" data-name="Path 2457" d="M3889.458,377.585a8.761,8.761,0,0,1-8.73-8.772V355.881a1.5,1.5,0,0,1,3,0v12.932a5.73,5.73,0,1,0,11.46,0V356.1a1.5,1.5,0,0,1,3,0v12.709A8.761,8.761,0,0,1,3889.458,377.585Z"/>
      <path id="Path_2458" data-name="Path 2458" d="M3889.668,359.013a1.5,1.5,0,0,1,0-3,13.282,13.282,0,0,0,13.225-13.308v-8.722a12.745,12.745,0,0,0-12.127-12.8l-14.322,14.237V342.7a13.351,13.351,0,0,0,7.754,12.12,1.5,1.5,0,1,1-1.25,2.728,16.361,16.361,0,0,1-9.5-14.848V334.8a1.5,1.5,0,0,1,.442-1.064l15.218-15.127a1.5,1.5,0,0,1,1.057-.436c.235,0,.467.005.7.015a15.74,15.74,0,0,1,15.034,15.8V342.7A16.286,16.286,0,0,1,3889.668,359.013Z"/>
    </g>
    <path id="Path_2459" data-name="Path 2459" d="M3895.507,348.325a12.2,12.2,0,0,0-12.1.859" fill="none" stroke="#000" stroke-linecap="round" stroke-miterlimit="10" stroke-width="2"/>
  </g>
</svg>
