<svg id="Dril-down-visuals-logo" xmlns="http://www.w3.org/2000/svg" width="223.501" height="36.76" viewBox="0 0 223.501 36.76">
  <path id="Path_1" data-name="Path 1" d="M24.672,28.575H3.728A3.726,3.726,0,0,1,1.1,27.464,3.82,3.82,0,0,1,0,24.8V3.774A3.82,3.82,0,0,1,1.1,1.112,3.726,3.726,0,0,1,3.728,0H24.672A3.726,3.726,0,0,1,27.3,1.112a3.82,3.82,0,0,1,1.1,2.663V24.981A3.738,3.738,0,0,1,24.672,28.575Z" fill="red"/>
  <path id="Path_2" data-name="Path 2" d="M18.472,15.722a5.407,5.407,0,0,1-1.775.18,7.229,7.229,0,0,1-5.68,6.111,7.415,7.415,0,0,1-8.7-5.751,7.8,7.8,0,0,1,1.126-5.7A7.623,7.623,0,0,1,8.177,7.276a7.035,7.035,0,0,1,3.373.18,6.154,6.154,0,0,1,2.417-3.1,6.031,6.031,0,0,1,7.369.565,6.183,6.183,0,0,1,1.928,3.433,6.335,6.335,0,0,1-.9,4.682,6.192,6.192,0,0,1-3.893,2.686ZM17.407,5.3a4.159,4.159,0,0,0-1.639.313,4.2,4.2,0,0,0-1.39.934,4.285,4.285,0,0,0-1.231,3.067v.719A5.416,5.416,0,0,0,9.774,9.252a5.454,5.454,0,0,0-3.057.939,5.557,5.557,0,0,0-2.026,2.5,5.622,5.622,0,0,0,1.193,6.071,5.465,5.465,0,0,0,8.466-.844,5.621,5.621,0,0,0,.927-3.1,4,4,0,0,0-.178-1.437,4.989,4.989,0,0,0,2.307.719,4.293,4.293,0,0,0,3-1.281,4.4,4.4,0,0,0,1.264-3.033A4.509,4.509,0,0,0,17.407,5.3Z" transform="translate(1.23 1.891)" fill="#fff"/>
  <path id="Path_3" data-name="Path 3" d="M11.656,10.694a4.691,4.691,0,0,1-.343,1.793,4.643,4.643,0,0,1-1,1.52,4.555,4.555,0,0,1-3.273,1.359V10.694Z" transform="translate(3.964 6.02)" fill="#fff"/>
  <path id="Path_4" data-name="Path 4" d="M26.54,18.331H22.331v8.03h1.546V22.822h2.5V21.474h-2.5V19.682H26.54Zm5.78-.181a4.049,4.049,0,0,0-4.233,4.2,4.038,4.038,0,0,0,4.233,4.189,4.04,4.04,0,0,0,4.233-4.189A4.051,4.051,0,0,0,32.32,18.151Zm0,6.97a2.6,2.6,0,0,1-2.64-2.769,2.643,2.643,0,1,1,5.279,0A2.6,2.6,0,0,1,32.32,25.121Zm6.252-6.79v8.03h1.546V23.135h.192l2.116,3.226h1.926l-2.473-3.383A2.114,2.114,0,0,0,43.449,21.8a2.218,2.218,0,0,0,.224-1.065,2.305,2.305,0,0,0-.19-.993,2.28,2.28,0,0,0-.6-.813,2.893,2.893,0,0,0-2.021-.6Zm1.546,1.276h.464c.285,0,1.5.012,1.5,1.2s-1.225,1.216-1.522,1.216h-.439Zm12.6-1.276v8.03h1.546V23.388h1a2.7,2.7,0,0,0,2.009-.71,2.846,2.846,0,0,0,.456-2.851,2.559,2.559,0,0,0-.608-.882,2.818,2.818,0,0,0-2.093-.614Zm1.546,1.348H54.8a1.841,1.841,0,0,1,1.094.253,1.1,1.1,0,0,1,.33.4,1.119,1.119,0,0,1,.111.512,1.214,1.214,0,0,1-.109.519,1.2,1.2,0,0,1-.319.421,1.566,1.566,0,0,1-1.011.253h-.63Zm9.25-1.529a4.049,4.049,0,0,0-4.233,4.2,4.233,4.233,0,0,0,8.466,0,4.05,4.05,0,0,0-4.233-4.2Zm0,6.97a2.6,2.6,0,0,1-2.639-2.769,2.643,2.643,0,1,1,5.279,0,2.6,2.6,0,0,1-2.639,2.769Zm11.248-3.853L76.5,26.361h1.165l2.937-8.03H78.963L77.06,23.8,75.229,18.26h-.856L72.435,23.8l-1.772-5.465H69.023l2.759,8.029h1.165Zm11.759-2.937h-4.4v8.03h4.4V25.013H83.67V22.822h2.735V21.474H83.67V19.682h2.854Zm2.093,0v8.03h1.546V23.135h.192l2.116,3.226H94.4l-2.473-3.383A2.115,2.115,0,0,0,93.494,21.8a2.216,2.216,0,0,0,.224-1.065,2.3,2.3,0,0,0-.19-.993,2.278,2.278,0,0,0-.6-.813,2.893,2.893,0,0,0-2.021-.6Zm1.546,1.276h.464c.285,0,1.5.012,1.5,1.2S90.9,22.027,90.6,22.027h-.44Zm12.6-1.276v8.03h2.663a2.887,2.887,0,0,0,2.009-.65,2.149,2.149,0,0,0,.511-.739,2.172,2.172,0,0,0,.166-.887,2.062,2.062,0,0,0-.571-1.5,1.855,1.855,0,0,0-1.036-.5,1.7,1.7,0,0,0,.669-.659,1.732,1.732,0,0,0,.223-.918,2.11,2.11,0,0,0-.18-.916,2.085,2.085,0,0,0-.557-.745,3.092,3.092,0,0,0-1.938-.5Zm1.546,1.276h.452c.63,0,1.189.277,1.189,1.01a1.055,1.055,0,0,1-1.2,1.049h-.439Zm0,3.262h.571a2.493,2.493,0,0,1,1.058.155.953.953,0,0,1,.432.366.971.971,0,0,1,.151.549,1.046,1.046,0,0,1-.118.531,1.029,1.029,0,0,1-.368.4,2.086,2.086,0,0,1-1.058.217h-.668Zm5.826-4.538v8.03h1.546v-8.03Z" transform="translate(12.571 10.218)"/>
  <path id="Path_5" data-name="Path 5" d="M27.993,21.11a8.42,8.42,0,0,0,5.989-2.393,7.337,7.337,0,0,0,2.036-5.472,7.769,7.769,0,0,0-2.176-5.756,8.635,8.635,0,0,0-6.2-2.179H22.331v15.8ZM26.379,8.792h.983a4.507,4.507,0,0,1,3.229.995,4.758,4.758,0,0,1,1.217,3.459,4.332,4.332,0,0,1-1.193,3.245A4.622,4.622,0,0,1,27.2,17.628h-.819ZM37.773,21.11h3.743V16.585a3.217,3.217,0,0,1,.844-2.416,2.435,2.435,0,0,1,1.708-.568,3.267,3.267,0,0,1,1.614.379V10.4c-.491-.024-.655-.047-.749-.047a4.041,4.041,0,0,0-1.942.427,3.4,3.4,0,0,0-1.474,1.469V10.522H37.773Zm9.1-10.589V21.11h3.743V10.521ZM46.64,6.115a2.146,2.146,0,0,0,.158.817,2.123,2.123,0,0,0,.456.693,2.1,2.1,0,0,0,2.983,0,2.156,2.156,0,0,0,0-3.02,2.1,2.1,0,0,0-.684-.462,2.1,2.1,0,0,0-2.3.462A2.123,2.123,0,0,0,46.8,5.3,2.146,2.146,0,0,0,46.64,6.115ZM52.7,3.841V21.11h3.743V3.841Zm5.826,0V21.11h3.743V3.841ZM75.349,21.11a8.42,8.42,0,0,0,5.989-2.393,7.337,7.337,0,0,0,2.036-5.472A7.769,7.769,0,0,0,81.2,7.489,8.635,8.635,0,0,0,75,5.31H69.685v15.8ZM73.734,8.792h.983a4.507,4.507,0,0,1,3.229.995,4.758,4.758,0,0,1,1.217,3.459,4.333,4.333,0,0,1-1.193,3.245,4.623,4.623,0,0,1-3.416,1.137h-.819ZM91,13.387a2.559,2.559,0,0,1,1.661.687,2.588,2.588,0,0,1,.725,1.729,2.362,2.362,0,0,1-.193.916,2.336,2.336,0,0,1-.533.766,2.324,2.324,0,0,1-3.346,0,2.391,2.391,0,0,1,0-3.411A2.569,2.569,0,0,1,91,13.387Zm6.27,2.416a5.292,5.292,0,0,0-.4-2.113,5.236,5.236,0,0,0-1.21-1.77,6.559,6.559,0,0,0-4.679-1.753,6.484,6.484,0,0,0-4.656,1.753,5.236,5.236,0,0,0-1.21,1.77,5.291,5.291,0,0,0-.4,2.113,5.344,5.344,0,0,0,.4,2.125,5.288,5.288,0,0,0,1.21,1.783,7.09,7.09,0,0,0,9.335,0,5.285,5.285,0,0,0,1.211-1.783,5.342,5.342,0,0,0,.4-2.125Zm.4-5.281,5.38,10.588h2.527l2.5-5.827,2.62,5.827h2.527L118.7,10.521h-4.164l-2.62,5.756-2.644-5.756h-2.293l-2.644,5.592-2.48-5.592ZM119.519,21.11h3.743V15.425a2.454,2.454,0,0,1,.608-1.682,2.033,2.033,0,0,1,1.381-.5,1.55,1.55,0,0,1,.644.1,1.566,1.566,0,0,1,.549.353,3.07,3.07,0,0,1,.468,2.061V21.11h3.743V14.382a3.678,3.678,0,0,0-.983-2.961,4.2,4.2,0,0,0-3.088-1.137,3.9,3.9,0,0,0-1.851.367,3.953,3.953,0,0,0-1.471,1.2V10.521H119.52Zm16.914-15.8,6.552,15.8h3.158l6.644-15.8h-4.4l-3.79,9.618L140.858,5.31Zm17.174,5.212V21.11h3.743V10.521Zm-.234-4.406a2.136,2.136,0,0,0,.614,1.51,2.089,2.089,0,0,0,.685.462,2.118,2.118,0,0,0,1.615,0,2.115,2.115,0,0,0,1.139-1.155,2.195,2.195,0,0,0,0-1.635,2.09,2.09,0,0,0-1.947-1.315,2.087,2.087,0,0,0-1.491.622,2.142,2.142,0,0,0-.613,1.51Zm5.4,14.119a7.647,7.647,0,0,0,4.211,1.232,5.393,5.393,0,0,0,3.86-1.326,3.541,3.541,0,0,0,.8-1.2,3.588,3.588,0,0,0,.255-1.426,3.012,3.012,0,0,0-.8-2.108,4.4,4.4,0,0,0-1.544-.829l-.678-.19c-.585-.166-.889-.166-1.239-.308a.606.606,0,0,1-.32-.221.613.613,0,0,1-.125-.372.584.584,0,0,1,.088-.31.564.564,0,0,1,.241-.212,1.565,1.565,0,0,1,.866-.213,5.13,5.13,0,0,1,1.965.521l1.263-2.416a8.534,8.534,0,0,0-3.345-.687,5.24,5.24,0,0,0-3.743,1.279,3.811,3.811,0,0,0-.983,2.582,2.581,2.581,0,0,0,.678,1.825,3.346,3.346,0,0,0,1.826.924l.982.237a2.323,2.323,0,0,1,.983.379.565.565,0,0,1,.188.474.614.614,0,0,1-.038.271.585.585,0,0,1-.15.227,1.573,1.573,0,0,1-.958.284,4.818,4.818,0,0,1-1.45-.261,5.323,5.323,0,0,1-1.5-.782Zm10.576-9.712V17.13a3.838,3.838,0,0,0,.982,2.819c1.241,1.35,3.159,1.515,4.726,1.515a5.922,5.922,0,0,0,4.515-1.492,3.661,3.661,0,0,0,1.007-2.843V10.521H176.84v5.922a2.006,2.006,0,0,1-.113.8,1.984,1.984,0,0,1-.425.689,1.745,1.745,0,0,1-.62.367,1.724,1.724,0,0,1-.713.084,1.917,1.917,0,0,1-1.31-.4,2.023,2.023,0,0,1-.442-.71,2.081,2.081,0,0,1-.12-.83V10.521Zm21.431,1.019a4.155,4.155,0,0,0-1.422-1.03,4.089,4.089,0,0,0-1.713-.344,5.344,5.344,0,0,0-3.767,1.492,5.9,5.9,0,0,0-1.615,4.24,5.416,5.416,0,0,0,.358,2.1,5.335,5.335,0,0,0,1.138,1.788,4.979,4.979,0,0,0,3.768,1.683,3.863,3.863,0,0,0,1.807-.358,3.924,3.924,0,0,0,1.446-1.157V21.11h3.743V10.521h-3.743Zm-2.293,1.848a2.378,2.378,0,0,1,1.683.687,2.468,2.468,0,0,1,.552,2.657,2.28,2.28,0,0,1-.528.778,2.382,2.382,0,0,1-1.683.734,2.609,2.609,0,0,1-1.685-.711,2.446,2.446,0,0,1-.535-.791,2.381,2.381,0,0,1,.558-2.667A2.375,2.375,0,0,1,188.492,13.387Zm8.141-9.547V21.11h3.743V3.841Zm5.17,16.393a7.644,7.644,0,0,0,4.212,1.232,5.4,5.4,0,0,0,3.86-1.326,3.567,3.567,0,0,0,1.052-2.629,3.012,3.012,0,0,0-.8-2.108,4.4,4.4,0,0,0-1.544-.829l-.678-.19c-.585-.166-.889-.166-1.239-.308a.606.606,0,0,1-.32-.221.623.623,0,0,1-.125-.372.583.583,0,0,1,.088-.31.573.573,0,0,1,.241-.212,1.565,1.565,0,0,1,.866-.213,5.13,5.13,0,0,1,1.965.521l1.263-2.416a8.534,8.534,0,0,0-3.345-.687,5.24,5.24,0,0,0-3.743,1.279,3.811,3.811,0,0,0-.983,2.582,2.581,2.581,0,0,0,.678,1.825,3.357,3.357,0,0,0,1.826.924l.983.237a2.309,2.309,0,0,1,.982.379.565.565,0,0,1,.188.474.614.614,0,0,1-.038.271.585.585,0,0,1-.15.227,1.573,1.573,0,0,1-.958.284,4.818,4.818,0,0,1-1.45-.261,5.335,5.335,0,0,1-1.5-.782Z" transform="translate(12.571 2.162)"/>
</svg>
