<svg id="microsoft_partner_logo" xmlns="http://www.w3.org/2000/svg" width="168.8" height="31.857" viewBox="0 0 168.8 31.857">
  <path id="Path_2471" data-name="Path 2471" d="M16.93,25.989H14.983V14.847q0-1.318.159-3.212H15.1a11.1,11.1,0,0,1-.495,1.609L8.946,25.989H7.995L2.326,13.359a9.836,9.836,0,0,1-.5-1.7H1.781c.06.664.093,1.741.093,3.24V26.017H0V9.4H2.568L7.659,20.97a14.876,14.876,0,0,1,.753,2.015h.082c.385-1.065.649-1.741.8-2.032l5.2-11.531H16.93V26.011" transform="translate(0 5.569)"/>
  <path id="Path_2472" data-name="Path 2472" d="M15.152,10.172a1.175,1.175,0,0,1-.374.884,1.227,1.227,0,0,1-.88.351,1.243,1.243,0,0,1-.88-.34,1.185,1.185,0,0,1-.357-.895,1.208,1.208,0,0,1,.352-.862,1.177,1.177,0,0,1,.885-.368,1.194,1.194,0,0,1,.891.362,1.169,1.169,0,0,1,.363.868Zm-.324,16.089h-1.9V14.416h1.9Z" transform="translate(7.501 5.297)"/>
  <path id="Path_2473" data-name="Path 2473" d="M24.37,23.791a6.17,6.17,0,0,1-3.255.835,5.681,5.681,0,0,1-2.909-.747A5.159,5.159,0,0,1,16.2,21.77a6.5,6.5,0,0,1-.715-3.07,6.584,6.584,0,0,1,1.683-4.717A5.865,5.865,0,0,1,21.649,12.2a6.022,6.022,0,0,1,2.749.6v1.938a4.853,4.853,0,0,0-2.826-.928,3.8,3.8,0,0,0-2.991,1.313,4.986,4.986,0,0,0-1.149,3.4,4.675,4.675,0,0,0,1.1,3.295,3.759,3.759,0,0,0,2.931,1.2A4.827,4.827,0,0,0,24.37,21.99Z" transform="translate(9.17 7.224)"/>
  <path id="Path_2474" data-name="Path 2474" d="M28.68,14.38A2.339,2.339,0,0,0,27.234,14a2.365,2.365,0,0,0-2.046,1.186,5.486,5.486,0,0,0-.786,3.086v6.04h-1.9V12.458h1.9V14.9h.044a4.179,4.179,0,0,1,1.215-1.933,2.79,2.79,0,0,1,1.886-.714,3.16,3.16,0,0,1,1.133.159Z" transform="translate(13.333 7.255)"/>
  <path id="Path_2475" data-name="Path 2475" d="M38.213,18.354a6.387,6.387,0,0,1-1.6,4.541,5.59,5.59,0,0,1-4.3,1.719,5.5,5.5,0,0,1-4.2-1.647,6.185,6.185,0,0,1-1.567-4.393,6.5,6.5,0,0,1,1.611-4.646,5.793,5.793,0,0,1,4.432-1.708,5.287,5.287,0,0,1,4.129,1.647,6.454,6.454,0,0,1,1.49,4.519Zm-1.941.1a5.239,5.239,0,0,0-.99-3.426A3.477,3.477,0,0,0,32.45,13.84a3.647,3.647,0,0,0-2.892,1.219A5.091,5.091,0,0,0,28.5,18.5a4.829,4.829,0,0,0,1.067,3.328,3.687,3.687,0,0,0,2.887,1.2,3.482,3.482,0,0,0,2.837-1.181A5.168,5.168,0,0,0,36.272,18.458Z" transform="translate(15.726 7.235)"/>
  <path id="Path_2476" data-name="Path 2476" d="M42.113,21.159a3.068,3.068,0,0,1-1.182,2.5,4.855,4.855,0,0,1-3.156.961,5.79,5.79,0,0,1-2.936-.719V21.873A4.8,4.8,0,0,0,37.918,23q2.249,0,2.254-1.647a1.449,1.449,0,0,0-.44-1.1,8.25,8.25,0,0,0-2-1.131,5.907,5.907,0,0,1-2.2-1.439,3.045,3.045,0,0,1-.649-2.043,3.079,3.079,0,0,1,1.182-2.455,4.523,4.523,0,0,1,3-.983,5.7,5.7,0,0,1,2.529.549v1.911a4.4,4.4,0,0,0-2.683-.846,2.328,2.328,0,0,0-1.506.461,1.465,1.465,0,0,0-.55,1.192,1.6,1.6,0,0,0,.44,1.213,6.5,6.5,0,0,0,1.814,1,6.49,6.49,0,0,1,2.37,1.5,2.891,2.891,0,0,1,.682,1.977" transform="translate(20.64 7.231)"/>
  <path id="Path_2477" data-name="Path 2477" d="M51.879,18.354A6.392,6.392,0,0,1,50.273,22.9a5.589,5.589,0,0,1-4.3,1.719,5.468,5.468,0,0,1-4.19-1.647,6.184,6.184,0,0,1-1.567-4.393,6.509,6.509,0,0,1,1.606-4.646,5.805,5.805,0,0,1,4.432-1.708,5.288,5.288,0,0,1,4.129,1.647,6.473,6.473,0,0,1,1.5,4.519Zm-1.946.1a5.24,5.24,0,0,0-.99-3.426,3.477,3.477,0,0,0-2.826-1.192,3.637,3.637,0,0,0-2.892,1.219,5.065,5.065,0,0,0-1.067,3.41A4.806,4.806,0,0,0,43.23,21.8a3.67,3.67,0,0,0,2.887,1.2,3.483,3.483,0,0,0,2.832-1.181,5.168,5.168,0,0,0,.984-3.388" transform="translate(23.823 7.235)"/>
  <path id="Path_2478" data-name="Path 2478" d="M55.08,10.564a2.521,2.521,0,0,0-1.259-.313q-1.985,0-1.99,2.51v1.829H54.58V16.2H51.83V26.433h-1.9V16.2H47.921V14.589h2.012V12.667a4.037,4.037,0,0,1,1.061-2.916,3.592,3.592,0,0,1,2.711-1.1,3.749,3.749,0,0,1,1.375.209v1.713" transform="translate(28.391 5.125)"/>
  <path id="Path_2479" data-name="Path 2479" d="M59.32,25.414a3.6,3.6,0,0,1-1.781.384q-3.1,0-3.1-3.492V15.294H52.4V13.685h2.035V10.791l1.9-.615v3.509H59.32v1.609H56.334v6.683a2.742,2.742,0,0,0,.407,1.691,1.652,1.652,0,0,0,1.353.505,2,2,0,0,0,1.226-.384v1.647" transform="translate(31.046 6.029)"/>
  <path id="Path_2480" data-name="Path 2480" d="M71.368,14.353a4.939,4.939,0,0,1-1.649,3.882,6.328,6.328,0,0,1-4.366,1.455h-2.2v6.282H61.218V9.4h4.558a6.018,6.018,0,0,1,4.129,1.3,4.642,4.642,0,0,1,1.463,3.652Zm-2.04.1q0-3.295-3.887-3.295H63.164v6.8H65.2a4.606,4.606,0,0,0,3.068-.906,3.226,3.226,0,0,0,1.061-2.6" transform="translate(36.269 5.569)"/>
  <path id="Path_2481" data-name="Path 2481" d="M77.3,24.34h-1.9V22.49H75.35a3.971,3.971,0,0,1-3.645,2.142,3.923,3.923,0,0,1-2.749-.933,3.2,3.2,0,0,1-1.028-2.5q0-3.295,3.909-3.844l3.552-.5q0-3-2.441-3.009a5.843,5.843,0,0,0-3.849,1.45V13.33a5.707,5.707,0,0,1,1.776-.78,8.061,8.061,0,0,1,2.243-.368q4.173,0,4.179,4.431V24.34Zm-1.9-6.029-2.865.406a4.271,4.271,0,0,0-2.062.7,1.959,1.959,0,0,0-.588,1.592,1.772,1.772,0,0,0,.632,1.428,2.461,2.461,0,0,0,1.65.549,3.032,3.032,0,0,0,2.331-.994,3.518,3.518,0,0,0,.918-2.488V18.349" transform="translate(40.242 7.218)"/>
  <path id="Path_2482" data-name="Path 2482" d="M81.861,14.38a2.542,2.542,0,0,0-3.5.8,5.486,5.486,0,0,0-.786,3.086v6.04h-1.9V12.458h1.9V14.9h.044a4.224,4.224,0,0,1,1.215-1.933,2.789,2.789,0,0,1,1.886-.714,3.214,3.214,0,0,1,1.138.159V14.38" transform="translate(44.838 7.256)"/>
  <path id="Path_2483" data-name="Path 2483" d="M87.69,25.414a3.6,3.6,0,0,1-1.781.384q-3.1,0-3.1-3.492V15.294h-2.04V13.685h2.04V10.791l1.9-.615v3.509H87.69v1.609H84.7v6.683a2.744,2.744,0,0,0,.4,1.691,1.652,1.652,0,0,0,1.358.505,2,2,0,0,0,1.226-.384v1.647" transform="translate(47.851 6.029)"/>
  <path id="Path_2484" data-name="Path 2484" d="M96.613,24.335h-1.9V17.581q0-3.767-2.749-3.762a3,3,0,0,0-2.342,1.06,3.9,3.9,0,0,0-.946,2.7v6.754h-1.9V12.49h1.9v1.966h.05A4.251,4.251,0,0,1,92.616,12.2a3.6,3.6,0,0,1,2.975,1.274,5.606,5.606,0,0,1,1.028,3.608v7.254" transform="translate(51.414 7.223)"/>
  <path id="Path_2485" data-name="Path 2485" d="M104.592,18.887H96.229a4.389,4.389,0,0,0,1.056,3.059,3.7,3.7,0,0,0,2.81,1.06,5.822,5.822,0,0,0,3.667-1.3v1.768a6.78,6.78,0,0,1-4.118,1.148,4.952,4.952,0,0,1-3.959-1.647,6.682,6.682,0,0,1-1.424-4.519,7.175,7.175,0,0,1,.715-3.212A5.406,5.406,0,0,1,96.933,13a5.059,5.059,0,0,1,2.777-.8,4.5,4.5,0,0,1,3.6,1.5,6.243,6.243,0,0,1,1.286,4.2v.994Zm-1.94-1.609a3.928,3.928,0,0,0-.792-2.537,2.684,2.684,0,0,0-2.172-.912,3.054,3.054,0,0,0-2.254.95,4.391,4.391,0,0,0-1.182,2.509h6.4" transform="translate(55.845 7.224)"/>
  <path id="Path_2486" data-name="Path 2486" d="M108.3,14.38a2.529,2.529,0,0,0-3.491.8,5.494,5.494,0,0,0-.793,3.086v6.04h-1.9V12.458h1.9V14.9h.049a4.186,4.186,0,0,1,1.215-1.933,2.792,2.792,0,0,1,1.887-.714,3.177,3.177,0,0,1,1.132.159V14.38" transform="translate(60.501 7.256)"/>
  <path id="Path_2487" data-name="Path 2487" d="M4.716,6.546a1.981,1.981,0,0,1-.737,1.647,3.137,3.137,0,0,1-2.012.593A4.008,4.008,0,0,1,.922,8.632,2.719,2.719,0,0,1,.1,8.314V7.161a2.832,2.832,0,0,0,.929.549A3.071,3.071,0,0,0,2.1,7.924c1.061,0,1.595-.412,1.595-1.241a1.268,1.268,0,0,0-.341-.9,6.428,6.428,0,0,0-1.4-.977A4.723,4.723,0,0,1,.5,3.712,2.123,2.123,0,0,1,.823.846,2.845,2.845,0,0,1,2.72.231a3.385,3.385,0,0,1,1.65.3v1.1A2.625,2.625,0,0,0,2.7,1.076a1.778,1.778,0,0,0-1.1.346,1.1,1.1,0,0,0-.434.912,1.4,1.4,0,0,0,.132.659,1.483,1.483,0,0,0,.44.489,7.76,7.76,0,0,0,1.045.653A5.5,5.5,0,0,1,4.32,5.294a1.937,1.937,0,0,1,.434,1.252" transform="translate(0.051 0.132)"/>
  <path id="Path_2488" data-name="Path 2488" d="M5.3.684a.549.549,0,0,1-.187.439.6.6,0,0,1-.44.176.616.616,0,0,1-.44-.17A.593.593,0,0,1,4.054.684.6.6,0,0,1,4.23.25.627.627,0,0,1,5.3.684ZM5.142,8.745H4.2V2.8h.951V8.745" transform="translate(2.401 0.041)"/>
  <path id="Path_2489" data-name="Path 2489" d="M7.074,8.769H6.129V0h.946Z" transform="translate(3.631)"/>
  <path id="Path_2490" data-name="Path 2490" d="M13.113,1.788,10.738,7.73H9.814L7.565,1.788H8.61l1.507,4.294a4.844,4.844,0,0,1,.192.835h.055a3.757,3.757,0,0,1,.181-.807l1.578-4.327h.99" transform="translate(4.482 1.056)"/>
  <path id="Path_2491" data-name="Path 2491" d="M16.745,5.036H12.561a2.194,2.194,0,0,0,.55,1.527,1.827,1.827,0,0,0,1.4.549,2.917,2.917,0,0,0,1.831-.648v.884a3.369,3.369,0,0,1-2.056.549,2.47,2.47,0,0,1-1.979-.818,3.341,3.341,0,0,1-.715-2.262,3.592,3.592,0,0,1,.357-1.6A2.7,2.7,0,0,1,12.929,2.1a2.51,2.51,0,0,1,1.391-.4,2.25,2.25,0,0,1,1.8.747,3.127,3.127,0,0,1,.643,2.1v.494Zm-.957-.807a1.936,1.936,0,0,0-.4-1.274,1.348,1.348,0,0,0-1.1-.456,1.514,1.514,0,0,0-1.1.478A2.2,2.2,0,0,0,12.6,4.229h3.2" transform="translate(6.865 1.004)"/>
  <path id="Path_2492" data-name="Path 2492" d="M18.973,2.786a1.271,1.271,0,0,0-1.749.4,2.78,2.78,0,0,0-.39,1.543V7.767h-.951V1.825h.951V3.05a2.08,2.08,0,0,1,.61-.972,1.387,1.387,0,0,1,.94-.357,1.525,1.525,0,0,1,.55.082v.983" transform="translate(9.41 1.019)"/>
</svg>
