<svg xmlns="http://www.w3.org/2000/svg" xmlns:xlink="http://www.w3.org/1999/xlink" width="83.285" height="64.708" viewBox="0 0 83.285 64.708">
  <defs>
    <linearGradient id="linear-gradient" x1="3.37" y1="-0.617" x2="0" y2="1.382" gradientUnits="objectBoundingBox">
      <stop offset="0" stop-color="#bf3efe"/>
      <stop offset="1" stop-color="#1b9eff"/>
    </linearGradient>
    <clipPath id="clip-path">
      <rect id="Rectangle_1594" data-name="Rectangle 1594" width="83.285" height="64.709" transform="translate(0 0)" stroke="rgba(0,0,0,0)" stroke-width="1" fill="url(#linear-gradient)"/>
    </clipPath>
  </defs>
  <g id="Group_1371" data-name="Group 1371" transform="translate(0 25)">
    <g id="Group_1360" data-name="Group 1360" transform="translate(0 -25)" clip-path="url(#clip-path)">
      <path id="Path_2450" data-name="Path 2450" d="M11.961,35.056H6.509a2.689,2.689,0,0,1-2.082-.987,2.477,2.477,0,0,1-1.654.884h0A2.527,2.527,0,0,1,0,32.439V26.844A4.44,4.44,0,0,1,4.434,22.41h9.6a4.44,4.44,0,0,1,4.434,4.434v5.594A2.526,2.526,0,0,1,15.7,34.953a2.476,2.476,0,0,1-1.654-.884,2.688,2.688,0,0,1-2.082.987m-9.247-.718h0Zm1.72-2.6a.619.619,0,0,1,.619.619,1.459,1.459,0,0,0,1.455,1.463h5.452a1.457,1.457,0,0,0,1.455-1.456.619.619,0,0,1,.618-.619h0a.619.619,0,0,1,.618.617,1.346,1.346,0,0,0,1.161,1.361,1.29,1.29,0,0,0,1.418-1.284V26.844a3.2,3.2,0,0,0-3.2-3.2h-9.6a3.2,3.2,0,0,0-3.2,3.2v5.594a1.294,1.294,0,0,0,.422.954,1.281,1.281,0,0,0,1,.329,1.346,1.346,0,0,0,1.16-1.366.619.619,0,0,1,.619-.619" transform="translate(4.504 5.804)" stroke="rgba(0,0,0,0)" stroke-width="1" fill="url(#linear-gradient)"/>
      <path id="Path_2451" data-name="Path 2451" d="M19.673,23.648h-9.6a.619.619,0,1,1,0-1.238h9.6a.619.619,0,1,1,0,1.238" transform="translate(-1.134 5.804)" stroke="rgba(0,0,0,0)" stroke-width="1" fill="url(#linear-gradient)"/>
      <path id="Path_2452" data-name="Path 2452" d="M10.073,43.154a.619.619,0,0,1-.619-.619V40.1a.619.619,0,1,1,1.238,0v2.438a.619.619,0,0,1-.619.619" transform="translate(-1.134 -4.376)" stroke="rgba(0,0,0,0)" stroke-width="1" fill="url(#linear-gradient)"/>
      <path id="Path_2453" data-name="Path 2453" d="M33.855,43.154a.619.619,0,0,1-.619-.619V40.1a.619.619,0,1,1,1.238,0v2.438a.619.619,0,0,1-.619.619" transform="translate(-15.317 -4.376)" stroke="rgba(0,0,0,0)" stroke-width="1" fill="url(#linear-gradient)"/>
      <path id="Path_2454" data-name="Path 2454" d="M17.2,7.684a3.842,3.842,0,1,1,3.842-3.842A3.847,3.847,0,0,1,17.2,7.684m0-6.446a2.6,2.6,0,1,0,2.6,2.6,2.607,2.607,0,0,0-2.6-2.6" transform="translate(-3.465 19.168)" stroke="rgba(0,0,0,0)" stroke-width="1" fill="url(#linear-gradient)"/>
      <path id="Path_2455" data-name="Path 2455" d="M91.858,67.976H86.406a2.688,2.688,0,0,1-2.081-.987,2.478,2.478,0,0,1-1.654.884A2.527,2.527,0,0,1,79.9,65.358V59.764a4.44,4.44,0,0,1,4.434-4.434h9.6a4.44,4.44,0,0,1,4.434,4.434v5.594a2.527,2.527,0,0,1-2.773,2.515,2.475,2.475,0,0,1-1.653-.884,2.689,2.689,0,0,1-2.082.987m-7.527-3.318a.619.619,0,0,1,.619.619,1.458,1.458,0,0,0,1.455,1.462h5.453a1.457,1.457,0,0,0,1.456-1.455.619.619,0,0,1,.618-.619h0a.619.619,0,0,1,.619.616,1.346,1.346,0,0,0,1.16,1.361,1.277,1.277,0,0,0,1-.329,1.294,1.294,0,0,0,.423-.955V59.764a3.2,3.2,0,0,0-3.2-3.2h-9.6a3.2,3.2,0,0,0-3.2,3.2v5.594a1.293,1.293,0,0,0,.423.955,1.277,1.277,0,0,0,1,.329,1.345,1.345,0,0,0,1.16-1.365.619.619,0,0,1,.619-.619" transform="translate(-47.648 -3.267)" stroke="rgba(0,0,0,0)" stroke-width="1" fill="url(#linear-gradient)"/>
      <path id="Path_2470" data-name="Path 2470" d="M91.858,67.976H86.406a2.688,2.688,0,0,1-2.081-.987,2.478,2.478,0,0,1-1.654.884A2.527,2.527,0,0,1,79.9,65.358V59.764a4.44,4.44,0,0,1,4.434-4.434h9.6a4.44,4.44,0,0,1,4.434,4.434v5.594a2.527,2.527,0,0,1-2.773,2.515,2.475,2.475,0,0,1-1.653-.884,2.689,2.689,0,0,1-2.082.987m-7.527-3.318a.619.619,0,0,1,.619.619,1.458,1.458,0,0,0,1.455,1.462h5.453a1.457,1.457,0,0,0,1.456-1.455.619.619,0,0,1,.618-.619h0a.619.619,0,0,1,.619.616,1.346,1.346,0,0,0,1.16,1.361,1.277,1.277,0,0,0,1-.329,1.294,1.294,0,0,0,.423-.955V59.764a3.2,3.2,0,0,0-3.2-3.2h-9.6a3.2,3.2,0,0,0-3.2,3.2v5.594a1.293,1.293,0,0,0,.423.955,1.277,1.277,0,0,0,1,.329,1.345,1.345,0,0,0,1.16-1.365.619.619,0,0,1,.619-.619" transform="translate(-47.648 -44.889)" stroke="rgba(0,0,0,0)" stroke-width="1" fill="url(#linear-gradient)"/>
      <path id="Path_2456" data-name="Path 2456" d="M99.571,56.567h-9.6a.619.619,0,1,1,0-1.238h9.6a.619.619,0,1,1,0,1.238" transform="translate(-53.287 -3.266)" stroke="rgba(0,0,0,0)" stroke-width="1" fill="url(#linear-gradient)"/>
      <path id="Path_2469" data-name="Path 2469" d="M99.571,56.567h-9.6a.619.619,0,1,1,0-1.238h9.6a.619.619,0,1,1,0,1.238" transform="translate(-53.287 -44.888)" stroke="rgba(0,0,0,0)" stroke-width="1" fill="url(#linear-gradient)"/>
      <path id="Path_2457" data-name="Path 2457" d="M89.97,76.073a.619.619,0,0,1-.619-.619V73.017a.619.619,0,0,1,1.238,0v2.438a.619.619,0,0,1-.619.619" transform="translate(-53.286 -13.446)" stroke="rgba(0,0,0,0)" stroke-width="1" fill="url(#linear-gradient)"/>
      <path id="Path_2471" data-name="Path 2471" d="M89.97,76.073a.619.619,0,0,1-.619-.619V73.017a.619.619,0,0,1,1.238,0v2.438a.619.619,0,0,1-.619.619" transform="translate(-53.286 -55.068)" stroke="rgba(0,0,0,0)" stroke-width="1" fill="url(#linear-gradient)"/>
      <path id="Path_2458" data-name="Path 2458" d="M113.751,76.073a.619.619,0,0,1-.619-.619V73.017a.619.619,0,0,1,1.238,0v2.438a.619.619,0,0,1-.619.619" transform="translate(-67.468 -13.446)" stroke="rgba(0,0,0,0)" stroke-width="1" fill="url(#linear-gradient)"/>
      <path id="Path_2472" data-name="Path 2472" d="M113.751,76.073a.619.619,0,0,1-.619-.619V73.017a.619.619,0,0,1,1.238,0v2.438a.619.619,0,0,1-.619.619" transform="translate(-67.468 -55.068)" stroke="rgba(0,0,0,0)" stroke-width="1" fill="url(#linear-gradient)"/>
      <path id="Path_2459" data-name="Path 2459" d="M97.1,40.6a3.842,3.842,0,1,1,3.842-3.842A3.846,3.846,0,0,1,97.1,40.6m0-6.447a2.6,2.6,0,1,0,2.6,2.605,2.607,2.607,0,0,0-2.6-2.605" transform="translate(-55.617 10.098)" stroke="rgba(0,0,0,0)" stroke-width="1" fill="url(#linear-gradient)"/>
      <path id="Path_2468" data-name="Path 2468" d="M97.1,40.6a3.842,3.842,0,1,1,3.842-3.842A3.846,3.846,0,0,1,97.1,40.6m0-6.447a2.6,2.6,0,1,0,2.6,2.605,2.607,2.607,0,0,0-2.6-2.605" transform="translate(-55.617 -31.524)" stroke="rgba(0,0,0,0)" stroke-width="1" fill="url(#linear-gradient)"/>
      <path id="Path_2460" data-name="Path 2460" d="M63.176,35.488a.615.615,0,0,1-.316-.087l-4.572-2.72a.619.619,0,1,1,.632-1.063l4.572,2.72a.619.619,0,0,1-.317,1.15" transform="translate(-32.128 12.388)" stroke="rgba(0,0,0,0)" stroke-width="1" fill="url(#linear-gradient)"/>
      <path id="Path_2467" data-name="Path 2467" d="M9.013,6.236A.615.615,0,0,1,8.7,6.149l-8.4-5A.619.619,0,1,1,.935.087l8.4,5a.619.619,0,0,1-.317,1.15" transform="translate(41.935 27.377) rotate(60)" stroke="rgba(0,0,0,0)" stroke-width="1" fill="url(#linear-gradient)"/>
      <path id="Path_2461" data-name="Path 2461" d="M172.54,35.056h-5.452a2.69,2.69,0,0,1-2.082-.987,2.474,2.474,0,0,1-1.653.884,2.527,2.527,0,0,1-2.773-2.515V26.844a4.44,4.44,0,0,1,4.434-4.434h9.6a4.44,4.44,0,0,1,4.434,4.434v5.594a2.528,2.528,0,0,1-2.773,2.515h0a2.478,2.478,0,0,1-1.654-.885,2.689,2.689,0,0,1-2.082.988m-7.526-3.312h0a.619.619,0,0,1,.618.619,1.457,1.457,0,0,0,1.455,1.455h5.452A1.457,1.457,0,0,0,174,32.363v-.007a.619.619,0,1,1,1.237,0,1.346,1.346,0,0,0,1.161,1.366,1.279,1.279,0,0,0,1-.329,1.292,1.292,0,0,0,.422-.954V26.844a3.2,3.2,0,0,0-3.2-3.2h-9.6a3.2,3.2,0,0,0-3.2,3.2v5.594a1.29,1.29,0,0,0,1.418,1.284,1.346,1.346,0,0,0,1.16-1.361.619.619,0,0,1,.619-.616" transform="translate(-95.765 16.365)" stroke="rgba(0,0,0,0)" stroke-width="1" fill="url(#linear-gradient)"/>
      <path id="Path_2462" data-name="Path 2462" d="M180.254,23.648h-9.6a.619.619,0,0,1,0-1.238h9.6a.619.619,0,0,1,0,1.238" transform="translate(-101.403 16.365)" stroke="rgba(0,0,0,0)" stroke-width="1" fill="url(#linear-gradient)"/>
      <path id="Path_2463" data-name="Path 2463" d="M194.438,43.154a.619.619,0,0,1-.619-.619V40.1a.619.619,0,0,1,1.238,0v2.438a.619.619,0,0,1-.619.619" transform="translate(-115.587 6.186)" stroke="rgba(0,0,0,0)" stroke-width="1" fill="url(#linear-gradient)"/>
      <path id="Path_2464" data-name="Path 2464" d="M170.656,43.154a.619.619,0,0,1-.619-.619V40.1a.619.619,0,1,1,1.238,0v2.438a.619.619,0,0,1-.619.619" transform="translate(-101.405 6.186)" stroke="rgba(0,0,0,0)" stroke-width="1" fill="url(#linear-gradient)"/>
      <path id="Path_2465" data-name="Path 2465" d="M177.783,7.684a3.842,3.842,0,1,1,3.842-3.842,3.847,3.847,0,0,1-3.842,3.842m0-6.446a2.6,2.6,0,1,0,2.6,2.6,2.607,2.607,0,0,0-2.6-2.6" transform="translate(-103.733 29.73)" stroke="rgba(0,0,0,0)" stroke-width="1" fill="url(#linear-gradient)"/>
      <path id="Path_2466" data-name="Path 2466" d="M128.5,35.743a.619.619,0,0,1-.317-1.15l8.4-5a.618.618,0,1,1,.632,1.063l-8.4,5a.615.615,0,0,1-.316.087" transform="translate(-76.265 12.133)" stroke="rgba(0,0,0,0)" stroke-width="1" fill="url(#linear-gradient)"/>
    </g>
  </g>
</svg>
