<svg id="Group_1365" data-name="Group 1365" xmlns="http://www.w3.org/2000/svg" xmlns:xlink="http://www.w3.org/1999/xlink" width="41.607" height="49.391" viewBox="0 0 41.607 49.391">
  <defs>
    <linearGradient id="linear-gradient" x1="3.37" y1="-0.617" x2="0" y2="1.382" gradientUnits="objectBoundingBox">
      <stop offset="0" stop-color="#bf3efe"/>
      <stop offset="1" stop-color="#1b9eff"/>
    </linearGradient>
    <clipPath id="clip-path">
      <rect id="Rectangle_1596" data-name="Rectangle 1596" width="41.607" height="49.391" stroke="rgba(0,0,0,0)" stroke-width="1" fill="url(#linear-gradient)"/>
    </clipPath>
  </defs>
  <path id="Path_2473" data-name="Path 2473" d="M48.315,102.7H34.409l4.06-8.169,1.308.65-3.011,6.058h9.191l-3.017-6.07,1.308-.651Z" transform="translate(-20.558 -56.469)" stroke="rgba(0,0,0,0)" stroke-width="1" fill="url(#linear-gradient)"/>
  <g id="Group_1364" data-name="Group 1364">
    <g id="Group_1363" data-name="Group 1363" clip-path="url(#clip-path)">
      <path id="Path_2474" data-name="Path 2474" d="M44.5,115.9H28.889a2.29,2.29,0,0,1,0-4.579H44.5a2.29,2.29,0,0,1,0,4.579m-15.614-3.118a.829.829,0,1,0,0,1.658H44.5a.829.829,0,1,0,0-1.658Z" transform="translate(-15.892 -66.512)" stroke="rgba(0,0,0,0)" stroke-width="1" fill="url(#linear-gradient)"/>
      <path id="Path_2475" data-name="Path 2475" d="M14.778,33.127a.73.73,0,0,1-.329-.078,25.47,25.47,0,0,1-13-14.312A23.905,23.905,0,0,1,.02,9.887,6.263,6.263,0,0,1,1.579,5.507a3.731,3.731,0,0,1,2.594-.989c3.527,0,4.318,3.527,4.743,5.422.074.331.144.644.216.9.068.237.471.624,1.4,1a.73.73,0,0,1-.545,1.355,3.426,3.426,0,0,1-2.259-1.951c-.079-.278-.156-.618-.237-.979C6.966,7.917,6.353,5.979,4.173,5.979a2.3,2.3,0,0,0-1.6.6A4.927,4.927,0,0,0,1.481,9.89c0,.021,0,.042,0,.063A22.223,22.223,0,0,0,2.83,18.247a24.034,24.034,0,0,0,12.277,13.5.731.731,0,0,1-.33,1.383" transform="translate(0 -2.699)" stroke="rgba(0,0,0,0)" stroke-width="1" fill="url(#linear-gradient)"/>
      <path id="Path_2476" data-name="Path 2476" d="M65.745,33.09a.731.731,0,0,1-.331-1.382A24.02,24.02,0,0,0,77.62,18.247a22.214,22.214,0,0,0,1.351-8.295q0-.031,0-.063a4.929,4.929,0,0,0-1.094-3.314,2.3,2.3,0,0,0-1.6-.6c-2.179,0-2.792,1.938-3.317,4.28-.081.362-.158.7-.237.981a3.427,3.427,0,0,1-2.262,1.953.73.73,0,1,1-.544-1.356c.929-.373,1.333-.76,1.4-1,.073-.255.143-.567.216-.9.426-1.9,1.218-5.422,4.743-5.422a3.73,3.73,0,0,1,2.594.989,6.264,6.264,0,0,1,1.56,4.381A23.913,23.913,0,0,1,79,18.736,25.458,25.458,0,0,1,66.076,33.011a.731.731,0,0,1-.33.079" transform="translate(-38.844 -2.699)" stroke="rgba(0,0,0,0)" stroke-width="1" fill="url(#linear-gradient)"/>
      <path id="Path_2477" data-name="Path 2477" d="M37.517,34.853a.731.731,0,0,1-.511-1.252,24.374,24.374,0,0,0,4.767-6.673q.173-.35.337-.707c.117-.258.219-.488.318-.721.111-.262.207-.5.3-.734.105-.271.195-.507.281-.745l.028-.08q.121-.337.235-.678l.034-.107c.071-.218.142-.438.208-.66l.042-.145c.062-.21.123-.422.182-.635l.043-.168c.054-.206.109-.413.159-.621l.041-.18c.049-.206.1-.412.142-.619l.044-.219c.045-.218.083-.4.118-.588l.066-.381c.026-.145.052-.29.075-.436l.064-.435c.019-.129.039-.258.056-.388l.055-.454c.015-.126.031-.251.044-.377l.047-.5c.011-.112.022-.223.031-.335s.014-.2.02-.3l.059-1.11c0-.1.008-.192.011-.288.008-.279.011-.558.011-.838V2.989q-.373-.121-.747-.232c-.125-.037-.251-.07-.377-.1l-.434-.119c-.147-.041-.293-.083-.441-.12-.2-.052-.408-.1-.613-.142l-.38-.087c-.089-.021-.179-.042-.268-.061-.255-.053-.511-.1-.768-.145L40.5,1.925c-.07-.014-.14-.028-.211-.039-.289-.048-.58-.087-.87-.127L39.2,1.727c-.061-.009-.122-.019-.184-.027-.316-.039-.633-.069-.95-.1l-.332-.034c-.322-.027-.645-.043-.968-.06l-.316-.02c-.313-.013-.626-.017-.94-.02l-.34-.007h-.03a31.379,31.379,0,0,0-9.687,1.528V13.464c0,7.8,2.916,15.326,7.8,20.122a.731.731,0,0,1-1.024,1.043C27,29.488,23.993,21.774,23.993,13.464v-11a.73.73,0,0,1,.494-.691A32.833,32.833,0,0,1,35.138,0h.041c.067,0,.136,0,.205,0l.132,0c.339,0,.667.008.995.021.067,0,.134.007.2.012l.131.008c.338.017.676.035,1.013.063.069.006.138.013.207.021L38.2.147c.335.031.667.062,1,.1.075.009.149.02.223.032l.2.029c.3.041.61.083.914.133.084.014.167.03.25.046l.269.05c.27.048.54.1.81.153.1.022.205.046.308.07l.359.082c.218.048.436.1.653.152.16.04.32.085.479.13l.415.114c.138.037.277.074.415.115q.652.193,1.3.415a.73.73,0,0,1,.494.691v11c0,.308,0,.6-.012.892,0,.1-.007.209-.012.313l-.012.294c0,.093-.007.187-.012.28l-.037.562c-.006.107-.013.214-.022.321s-.021.24-.033.361L46.1,17c-.014.135-.031.269-.048.4l-.056.467c-.018.138-.039.277-.06.415l-.066.447c-.025.155-.052.308-.079.461l-.069.393c-.037.2-.076.389-.117.582l-.053.263c-.047.218-.1.433-.148.648l-.044.19c-.053.217-.11.434-.167.651l-.045.176c-.061.224-.125.445-.19.666l-.044.152c-.07.232-.143.463-.219.694l-.035.111c-.079.24-.162.477-.246.713l-.029.084q-.135.373-.28.742c-.113.289-.214.536-.318.781-.116.274-.223.516-.333.756-.129.283-.247.531-.368.776a25.847,25.847,0,0,1-5.055,7.071.728.728,0,0,1-.511.209" transform="translate(-14.335)" stroke="rgba(0,0,0,0)" stroke-width="1" fill="url(#linear-gradient)"/>
      <path id="Path_2478" data-name="Path 2478" d="M46.14,87.975a3.734,3.734,0,1,1,3.734-3.734,3.738,3.738,0,0,1-3.734,3.734m0-6.006a2.273,2.273,0,1,0,2.273,2.273,2.275,2.275,0,0,0-2.273-2.273" transform="translate(-25.336 -48.101)" stroke="rgba(0,0,0,0)" stroke-width="1" fill="url(#linear-gradient)"/>
    </g>
  </g>
</svg>
