<svg xmlns="http://www.w3.org/2000/svg" width="190" height="190" viewBox="0 0 190 190">
  <g id="Group_1328" data-name="Group 1328" transform="translate(-5934.274 -1986.579)">
    <circle id="Ellipse_69" data-name="Ellipse 69" cx="95" cy="95" r="95" transform="translate(5934.274 1986.579)" fill="#ebf3ff"/>
    <g id="Group_1327" data-name="Group 1327">
      <g id="Group_1304" data-name="Group 1304">
        <g id="Group_1270" data-name="Group 1270">
          <path id="Path_2284" data-name="Path 2284" d="M6015.986,2025.538h-4.4s-1.542,11.205-5.731,15.92c-3.968,4.468-11.4,3.242-11.4,3.242l-.007.024a17.14,17.14,0,0,0-8.383-.022,23.511,23.511,0,0,0-6.032,2.556,12.287,12.287,0,0,0-5.276,10.021c.1,5.1,3.9,11.177,3.865,11.612-.334,4.869-.707,4.7-.2,6.438,1.223,4.213,18.539,2.475,18.847.545.279-1.752-.526-4.68-.122-8.618.637-6.209,1.9-8.419,3.342-12.248,7.952-.651,13.09-5.184,14.689-12.464C6016.831,2035.034,6015.986,2025.538,6015.986,2025.538Z" fill="#5479f7"/>
          <path id="Path_2285" data-name="Path 2285" d="M5986.935,2078.161c-4.173,0-8.14-.717-8.735-2.766a5.717,5.717,0,0,1-.136-2.914c.089-.784.211-1.857.33-3.589a11.466,11.466,0,0,0-.515-1.1c-1.063-2.136-3.273-6.581-3.35-10.506-.129-6.631,5.33-10.189,5.385-10.225a24.038,24.038,0,0,1,6.1-2.584,17.319,17.319,0,0,1,8.4-.005.231.231,0,0,1,.083,0c.073.012,7.348,1.15,11.183-3.166,4.092-4.608,5.658-15.686,5.674-15.8a.235.235,0,0,1,.232-.2h4.4a.235.235,0,0,1,.234.214c.009.1.83,9.619-.809,17.078s-6.874,11.939-14.751,12.634c-.233.618-.462,1.194-.684,1.753a32.744,32.744,0,0,0-2.591,10.3,29.31,29.31,0,0,0,.061,5.656,13.332,13.332,0,0,1,.059,2.975c-.213,1.331-5.4,2-8.112,2.172C5988.582,2078.133,5987.754,2078.161,5986.935,2078.161Zm3.351-33.731a16.77,16.77,0,0,0-4.154.5,23.487,23.487,0,0,0-5.965,2.526c-.054.034-5.292,3.458-5.168,9.82.075,3.819,2.253,8.2,3.3,10.306.457.917.575,1.164.564,1.326-.12,1.752-.243,2.836-.333,3.627a5.265,5.265,0,0,0,.121,2.73c.636,2.188,6.168,2.633,10.713,2.35,4.808-.3,7.591-1.241,7.677-1.777a13.317,13.317,0,0,0-.063-2.862,29.607,29.607,0,0,1-.06-5.743,33.13,33.13,0,0,1,2.621-10.424c.238-.6.484-1.216.734-1.883a.234.234,0,0,1,.2-.151c7.736-.634,12.878-4.995,14.478-12.28,1.488-6.77.928-15.272.817-16.721h-3.976c-.236,1.586-1.832,11.42-5.759,15.841-3.75,4.223-10.583,3.459-11.507,3.333a.225.225,0,0,1-.134,0A15.663,15.663,0,0,0,5990.286,2044.43ZM5978.4,2068.9Z"/>
        </g>
        <g id="Group_1283" data-name="Group 1283">
          <g id="Group_1275" data-name="Group 1275">
            <g id="Group_1271" data-name="Group 1271">
              <path id="Path_2286" data-name="Path 2286" d="M6072.153,2138.842h-78a3.971,3.971,0,0,1-3.881-4.627l16.776-105.011a3.949,3.949,0,0,1,3.881-3.35h78a3.971,3.971,0,0,1,3.881,4.627l-16.776,105.011A3.948,3.948,0,0,1,6072.153,2138.842Z" fill="#5479f7"/>
              <path id="Path_2287" data-name="Path 2287" d="M6069.674,2138.569h-78a3.965,3.965,0,0,1-3.88-4.618l16.775-104.829a3.947,3.947,0,0,1,3.881-3.345h78a3.966,3.966,0,0,1,3.88,4.619l-16.776,104.829A3.946,3.946,0,0,1,6069.674,2138.569Z" fill="#fff"/>
              <path id="Path_2288" data-name="Path 2288" d="M6069.674,2138.8h-78a4.143,4.143,0,0,1-3.155-1.462,4.227,4.227,0,0,1-.957-3.423l16.775-104.7a4.164,4.164,0,0,1,4.113-3.538h18.8a.234.234,0,1,1,0,.469h-18.8a3.7,3.7,0,0,0-3.649,3.143l-16.776,104.7a3.771,3.771,0,0,0,.851,3.045,3.674,3.674,0,0,0,2.8,1.3h78a3.694,3.694,0,0,0,3.648-3.142l16.776-104.7a3.766,3.766,0,0,0-.85-3.044,3.677,3.677,0,0,0-2.8-1.3h-2.44a.234.234,0,1,1,0-.469h2.44a4.142,4.142,0,0,1,3.155,1.461,4.239,4.239,0,0,1,.957,3.424l-16.776,104.7A4.163,4.163,0,0,1,6069.674,2138.8Z"/>
            </g>
            <g id="Group_1274" data-name="Group 1274">
              <g id="Group_1272" data-name="Group 1272">
                <path id="Path_2289" data-name="Path 2289" d="M6056.92,2035.513h-22.611a5.886,5.886,0,0,1-5.757-6.892l.528-3.16a.66.66,0,0,1,.649-.555h34.828a.665.665,0,0,1,.65.778l-.535,3.2A7.889,7.889,0,0,1,6056.92,2035.513Z" fill="#99b9ff"/>
                <path id="Path_2290" data-name="Path 2290" d="M6056.92,2035.747h-22.611a6.039,6.039,0,0,1-4.614-2.147,6.175,6.175,0,0,1-1.375-5.018l.528-3.159a.893.893,0,0,1,.881-.752h34.828a.889.889,0,0,1,.68.316.9.9,0,0,1,.2.735l-.535,3.2A8.1,8.1,0,0,1,6056.92,2035.747Zm-27.191-10.606a.426.426,0,0,0-.418.359l-.528,3.16a5.7,5.7,0,0,0,1.271,4.637,5.569,5.569,0,0,0,4.255,1.981h22.611a7.633,7.633,0,0,0,7.52-6.432l.535-3.2a.435.435,0,0,0-.1-.354.416.416,0,0,0-.321-.15Z"/>
              </g>
              <g id="Group_1273" data-name="Group 1273">
                <path id="Path_2291" data-name="Path 2291" d="M6041.7,2031.822h9.656a.724.724,0,0,0,.737-.608l1.323-8.541a5.575,5.575,0,0,0-5.444-6.479h0a5.534,5.534,0,0,0-5.445,4.712l-1.564,10.067A.73.73,0,0,0,6041.7,2031.822Zm3.95-10.365.011-.064a2.253,2.253,0,1,1,4.442.758l-.01.064a2.263,2.263,0,0,1-2.221,1.909h0A2.278,2.278,0,0,1,6045.649,2021.457Z" fill="#99b9ff"/>
                <path id="Path_2292" data-name="Path 2292" d="M6051.355,2032.056H6041.7a.988.988,0,0,1-.755-.342.963.963,0,0,1-.214-.778l1.564-10.066a5.72,5.72,0,0,1,10.014-2.9,5.889,5.889,0,0,1,1.34,4.743l-1.324,8.54A.955.955,0,0,1,6051.355,2032.056Zm-3.384-15.627a5.278,5.278,0,0,0-5.213,4.514l-1.564,10.066a.488.488,0,0,0,.108.4.519.519,0,0,0,.4.178h9.656a.487.487,0,0,0,.5-.41l1.323-8.54a5.418,5.418,0,0,0-1.232-4.365A5.241,5.241,0,0,0,6047.971,2016.429Zm-.1,7.93a2.47,2.47,0,0,1-1.886-.878,2.539,2.539,0,0,1-.567-2.062l.01-.064a2.476,2.476,0,0,1,4.339-1.228,2.54,2.54,0,0,1,.567,2.062l-.01.064A2.492,2.492,0,0,1,6047.871,2024.359Zm.01-4.64a2.021,2.021,0,0,0-1.989,1.712l-.011.065a2.071,2.071,0,0,0,.462,1.681,2.006,2.006,0,0,0,3.517-1l.01-.064a2.068,2.068,0,0,0-.462-1.682A2,2,0,0,0,6047.881,2019.719Zm-2.232,1.738h0Z"/>
              </g>
            </g>
          </g>
          <g id="Group_1282" data-name="Group 1282">
            <g id="Group_1276" data-name="Group 1276">
              <path id="Path_2293" data-name="Path 2293" d="M6051.294,2054.5l-6.76,42.5a1.291,1.291,0,0,0,1.264,1.5h3.271a1.286,1.286,0,0,0,1.264-1.09l6.761-42.5a1.29,1.29,0,0,0-1.264-1.5h-3.272A1.284,1.284,0,0,0,6051.294,2054.5Z" fill="#99b9ff"/>
              <path id="Path_2294" data-name="Path 2294" d="M6039.913,2065.418l-4.907,31.591a1.291,1.291,0,0,0,1.265,1.5h3.272a1.286,1.286,0,0,0,1.265-1.1l4.909-31.591a1.29,1.29,0,0,0-1.265-1.5h-3.274A1.285,1.285,0,0,0,6039.913,2065.418Z" fill="#caddff"/>
              <path id="Path_2295" data-name="Path 2295" d="M6029.149,2073.6l-3.662,23.409a1.291,1.291,0,0,0,1.265,1.5h3.271a1.287,1.287,0,0,0,1.265-1.093l3.663-23.409a1.29,1.29,0,0,0-1.264-1.5h-3.273A1.285,1.285,0,0,0,6029.149,2073.6Z" fill="#5479f7"/>
              <path id="Path_2296" data-name="Path 2296" d="M6018.384,2081.778,6015.969,2097a1.291,1.291,0,0,0,1.265,1.5h3.27a1.285,1.285,0,0,0,1.264-1.091l2.416-15.227a1.291,1.291,0,0,0-1.264-1.5h-3.272A1.284,1.284,0,0,0,6018.384,2081.778Z" fill="#99b9ff"/>
              <path id="Path_2297" data-name="Path 2297" d="M6007.635,2088.525l-1.214,8.5a1.292,1.292,0,0,0,1.268,1.481h3.277a1.285,1.285,0,0,0,1.267-1.11l1.215-8.5a1.29,1.29,0,0,0-1.268-1.48H6008.9A1.286,1.286,0,0,0,6007.635,2088.525Z" fill="#caddff"/>
            </g>
            <g id="Group_1280" data-name="Group 1280">
              <g id="Group_1277" data-name="Group 1277">
                <ellipse id="Ellipse_70" data-name="Ellipse 70" cx="2.016" cy="2.039" rx="2.016" ry="2.039" transform="translate(6004.263 2105.721)" fill="#99b9ff"/>
                <path id="Path_2298" data-name="Path 2298" d="M6006.278,2110.034a2.274,2.274,0,1,1,2.251-2.273A2.265,2.265,0,0,1,6006.278,2110.034Zm0-4.078a1.8,1.8,0,1,0,1.781,1.8A1.8,1.8,0,0,0,6006.278,2105.956Z"/>
              </g>
              <g id="Group_1278" data-name="Group 1278">
                <ellipse id="Ellipse_71" data-name="Ellipse 71" cx="2.016" cy="2.039" rx="2.016" ry="2.039" transform="translate(6002.541 2114.125)" fill="#99b9ff"/>
                <path id="Path_2299" data-name="Path 2299" d="M6004.556,2118.438a2.274,2.274,0,1,1,2.251-2.274A2.264,2.264,0,0,1,6004.556,2118.438Zm0-4.078a1.8,1.8,0,1,0,1.781,1.8A1.794,1.794,0,0,0,6004.556,2114.36Z"/>
              </g>
              <g id="Group_1279" data-name="Group 1279">
                <ellipse id="Ellipse_72" data-name="Ellipse 72" cx="2.016" cy="2.039" rx="2.016" ry="2.039" transform="translate(6001.021 2122.938)" fill="#99b9ff"/>
                <path id="Path_2300" data-name="Path 2300" d="M6003.037,2127.251a2.274,2.274,0,1,1,2.25-2.274A2.265,2.265,0,0,1,6003.037,2127.251Zm0-4.078a1.8,1.8,0,1,0,1.781,1.8A1.795,1.795,0,0,0,6003.037,2123.173Z"/>
              </g>
              <path id="Path_2301" data-name="Path 2301" d="M6033.731,2108.152h-21.577a.392.392,0,1,1,0-.783h21.577a.392.392,0,0,1,0,.783Z" fill="#99b9ff"/>
              <path id="Path_2302" data-name="Path 2302" d="M6032.38,2116.487h-2.245a.391.391,0,1,1,0-.783h2.245a.391.391,0,1,1,0,.783Z" fill="#99b9ff"/>
              <path id="Path_2303" data-name="Path 2303" d="M6026.032,2116.487H6010.8a.391.391,0,0,1,0-.783h15.229a.391.391,0,1,1,0,.783Z" fill="#99b9ff"/>
              <path id="Path_2304" data-name="Path 2304" d="M6030.624,2125.095h-21.577a.391.391,0,0,1,0-.783h21.577a.391.391,0,1,1,0,.783Z" fill="#99b9ff"/>
            </g>
            <g id="Group_1281" data-name="Group 1281">
              <path id="Path_2305" data-name="Path 2305" d="M6037.449,2045.68a13.894,13.894,0,0,1-6.466,18.42l-6.268-12.494Z" fill="#caddff"/>
              <path id="Path_2306" data-name="Path 2306" d="M6037.449,2045.68a13.592,13.592,0,0,0-18.784-6.248,13.94,13.94,0,0,0-6.154,17.53,13.6,13.6,0,0,0,18.472,7.138l-5.555-11.808a.75.75,0,0,1,.349-.993Z" fill="#99b9ff"/>
              <path id="Path_2307" data-name="Path 2307" d="M6030.983,2064.1l-5.555-11.808-.435,13.149A13.482,13.482,0,0,0,6030.983,2064.1Z" fill="#5479f7"/>
              <ellipse id="Ellipse_73" data-name="Ellipse 73" cx="5.142" cy="5.202" rx="5.142" ry="5.202" transform="translate(6019.974 2046.417)" fill="#fff"/>
            </g>
          </g>
        </g>
        <g id="Group_1292" data-name="Group 1292">
          <g id="Group_1290" data-name="Group 1290">
            <g id="Group_1289" data-name="Group 1289">
              <g id="Group_1284" data-name="Group 1284">
                <path id="Path_2308" data-name="Path 2308" d="M6007.442,2069.274a16.4,16.4,0,0,0,4.834-.774c1.659-.727,1.633.533,1.164.977a10.424,10.424,0,0,1-4.729,1.8Z" fill="#fff"/>
                <path id="Path_2309" data-name="Path 2309" d="M6008.711,2071.511a.234.234,0,0,1-.2-.109l-1.27-2a.234.234,0,0,1,.195-.36,16.3,16.3,0,0,0,4.743-.754c1.069-.468,1.489-.146,1.644.088a1.067,1.067,0,0,1-.224,1.275,10.675,10.675,0,0,1-4.873,1.862Zm-.851-2.016.973,1.535a10.385,10.385,0,0,0,4.445-1.724.619.619,0,0,0,.155-.673c-.121-.184-.529-.152-1.063.082A14.866,14.866,0,0,1,6007.86,2069.5Z"/>
              </g>
              <g id="Group_1287" data-name="Group 1287">
                <g id="Group_1285" data-name="Group 1285">
                  <path id="Path_2310" data-name="Path 2310" d="M6002.811,2068.074l1.574-3.139,1.461.857a.6.6,0,0,1,.2.192l.092.143a.586.586,0,0,0,.528.271h0a.576.576,0,0,1,.327.079l10.863,6.358a1.235,1.235,0,0,1,.245.191l2.244,2.276-2.994-.527a1.836,1.836,0,0,1-.473-.149l-11.363-5.293a.59.59,0,0,1-.241-.205l-.015-.023a.586.586,0,0,0-.515-.258l-.1.005a.577.577,0,0,1-.274-.053Z" fill="#fff"/>
                  <path id="Path_2311" data-name="Path 2311" d="M6020.345,2075.537a.285.285,0,0,1-.041,0l-2.994-.526a2.129,2.129,0,0,1-.531-.168l-11.363-5.293a.817.817,0,0,1-.336-.287l-.016-.022a.349.349,0,0,0-.307-.156l-.1.006a.815.815,0,0,1-.386-.075l-1.556-.726a.233.233,0,0,1-.111-.318l1.574-3.138a.239.239,0,0,1,.144-.12.235.235,0,0,1,.185.023l1.461.856a.842.842,0,0,1,.279.268l.091.143a.349.349,0,0,0,.316.164.811.811,0,0,1,.461.11l10.863,6.358a1.46,1.46,0,0,1,.293.229l2.244,2.276a.235.235,0,0,1-.167.4Zm-15.571-6.926a.824.824,0,0,1,.679.363l.015.022a.362.362,0,0,0,.146.124l11.363,5.293a1.636,1.636,0,0,0,.415.131l2.27.4-1.728-1.752a.941.941,0,0,0-.2-.153l-10.862-6.359a.346.346,0,0,0-.195-.047.819.819,0,0,1-.74-.378l-.092-.143a.346.346,0,0,0-.121-.116l-1.244-.73-1.354,2.7,1.338.623a.336.336,0,0,0,.162.032l.1-.006Z"/>
                </g>
                <path id="Path_2312" data-name="Path 2312" d="M6017.547,2074.123a.244.244,0,0,1-.094-.02.234.234,0,0,1-.121-.309l.414-.949a.235.235,0,1,1,.431.188l-.414.949A.236.236,0,0,1,6017.547,2074.123Z"/>
                <g id="Group_1286" data-name="Group 1286">
                  <path id="Path_2313" data-name="Path 2313" d="M6001.86,2063.549l2.364,1.286a.256.256,0,0,1,.1.342l-1.388,2.685a.248.248,0,0,1-.341.106l-2.36-1.283a.994.994,0,0,1-.417-1.318l.741-1.434A.942.942,0,0,1,6001.86,2063.549Z" fill="#99b9ff"/>
                  <path id="Path_2314" data-name="Path 2314" d="M6002.717,2068.234a.478.478,0,0,1-.231-.06l-2.359-1.283a1.23,1.23,0,0,1-.514-1.631l.741-1.434a1.162,1.162,0,0,1,.694-.58,1.2,1.2,0,0,1,.924.1h0l2.365,1.287a.493.493,0,0,1,.2.656l-1.388,2.685a.487.487,0,0,1-.29.242A.452.452,0,0,1,6002.717,2068.234Zm-1.322-4.57a.717.717,0,0,0-.21.031.688.688,0,0,0-.413.346l-.741,1.434a.756.756,0,0,0,.321,1l2.359,1.284.229.1-.208-.108,1.387-2.685a.02.02,0,0,0-.007-.027l-2.365-1.287h0A.729.729,0,0,0,6001.4,2063.664Z"/>
                </g>
                <path id="Path_2315" data-name="Path 2315" d="M6005.313,2068.617a.231.231,0,0,1-.11-.028.235.235,0,0,1-.1-.317l.783-1.477a.235.235,0,0,1,.415.221l-.783,1.476A.236.236,0,0,1,6005.313,2068.617Z"/>
                <path id="Path_2316" data-name="Path 2316" d="M6010.409,2069.744a.241.241,0,0,1-.115-.03l-3.239-1.834a.235.235,0,0,1,.232-.409l3.238,1.834a.235.235,0,0,1-.116.439Z"/>
                <path id="Path_2317" data-name="Path 2317" d="M6016.82,2073.518a.229.229,0,0,1-.115-.03l-1.265-.71a.235.235,0,0,1,.23-.41l1.265.711a.235.235,0,0,1-.115.439Z"/>
                <path id="Path_2318" data-name="Path 2318" d="M6002.483,2067.115a.232.232,0,0,1-.114-.03l-1.806-1a.235.235,0,0,1,.227-.411l1.807,1a.235.235,0,0,1-.114.441Z" fill="#fff"/>
              </g>
              <g id="Group_1288" data-name="Group 1288">
                <path id="Path_2319" data-name="Path 2319" d="M6001.716,2070.528a6.993,6.993,0,0,0,4.7-1.075c1.612-1.256,4.875,2.34,5.156,2.8.4.646-.477,1.661-1.487,1.086a2.551,2.551,0,0,1-2.446,1.871c-2.18.269-3.109-1.171-3.694-1.386a10.654,10.654,0,0,0-2.26-.227Z" fill="#fff"/>
                <path id="Path_2320" data-name="Path 2320" d="M6007.121,2075.475a4.236,4.236,0,0,1-2.774-1.1,2.324,2.324,0,0,0-.479-.33,9.908,9.908,0,0,0-2.18-.212.235.235,0,0,1-.234-.237l.027-3.066a.237.237,0,0,1,.082-.176.229.229,0,0,1,.186-.054,6.808,6.808,0,0,0,4.527-1.028,1.607,1.607,0,0,1,1.326-.279c1.767.319,3.948,2.77,4.174,3.138a1.01,1.01,0,0,1-.192,1.235,1.264,1.264,0,0,1-1.345.3,2.876,2.876,0,0,1-2.568,1.778A4.395,4.395,0,0,1,6007.121,2075.475Zm-5.2-2.112a9.038,9.038,0,0,1,2.1.237,2.44,2.44,0,0,1,.609.4,3.688,3.688,0,0,0,2.975.971,2.336,2.336,0,0,0,2.244-1.677.234.234,0,0,1,.13-.173.237.237,0,0,1,.218.008.821.821,0,0,0,1.04-.1.553.553,0,0,0,.13-.662c-.185-.3-2.251-2.631-3.857-2.922a1.142,1.142,0,0,0-.954.188,6.951,6.951,0,0,1-4.616,1.15Z"/>
              </g>
            </g>
            <path id="Path_2321" data-name="Path 2321" d="M5982.628,2047.735s-3.848,1.633-5.879,8.283c-1.122,3.67-.916,8.9,4.614,15.861,1.106,1.391,2.659,2.775,4.413,2.975l16.807.165-.074-5.429s-13.034-1.708-14.993-2.451c-1.736-.659-4.249-9.231-4.51-13.436Z" fill="#5479f7"/>
            <path id="Path_2322" data-name="Path 2322" d="M6002.583,2075.254h0l-16.807-.165h-.024c-1.942-.222-3.558-1.788-4.571-3.063-.6-.75-1.172-1.511-1.71-2.26a.235.235,0,1,1,.381-.274c.534.743,1.1,1.5,1.7,2.242.956,1.2,2.467,2.678,4.244,2.887l16.554.162-.068-4.985c-1.717-.227-12.994-1.737-14.845-2.439-1.588-.6-3.45-6.581-4.209-10.432a.235.235,0,1,1,.461-.091c.866,4.4,2.687,9.618,3.915,10.084,1.911.725,14.81,2.422,14.94,2.439a.236.236,0,0,1,.205.229l.074,5.429a.233.233,0,0,1-.235.238Z"/>
          </g>
          <g id="Group_1291" data-name="Group 1291">
            <path id="Path_2323" data-name="Path 2323" d="M6016.871,2026.156a3.366,3.366,0,0,1-.053,2.826,1.536,1.536,0,0,1-2.422.118,5.223,5.223,0,0,1-.787-1.935,2.932,2.932,0,0,0-.535-1.025.737.737,0,0,0-.578-.286l-2-.009a1.373,1.373,0,0,1,.6-1.1c.509-.275,1.827-.048,1.93-.2C6014.175,2022.792,6016.084,2024.087,6016.871,2026.156Z" fill="#fff"/>
            <path id="Path_2324" data-name="Path 2324" d="M6015.579,2029.869a1.818,1.818,0,0,1-1.357-.612,4.8,4.8,0,0,1-.791-1.865l-.047-.161a2.741,2.741,0,0,0-.5-.947.5.5,0,0,0-.394-.2l-2.237-.011.005-.238a1.6,1.6,0,0,1,.72-1.3,3.267,3.267,0,0,1,1.4-.174,4.643,4.643,0,0,0,.478-.008,1.714,1.714,0,0,1,1.647-.859,3.711,3.711,0,0,1,2.579,2.576,3.641,3.641,0,0,1-.078,3.041,1.714,1.714,0,0,1-1.31.751C6015.661,2029.868,6015.62,2029.869,6015.579,2029.869Zm-4.813-4.258,1.731.009a.959.959,0,0,1,.763.377,3.175,3.175,0,0,1,.575,1.1l.047.162a4.6,4.6,0,0,0,.689,1.682,1.353,1.353,0,0,0,1.1.454,1.254,1.254,0,0,0,.954-.547,3.259,3.259,0,0,0,.027-2.61h0c-.475-1.25-1.376-2.186-2.192-2.276a1.3,1.3,0,0,0-1.239.7c-.115.174-.357.17-.84.165a3.114,3.114,0,0,0-1.174.117A.979.979,0,0,0,6010.766,2025.611Z"/>
          </g>
        </g>
        <g id="Group_1301" data-name="Group 1301">
          <g id="Group_1296" data-name="Group 1296">
            <g id="Group_1293" data-name="Group 1293">
              <path id="Path_2325" data-name="Path 2325" d="M5984.156,2126.647l-1.225,5.933,3.207.916,1.773-5.777Z" fill="#fff"/>
              <path id="Path_2326" data-name="Path 2326" d="M5986.138,2133.731a.231.231,0,0,1-.064-.009l-3.207-.916a.234.234,0,0,1-.166-.274l1.225-5.933a.236.236,0,0,1,.3-.178l3.755,1.073a.234.234,0,0,1,.142.113.237.237,0,0,1,.018.181l-1.773,5.777A.235.235,0,0,1,5986.138,2133.731Zm-2.933-1.317,2.776.793,1.636-5.327-3.282-.938Z"/>
            </g>
            <g id="Group_1295" data-name="Group 1295">
              <g id="Group_1294" data-name="Group 1294">
                <path id="Path_2327" data-name="Path 2327" d="M5981.87,2137.58c.037.571.728,1.029,1.288,1.114,1.945.3,6.517.172,7.758.258,1.612.113,4.638-.008,4.756-1.046.143-1.265-1.209-3.111-4.442-4.122-1.672-.523-3.441-3.113-4.224-3.159s-2.168,2-2.168,2l-2.228-.765A17.452,17.452,0,0,0,5981.87,2137.58Z" fill="#5479f7"/>
                <path id="Path_2328" data-name="Path 2328" d="M5991.974,2139.219c-.586,0-1.017-.028-1.074-.032-.422-.03-1.255-.034-2.22-.04a48.812,48.812,0,0,1-5.558-.22,1.7,1.7,0,0,1-1.486-1.332h0a17.481,17.481,0,0,1,.75-5.809.235.235,0,0,1,.3-.149l2.06.708c.39-.554,1.487-2,2.274-1.955.436.026.962.534,1.69,1.238a8.011,8.011,0,0,0,2.59,1.932c3.384,1.058,4.759,3.008,4.6,4.373C5995.779,2139.049,5993.41,2139.219,5991.974,2139.219Zm-9.21-7.058a17.209,17.209,0,0,0-.659,5.4c.027.423.6.822,1.088.9a48.384,48.384,0,0,0,5.49.215c.973.006,1.813.011,2.25.041,2.113.147,4.428-.154,4.5-.838.138-1.216-1.288-2.937-4.278-3.872a8.3,8.3,0,0,1-2.776-2.042c-.529-.512-1.129-1.092-1.392-1.107-.449-.027-1.415,1.093-1.959,1.9a.236.236,0,0,1-.271.091Z"/>
              </g>
              <path id="Path_2329" data-name="Path 2329" d="M5992.77,2137.672c-.428,0-.9-.024-1.391-.05-.732-.039-1.489-.079-2.231-.044a33.971,33.971,0,0,1-4.07-.06c-1.739-.134-1.805-.239-1.853-.315a.238.238,0,0,1-.009-.238.235.235,0,0,1,.312-.1,28.257,28.257,0,0,0,5.6.242c.765-.035,1.533.006,2.276.045a7.415,7.415,0,0,0,2.761-.143.235.235,0,0,1,.185.432A4.108,4.108,0,0,1,5992.77,2137.672Z"/>
              <path id="Path_2330" data-name="Path 2330" d="M5988.62,2135.637a.235.235,0,0,1-.169-.4l1.174-1.212a.235.235,0,1,1,.337.327l-1.173,1.212A.238.238,0,0,1,5988.62,2135.637Z"/>
            </g>
          </g>
          <g id="Group_1300" data-name="Group 1300">
            <g id="Group_1297" data-name="Group 1297">
              <path id="Path_2331" data-name="Path 2331" d="M5966.761,2126.364l-.163,4.138,2.863.7.51-4.807Z" fill="#fff"/>
              <path id="Path_2332" data-name="Path 2332" d="M5969.461,2131.435a.259.259,0,0,1-.056-.006l-2.862-.7a.237.237,0,0,1-.18-.238l.164-4.138a.235.235,0,0,1,.234-.226h0l3.209.03a.235.235,0,0,1,.232.259l-.51,4.807a.233.233,0,0,1-.234.21Zm-2.621-1.115,2.416.589.454-4.283-2.723-.025Z"/>
            </g>
            <g id="Group_1299" data-name="Group 1299">
              <g id="Group_1298" data-name="Group 1298">
                <path id="Path_2333" data-name="Path 2333" d="M5969.9,2138.725a22.535,22.535,0,0,1-5.237,0c-1-.106-1.382-1.5-1.208-2.218.487-2,1.332-5.225,2.77-6.982l.528,1.073.5-1.047a.437.437,0,0,1,.327-.224l1.075.011a.437.437,0,0,1,.483.347l.172.828.918-1.068.716,7.888A1.24,1.24,0,0,1,5969.9,2138.725Z" fill="#5479f7"/>
                <path id="Path_2334" data-name="Path 2334" d="M5967.449,2139.11a26.831,26.831,0,0,1-2.813-.154,1.417,1.417,0,0,1-1.02-.639,2.515,2.515,0,0,1-.391-1.868c.585-2.407,1.434-5.386,2.816-7.075a.235.235,0,0,1,.393.045l.314.638.29-.609a.677.677,0,0,1,.509-.355.179.179,0,0,1,.032,0l1.061.01a.678.678,0,0,1,.725.535l.075.36.606-.706a.236.236,0,0,1,.25-.071.234.234,0,0,1,.162.2l.717,7.889a1.475,1.475,0,0,1-1.244,1.647h0A17.876,17.876,0,0,1,5967.449,2139.11Zm2.449-.385h0Zm-3.719-8.759c-1.353,1.888-2.148,5.156-2.5,6.594a2.07,2.07,0,0,0,.319,1.486.953.953,0,0,0,.685.443,22.675,22.675,0,0,0,5.18,0h0a1.007,1.007,0,0,0,.843-1.131l-.667-7.344-.556.647a.235.235,0,0,1-.408-.106l-.172-.827a.2.2,0,0,0-.223-.162l-.032,0-1.056-.01a.2.2,0,0,0-.138.1l-.493,1.035a.236.236,0,0,1-.21.134h0a.237.237,0,0,1-.211-.131Z"/>
              </g>
              <path id="Path_2335" data-name="Path 2335" d="M5966.708,2137.815a10.5,10.5,0,0,1-2.337-.25.235.235,0,1,1,.106-.458,12.538,12.538,0,0,0,5.51-.185.235.235,0,1,1,.13.451A13.418,13.418,0,0,1,5966.708,2137.815Z"/>
              <path id="Path_2336" data-name="Path 2336" d="M5966.051,2134.752a.235.235,0,0,1-.007-.47l2.58-.086a.235.235,0,1,1,.016.47l-2.581.086Z"/>
            </g>
          </g>
          <path id="Path_2337" data-name="Path 2337" d="M5996.992,2076.8c1.086,6.413,3.06,22.173-1.2,33.962a121.763,121.763,0,0,1-7.293,17.033,1.379,1.379,0,0,1-1.386.708l-2.615-.34a1.4,1.4,0,0,1-1.191-1.609c.954-6.037,4.743-35.419,3.734-38.135l-16.238,38.515a1.1,1.1,0,0,1-1.016.666l-2.743-.031a1.1,1.1,0,0,1-1.082-1.138c.81-31.173,9.855-36.189,12.5-51.093.006-.036.868,1.012.9,1.031,2.654,1.551,3.982,1.431,8.053,1.655,4.4.243,8.494-1.434,9.458-1.389C5996.95,2076.638,5996.98,2076.724,5996.992,2076.8Z"/>
        </g>
        <g id="Group_1303" data-name="Group 1303">
          <g id="Group_1302" data-name="Group 1302">
            <path id="Path_2338" data-name="Path 2338" d="M5992.141,2046.937l.751-3.883a.612.612,0,0,1,.529-.488l1.509-.174a.724.724,0,0,0,.63-.61l.342-2.166.005-.008.717-.391a.3.3,0,0,0,.124-.4l-.755-1.492c-.147-.29-.349-1.929-.671-1.913,0,0-5.431-1.908-7.028.367a2.169,2.169,0,0,0-.184,2.078l.366.867a4.074,4.074,0,0,1-.261,3.808l-2.04,3.211h0a10.892,10.892,0,0,0,4.771,1.179Z" fill="#fff"/>
            <path id="Path_2339" data-name="Path 2339" d="M5992.141,2047.172h0l-1.2-.018a11.215,11.215,0,0,1-4.875-1.2.233.233,0,0,1-.12-.147.24.24,0,0,1,.028-.189l2.041-3.211a3.838,3.838,0,0,0,.242-3.59l-.365-.868a2.409,2.409,0,0,1,.207-2.3c1.631-2.322,6.753-.64,7.265-.465.351.035.492.588.687,1.464a4.663,4.663,0,0,0,.149.576l.755,1.492a.534.534,0,0,1-.22.715l-.62.339-.325,2.057a.96.96,0,0,1-.835.806l-1.51.174a.377.377,0,0,0-.325.3l-.75,3.881A.236.236,0,0,1,5992.141,2047.172Zm-5.628-1.527a10.751,10.751,0,0,0,4.437,1.04l1,.015.713-3.691a.847.847,0,0,1,.733-.677l1.509-.173a.491.491,0,0,0,.425-.413l.342-2.166a.251.251,0,0,1,.126-.178l.716-.392a.067.067,0,0,0,.026-.09l-.755-1.491a3.6,3.6,0,0,1-.188-.687,4.964,4.964,0,0,0-.327-1.1l-.024-.007c-.053-.018-5.281-1.823-6.758.28a1.935,1.935,0,0,0-.159,1.851l.365.868a4.314,4.314,0,0,1-.276,4.022Z"/>
          </g>
          <path id="Path_2340" data-name="Path 2340" d="M5991.087,2037.825c-.279-.7-.715-.961-.633-1.358a.839.839,0,0,1,.372-.476c.58-.425,1.345-.165,2.879.126,1.9.363,2.122.42,2.481.276a2.78,2.78,0,0,0,1.473-2.431,2.652,2.652,0,0,0-1.135-2.369,2.756,2.756,0,0,0-2.887.095,1.33,1.33,0,0,0-.608-.837c-.861-.443-2.144.552-2.593.9a5.64,5.64,0,0,0-1.686,2.176,1.941,1.941,0,0,0-1.5-.2,2.283,2.283,0,0,0-1.306,1.723c-.258,1.4.886,2.629,1.75,3.555a5.317,5.317,0,0,0,1.005.893.529.529,0,0,0,.553.022l.009-.005a.465.465,0,0,0,.168-.647l-.044-.071a2.146,2.146,0,0,1-.312-.883.747.747,0,0,1,.152-.649.866.866,0,0,1,.759-.053,1.151,1.151,0,0,1,.646.574C5990.765,2038.426,5991.21,2038.135,5991.087,2037.825Z"/>
        </g>
      </g>
      <g id="Group_1320" data-name="Group 1320">
        <g id="Group_1312" data-name="Group 1312">
          <g id="Group_1308" data-name="Group 1308">
            <g id="Group_1305" data-name="Group 1305">
              <path id="Path_2341" data-name="Path 2341" d="M6075.513,2132.07s3.473,1.209,5.5.672c0,0,2.522,2.193,2.489,3.353l-8.822-.171Z" fill="#fff"/>
              <path id="Path_2342" data-name="Path 2342" d="M6083.73,2136.334l-9.34-.181.949-4.392.251.087c.034.012,3.429,1.179,5.363.667l.12-.032.094.082c.267.232,2.6,2.3,2.569,3.537Zm-8.761-.639,8.268.16a8.746,8.746,0,0,0-2.287-2.856c-1.777.4-4.434-.361-5.263-.624Z"/>
            </g>
            <g id="Group_1307" data-name="Group 1307">
              <g id="Group_1306" data-name="Group 1306">
                <path id="Path_2343" data-name="Path 2343" d="M6079.295,2132.343s2.176-2.6,3.14-2.646c.812-.038,7.28,5.922,9.338,7.91a.654.654,0,0,1-.279,1.1c-1.21.308-3.982.3-10.2-1.849a.92.92,0,0,1-.609-.742l-.267-1.908,1.306-.164Z" fill="#fff"/>
                <path id="Path_2344" data-name="Path 2344" d="M6090.117,2139.089c-1.658,0-4.4-.449-8.9-2.006a1.149,1.149,0,0,1-.765-.932l-.268-1.907a.234.234,0,0,1,.2-.266l.7-.088-1.929-1.355a.229.229,0,0,1-.1-.161.232.232,0,0,1,.053-.182c.229-.274,2.272-2.681,3.309-2.73h.011c1.149,0,9.419,7.9,9.5,7.976a.9.9,0,0,1,.242.875.862.862,0,0,1-.626.624A5.839,5.839,0,0,1,6090.117,2139.089Zm-9.436-4.675.235,1.672a.682.682,0,0,0,.453.553c6.388,2.208,9.049,2.1,10.067,1.843a.4.4,0,0,0,.288-.29.419.419,0,0,0-.114-.416c-2.829-2.732-8.46-7.786-9.17-7.844-.581.027-1.956,1.393-2.8,2.367l2.216,1.555a.235.235,0,0,1-.106.426Z"/>
              </g>
              <path id="Path_2345" data-name="Path 2345" d="M6085.668,2138.418a.211.211,0,0,1-.07-.011.235.235,0,0,1-.154-.294l.554-1.759a.235.235,0,1,1,.449.141l-.555,1.759A.235.235,0,0,1,6085.668,2138.418Z"/>
              <path id="Path_2346" data-name="Path 2346" d="M6084.58,2137.946a.216.216,0,0,1-.07-.011.234.234,0,0,1-.154-.294l.554-1.759a.235.235,0,0,1,.448.141l-.554,1.759A.235.235,0,0,1,6084.58,2137.946Z"/>
              <path id="Path_2347" data-name="Path 2347" d="M6090.425,2137.983a.233.233,0,0,1-.153-.056l-8.265-7.065a.235.235,0,0,1,.306-.357l8.264,7.065a.235.235,0,0,1-.152.413Z"/>
            </g>
          </g>
          <g id="Group_1310" data-name="Group 1310">
            <g id="Group_1309" data-name="Group 1309">
              <path id="Path_2348" data-name="Path 2348" d="M6046.706,2137.437c-.007-.826-.021-2.135-.046-3.815l-2.462.35-2.038-1.872s-5.848,2.14-8.681,4.844a.88.88,0,0,0,.457,1.509,51.4,51.4,0,0,0,11.785.113A1.119,1.119,0,0,0,6046.706,2137.437Z" fill="#fff"/>
              <path id="Path_2349" data-name="Path 2349" d="M6040.336,2139.086a46.638,46.638,0,0,1-6.435-.4,1.091,1.091,0,0,1-.881-.757,1.121,1.121,0,0,1,.3-1.154c2.835-2.707,8.521-4.806,8.762-4.894a.236.236,0,0,1,.24.047l1.956,1.8,2.352-.335a.233.233,0,0,1,.186.054.237.237,0,0,1,.082.175c.024,1.681.039,2.99.046,3.817a1.352,1.352,0,0,1-1.194,1.364A48.437,48.437,0,0,1,6040.336,2139.086Zm1.771-6.715c-.884.337-5.936,2.328-8.465,4.743a.645.645,0,0,0-.174.673.618.618,0,0,0,.5.434,50.809,50.809,0,0,0,11.722.111.882.882,0,0,0,.777-.892h0c-.007-.782-.02-2-.042-3.547l-2.2.312a.229.229,0,0,1-.192-.059Z"/>
            </g>
            <path id="Path_2350" data-name="Path 2350" d="M6039.777,2137.854a44.862,44.862,0,0,1-5.37-.295.235.235,0,0,1,.058-.467,54.466,54.466,0,0,0,9.914.115.235.235,0,0,1,.042.468C6044.389,2137.678,6042.4,2137.854,6039.777,2137.854Z"/>
            <path id="Path_2351" data-name="Path 2351" d="M6038.619,2136.326a.235.235,0,0,1-.23-.187l-.465-2.223a.235.235,0,1,1,.459-.1l.466,2.224a.235.235,0,0,1-.182.278A.27.27,0,0,1,6038.619,2136.326Z"/>
            <path id="Path_2352" data-name="Path 2352" d="M6039.707,2135.854a.235.235,0,0,1-.229-.187l-.466-2.223a.234.234,0,0,1,.182-.278.236.236,0,0,1,.278.181l.465,2.224a.234.234,0,0,1-.181.278A.2.2,0,0,1,6039.707,2135.854Z"/>
          </g>
          <g id="Group_1311" data-name="Group 1311">
            <path id="Path_2353" data-name="Path 2353" d="M6064.217,2110.815c-.119-.1-11.206-8.115-14.232-7.255-5.174,1.472-4.166,17.031-4.059,21.146.1,4.007,18.912-8.021,19.492-9.076S6066.342,2112.617,6064.217,2110.815Z"/>
            <path id="Path_2354" data-name="Path 2354" d="M6046.1,2123.67l-.051.045c-3.243,2.93-4.578,5.844-4.346,9.594.226,3.666,5.381,6.284,22.067,4.376,3.508-.508,10.544-.913,13.588-1.01a1.162,1.162,0,0,0,1.119-1.185l-.043-2.9a1.172,1.172,0,0,0-.57-.991,24.842,24.842,0,0,0-14.419-3.6c-.26.01-.217-.264.037-.321,4.295-.955,10.927-1.4,12.782-2.974,3.591-3.046,2.924-8.453,2.147-11.751-2.269-9.628-16.436.423-16.534.447h0c-.028.016-1.917,1.125-4.411,2.649Z"/>
            <path id="Path_2355" data-name="Path 2355" d="M6053.864,2130.045a.235.235,0,0,1-.123-.435c.128-.079,3.237-1.931,10.821-2.11h.006a.235.235,0,0,1,.005.47c-7.438.175-10.557,2.022-10.587,2.041A.237.237,0,0,1,6053.864,2130.045Z" fill="#fff"/>
            <path id="Path_2356" data-name="Path 2356" d="M6047.025,2123.143a.235.235,0,0,1-.144-.421c.091-.07,9.137-7.029,15.467-8.609a.235.235,0,0,1,.114.456c-6.235,1.556-15.2,8.455-15.293,8.525A.236.236,0,0,1,6047.025,2123.143Z" fill="#caddff"/>
          </g>
        </g>
        <g id="Group_1316" data-name="Group 1316">
          <g id="Group_1313" data-name="Group 1313">
            <path id="Path_2357" data-name="Path 2357" d="M6080.446,2092.208c1.336,1.181,6.124,7.373,5.342,17.8a.737.737,0,0,0,.11.452c.425.678,1.725,2.911,1.308,4.316-.482,1.624-2.132,5.158-2.613.131a.117.117,0,0,0-.222-.04c-.2.42-.521,1-.734.919-.5-.185-.323-2.833-.189-4.4s.342-2.18-1.2-5.959c-.95-2.328-4.093-6.178-5.282-7.378C6076.967,2098.056,6080.3,2092.08,6080.446,2092.208Z" fill="#fff"/>
            <path id="Path_2358" data-name="Path 2358" d="M6085.53,2117.742l-.056,0c-.548-.053-.883-.8-1.073-2.412-.318.575-.578.781-.845.682-.373-.138-.672-.795-.342-4.636.01-.115.021-.225.03-.332.125-1.335.194-2.07-1.213-5.519a31.688,31.688,0,0,0-5.231-7.3l-.124-.126.086-.154c3.3-5.909,3.5-5.944,3.637-5.967l.111-.019.092.076c1.647,1.456,6.178,7.887,5.42,18a.5.5,0,0,0,.075.309c.545.869,1.767,3.047,1.334,4.507C6087.4,2114.966,6086.56,2117.742,6085.53,2117.742Zm-1.055-3.174a.341.341,0,0,1,.062.006.35.35,0,0,1,.29.314c.217,2.273.645,2.379.693,2.384.35.03,1.06-1.211,1.461-2.56.389-1.313-.883-3.488-1.282-4.124a.968.968,0,0,1-.146-.595c.72-9.593-3.377-15.777-5.1-17.453-.49.7-2.131,3.565-3.2,5.478,1.18,1.234,4.249,4.972,5.209,7.327,1.45,3.555,1.373,4.377,1.246,5.74-.01.1-.02.214-.03.328-.273,3.177-.081,3.935.015,4.115a2.934,2.934,0,0,0,.462-.759A.349.349,0,0,1,6084.475,2114.568Z"/>
          </g>
          <g id="Group_1314" data-name="Group 1314">
            <path id="Path_2359" data-name="Path 2359" d="M6050.176,2089.926s-4.894,1.624-6.906,1.419c-2.832-.288-5.964-9.019-6.182-9.62s-.971-3.814-1.705-4.9a16,16,0,0,1-1.462-2.759c-.167-.4-.482-.557-.754-.467a.777.777,0,0,0-.416,1.059c.278.694.538,1.4.77,1.991.073.187.181.357.024.242-.368-.268-.831-.515-1.133-.343-.568.324-.874,2.494.044,4.018s1.925,1.167,2.231,1.906,2.844,10.337,3.887,12c1.5,2.387,11.978,2.645,13.551,2.6S6050.176,2089.926,6050.176,2089.926Z" fill="#fff"/>
            <path id="Path_2360" data-name="Path 2360" d="M6052.057,2097.307c-1.023,0-12.038-.092-13.682-2.709-.759-1.209-2.217-6.264-3.181-9.609-.358-1.241-.641-2.222-.724-2.423-.09-.218-.263-.3-.587-.452a3.231,3.231,0,0,1-1.629-1.422,4.792,4.792,0,0,1-.489-3.458,1.44,1.44,0,0,1,.531-.886.936.936,0,0,1,.874.047l-.138-.36c-.16-.419-.325-.851-.5-1.286a1.041,1.041,0,0,1,0-.851,1,1,0,0,1,.558-.518.868.868,0,0,1,1.045.6,15.724,15.724,0,0,0,1.44,2.718,18.286,18.286,0,0,1,1.474,4.074c.114.407.2.728.256.873l.011.029c1.535,4.23,4.021,9.239,5.974,9.438s6.76-1.392,6.809-1.408l.194-.065.09.183c.5,1,2.937,6.048,2.249,7.2a.579.579,0,0,1-.5.288Zm-19.412-20.577a.236.236,0,0,0-.117.026,1.027,1.027,0,0,0-.308.6,4.356,4.356,0,0,0,.437,3.1,2.781,2.781,0,0,0,1.42,1.237,1.363,1.363,0,0,1,.827.7c.093.225.351,1.12.742,2.473.9,3.118,2.4,8.336,3.127,9.489,1.332,2.121,10.9,2.561,13.345,2.489a.116.116,0,0,0,.114-.061c.419-.7-1.078-4.317-2.177-6.563-.946.3-4.979,1.552-6.809,1.366-2.728-.277-5.564-7.529-6.369-9.744l-.01-.03c-.059-.161-.146-.474-.268-.907a18.239,18.239,0,0,0-1.41-3.937,16.216,16.216,0,0,1-1.485-2.8c-.107-.256-.293-.39-.463-.334a.537.537,0,0,0-.281.27.588.588,0,0,0,.009.479c.175.437.341.872.5,1.292.093.244.183.48.269.7.016.041.034.081.049.116.057.129.135.3-.02.43-.07.057-.19.1-.363-.028A1.542,1.542,0,0,0,6032.645,2076.73Z"/>
          </g>
          <g id="Group_1315" data-name="Group 1315">
            <path id="Path_2361" data-name="Path 2361" d="M6077.352,2099.568c-.222-.166-.808-.661-.974-.757a.39.39,0,0,0-.582.338c-.025,1.961,0,7.615.985,9.517.414.8.807,1.421,1.109,2.159.525,1.281.581,1.6.447,1.941s-1.232.658-1.68.832c-4.1,1.6-12.22,3.292-13.292-1.286a25.177,25.177,0,0,0-2.926-7.825c-.5-.891-1.51-.616-2.957-2-.84-.8-.848-1.569-1.184-2.763-.236-.842-.432-.99-4.2-1.8-.085-.018-3.817-8.263-3.817-8.263s10.074-4.158,14.962-4.787c10.453-1.345,15.164,3.357,18.344,8.115A47.888,47.888,0,0,1,6077.352,2099.568Z" fill="#5479f7"/>
            <path id="Path_2362" data-name="Path 2362" d="M6074.146,2107.234a.236.236,0,0,1-.2-.114,18.449,18.449,0,0,1-2.719-7.7,22.361,22.361,0,0,0-3.609-9.655.234.234,0,1,1,.378-.277,22.865,22.865,0,0,1,3.7,9.88,17.993,17.993,0,0,0,2.655,7.5.235.235,0,0,1-.2.356Z" fill="#fff"/>
          </g>
        </g>
        <g id="Group_1319" data-name="Group 1319">
          <path id="Path_2363" data-name="Path 2363" d="M6061.33,2074.79s-1.885-.549-.551-3.766c1.343-3.239,4.929-1.851,6.332-1.882s4.356-2.035,5.39-2.49,4.473-2.626,8.657,1.853c0,0,.625,1.135,4.368,1.333,3.256.172,8.681,2.793,6.188,6.824a5.345,5.345,0,0,1-3.095,2.339c-.229.065-.478.124-.746.172a2.321,2.321,0,0,0-1.74,1.462c-.978,2.527-3.99,7.256-11.77,1.058a2.269,2.269,0,0,0-2.046-.416c-.865.247-1.947,1.506-5.795.4-2.472-.709-2.879-3.574-3.367-4.917A3.176,3.176,0,0,0,6061.33,2074.79Z"/>
          <g id="Group_1318" data-name="Group 1318">
            <g id="Group_1317" data-name="Group 1317">
              <path id="Path_2364" data-name="Path 2364" d="M6061.876,2074.97s-.2.588-.29.846a4.513,4.513,0,0,1-1.018,1.871.212.212,0,0,0,0,.279l.522.623a.2.2,0,0,1,.045.155c-.046.344-.211,1.61-.2,1.851a.946.946,0,0,0,.292.627,4.9,4.9,0,0,0,1.519.212s.327.078.728,1.938c.281,1.309-1.672,2.669-1.672,2.669s4.388,1.77,8.081.231a.336.336,0,0,0,.043-.572,9.417,9.417,0,0,1-3.148-3.9.422.422,0,0,0-.233-.249c-.447-.191-1.667-.537-1.449-2.595a.307.307,0,0,1,.056-.147c.258-.359,1.441-2.129-.59-1.881a1.59,1.59,0,0,1-1.864-1.268.593.593,0,0,0-.265-.354Z" fill="#fff"/>
              <path id="Path_2365" data-name="Path 2365" d="M6066.455,2087.141a13.94,13.94,0,0,1-4.747-.883.235.235,0,0,1-.046-.41c.018-.013,1.821-1.287,1.576-2.427a4.765,4.765,0,0,0-.583-1.753,3.9,3.9,0,0,1-1.574-.257,1.174,1.174,0,0,1-.387-.808c-.008-.239.122-1.27.2-1.875l-.512-.611a.445.445,0,0,1,.012-.589,4.085,4.085,0,0,0,.926-1.66c.017-.053.03-.1.042-.131.092-.257.289-.842.29-.842a.235.235,0,0,1,.346-.125l.551.342a.821.821,0,0,1,.368.495,1.358,1.358,0,0,0,1.609,1.093c.681-.084,1.127.044,1.325.378.327.552-.184,1.411-.517,1.874a.075.075,0,0,0-.013.033c-.185,1.751.722,2.117,1.21,2.314.036.015.069.028.1.041a.663.663,0,0,1,.362.385,9.262,9.262,0,0,0,3.068,3.787.591.591,0,0,1,.229.545.531.531,0,0,1-.323.431A9.113,9.113,0,0,1,6066.455,2087.141Zm-4.176-1.178c1.146.378,4.578,1.313,7.508.092a.061.061,0,0,0,.036-.056.123.123,0,0,0-.044-.112,9.729,9.729,0,0,1-3.228-4,.186.186,0,0,0-.1-.113l-.09-.037c-.516-.208-1.723-.7-1.5-2.8a.543.543,0,0,1,.1-.259c.42-.583.623-1.142.494-1.36-.091-.154-.4-.208-.864-.151a1.84,1.84,0,0,1-2.121-1.442.355.355,0,0,0-.16-.213l-.3-.186c-.065.189-.147.428-.2.569-.01.03-.022.068-.036.114a4.546,4.546,0,0,1-1.015,1.822l.51.608a.433.433,0,0,1,.1.337c-.126.956-.2,1.668-.2,1.813a.75.75,0,0,0,.2.446,4.477,4.477,0,0,0,1.381.165.278.278,0,0,1,.052.007c.389.093.705,1.2.9,2.117C6063.931,2084.411,6062.859,2085.477,6062.279,2085.963Zm-1.373-7.223h0Z"/>
            </g>
            <path id="Path_2366" data-name="Path 2366" d="M6064.671,2079.222a.915.915,0,0,1-.138-.011.808.808,0,0,1-.637-.436.235.235,0,0,1,.442-.155.528.528,0,0,0,.353.132.535.535,0,0,0,.412-.3.235.235,0,0,1,.4.251A.963.963,0,0,1,6064.671,2079.222Z"/>
            <path id="Path_2367" data-name="Path 2367" d="M6060.642,2077.785l-.034,0a1.068,1.068,0,0,1-.809-.517,2.922,2.922,0,0,1,.088-2.087.235.235,0,0,1,.286-.138l4.388,1.326a.234.234,0,0,1-.135.449l-4.173-1.26a2.155,2.155,0,0,0-.047,1.475.6.6,0,0,0,.469.287.235.235,0,0,1-.033.467Z"/>
            <path id="Path_2368" data-name="Path 2368" d="M6063.983,2079.663a.336.336,0,1,1,.256.405A.34.34,0,0,1,6063.983,2079.663Z" fill="#5479f7"/>
          </g>
        </g>
      </g>
      <g id="Group_1321" data-name="Group 1321">
        <path id="Path_2369" data-name="Path 2369" d="M6083.254,2024.41l-.324-1.231-1.339.063a5.257,5.257,0,0,0-.431-.768l.709-1.181-.872-.9-1.13.751a5.187,5.187,0,0,0-.742-.44l.046-1.393-1.188-.324-.616,1.236a4.894,4.894,0,0,0-.855.007l-.63-1.231-1.184.337.061,1.393a5.073,5.073,0,0,0-.74.447l-1.136-.737-.863.907.723,1.174a5.351,5.351,0,0,0-.423.772l-1.341-.048-.311,1.234,1.189.641a5.519,5.519,0,0,0,.006.889l-1.184.655.325,1.231,1.339-.064a5.33,5.33,0,0,0,.431.769l-.71,1.18.873.9,1.13-.751a5.165,5.165,0,0,0,.742.439l-.046,1.394,1.188.323.616-1.236a4.894,4.894,0,0,0,.855-.006l.63,1.23,1.184-.337-.061-1.392a4.992,4.992,0,0,0,.739-.447l1.136.737.864-.908-.723-1.174a5.39,5.39,0,0,0,.423-.771l1.341.048.311-1.235-1.189-.64a5.464,5.464,0,0,0-.006-.889Zm-5.452,4.3a3.148,3.148,0,0,1-3.883-2.3,3.3,3.3,0,0,1,2.213-4.036,3.149,3.149,0,0,1,3.883,2.3A3.3,3.3,0,0,1,6077.8,2028.706Z" fill="#fff"/>
        <path id="Path_2370" data-name="Path 2370" d="M6075.95,2032.32a.255.255,0,0,1-.061-.008l-1.188-.324a.235.235,0,0,1-.173-.234l.041-1.243a5.361,5.361,0,0,1-.5-.3l-1,.663a.234.234,0,0,1-.3-.031l-.873-.9a.236.236,0,0,1-.033-.285l.633-1.054a5.93,5.93,0,0,1-.3-.532l-1.183.056a.235.235,0,0,1-.238-.175l-.325-1.23a.236.236,0,0,1,.114-.266l1.052-.582a5.864,5.864,0,0,1-.005-.621l-1.056-.569a.235.235,0,0,1-.117-.264l.311-1.235a.236.236,0,0,1,.237-.177l1.184.043a5.616,5.616,0,0,1,.293-.534l-.645-1.049a.236.236,0,0,1,.03-.285l.863-.907a.235.235,0,0,1,.3-.035l1,.65a5.55,5.55,0,0,1,.5-.3l-.054-1.242a.235.235,0,0,1,.17-.236l1.184-.337a.236.236,0,0,1,.274.119l.558,1.091a5.079,5.079,0,0,1,.578,0l.546-1.1a.234.234,0,0,1,.272-.121l1.188.323a.236.236,0,0,1,.173.235l-.042,1.243a5.427,5.427,0,0,1,.505.3l1-.663a.235.235,0,0,1,.3.032l.873.9a.236.236,0,0,1,.033.285l-.634,1.055a5.564,5.564,0,0,1,.3.531l1.183-.056a.235.235,0,0,1,.238.175l.325,1.231a.236.236,0,0,1-.114.265l-1.052.582a5.5,5.5,0,0,1,0,.621l1.057.57a.235.235,0,0,1,.117.264l-.312,1.234a.237.237,0,0,1-.236.177l-1.184-.042a5.872,5.872,0,0,1-.294.534l.646,1.048a.235.235,0,0,1-.03.285l-.864.908a.235.235,0,0,1-.3.035l-1-.651a5.151,5.151,0,0,1-.5.3l.055,1.242a.235.235,0,0,1-.171.236l-1.184.337a.235.235,0,0,1-.273-.119l-.559-1.091a5.035,5.035,0,0,1-.577.005l-.546,1.1A.236.236,0,0,1,6075.95,2032.32Zm-.946-.736.822.224.531-1.064a.236.236,0,0,1,.229-.129,4.618,4.618,0,0,0,.814-.006.233.233,0,0,1,.231.127l.542,1.059.82-.234-.052-1.207a.236.236,0,0,1,.13-.221,4.8,4.8,0,0,0,.705-.426.234.234,0,0,1,.266-.007l.973.631.6-.635-.628-1.021a.233.233,0,0,1,0-.252,5.223,5.223,0,0,0,.4-.738.24.24,0,0,1,.223-.139l1.15.041.22-.873-1.027-.554a.235.235,0,0,1-.123-.224,5.276,5.276,0,0,0-.006-.851.236.236,0,0,1,.12-.226l1.024-.566-.23-.87-1.149.054a.238.238,0,0,1-.225-.137,5.164,5.164,0,0,0-.411-.734.237.237,0,0,1-.007-.253l.616-1.026-.611-.628-.967.643a.235.235,0,0,1-.267,0,4.846,4.846,0,0,0-.708-.419.237.237,0,0,1-.132-.22l.04-1.207-.823-.224-.53,1.063a.235.235,0,0,1-.229.129,4.726,4.726,0,0,0-.814.006.233.233,0,0,1-.231-.126l-.542-1.059-.821.233.053,1.207a.236.236,0,0,1-.13.221,4.779,4.779,0,0,0-.7.427.235.235,0,0,1-.266.007l-.973-.631-.6.635.628,1.02a.236.236,0,0,1,0,.253,5.127,5.127,0,0,0-.4.738.238.238,0,0,1-.223.139l-1.15-.042-.221.873,1.028.554a.234.234,0,0,1,.123.224,5.231,5.231,0,0,0,.006.852.234.234,0,0,1-.12.225l-1.024.567.229.87,1.15-.054a.234.234,0,0,1,.225.136,5.02,5.02,0,0,0,.411.735.234.234,0,0,1,.007.252l-.616,1.026.611.628.967-.643a.235.235,0,0,1,.266,0,4.9,4.9,0,0,0,.708.42.234.234,0,0,1,.133.219Zm1.959-2.525a3.274,3.274,0,0,1-1.631-.437,3.467,3.467,0,0,1-1.64-2.157,3.542,3.542,0,0,1,2.376-4.322,3.276,3.276,0,0,1,2.534.31,3.474,3.474,0,0,1,1.64,2.157,3.542,3.542,0,0,1-2.376,4.322h0A3.291,3.291,0,0,1,6076.963,2029.059Zm.838-.353h0Zm-.831-6.219a2.847,2.847,0,0,0-.773.108,3.07,3.07,0,0,0-2.051,3.751,3.007,3.007,0,0,0,1.418,1.868,2.8,2.8,0,0,0,2.173.266,3.069,3.069,0,0,0,2.051-3.75,3.011,3.011,0,0,0-1.418-1.869A2.823,2.823,0,0,0,6076.97,2022.487Z"/>
      </g>
      <g id="Group_1324" data-name="Group 1324">
        <g id="Group_1322" data-name="Group 1322">
          <path id="Path_2371" data-name="Path 2371" d="M6068.634,2037.29a.235.235,0,0,1-.167-.07l-.453-.459a.234.234,0,0,1,0-.332.236.236,0,0,1,.333,0l.453.459a.235.235,0,0,1-.167.4Z"/>
          <path id="Path_2372" data-name="Path 2372" d="M6070.807,2039.488a.233.233,0,0,1-.167-.07l-.454-.459a.235.235,0,1,1,.334-.33l.454.459a.235.235,0,0,1-.167.4Z"/>
          <path id="Path_2373" data-name="Path 2373" d="M6068.181,2039.488a.237.237,0,0,1-.166-.068.234.234,0,0,1,0-.332l.453-.459a.235.235,0,1,1,.334.33l-.453.459A.234.234,0,0,1,6068.181,2039.488Z"/>
          <path id="Path_2374" data-name="Path 2374" d="M6070.353,2037.29a.235.235,0,0,1-.167-.4l.454-.459a.235.235,0,1,1,.334.33l-.454.459A.23.23,0,0,1,6070.353,2037.29Z"/>
        </g>
        <g id="Group_1323" data-name="Group 1323">
          <path id="Path_2375" data-name="Path 2375" d="M5968.448,2079.563a.237.237,0,0,1-.167-.07l-.454-.459a.235.235,0,1,1,.334-.33l.454.459a.235.235,0,0,1-.167.4Z"/>
          <path id="Path_2376" data-name="Path 2376" d="M5970.621,2081.761a.237.237,0,0,1-.168-.07l-.453-.459a.235.235,0,1,1,.334-.33l.454.459a.235.235,0,0,1-.167.4Z"/>
          <path id="Path_2377" data-name="Path 2377" d="M5967.994,2081.761a.235.235,0,0,1-.167-.4l.454-.459a.235.235,0,0,1,.334.33l-.454.459A.235.235,0,0,1,5967.994,2081.761Z"/>
          <path id="Path_2378" data-name="Path 2378" d="M5970.167,2079.563a.235.235,0,0,1-.167-.4l.453-.459a.235.235,0,1,1,.335.33l-.454.459A.237.237,0,0,1,5970.167,2079.563Z"/>
        </g>
        <path id="Path_2379" data-name="Path 2379" d="M6078.2,2041.128a1.465,1.465,0,1,1,1.451-1.465A1.459,1.459,0,0,1,6078.2,2041.128Zm0-2.46a1,1,0,1,0,.981.995A.989.989,0,0,0,6078.2,2038.668Z"/>
        <path id="Path_2380" data-name="Path 2380" d="M6060.778,2042.134a.985.985,0,1,1,.977-.985A.982.982,0,0,1,6060.778,2042.134Zm0-1.5a.516.516,0,1,0,.507.516A.513.513,0,0,0,6060.778,2040.633Z"/>
      </g>
      <g id="Group_1326" data-name="Group 1326">
        <g id="Group_1325" data-name="Group 1325">
          <path id="Path_2381" data-name="Path 2381" d="M6079.36,2060.205H6075a1.372,1.372,0,0,0-1.248.809l-1.139,2.507-1.414-2.6a1.371,1.371,0,0,0-1.2-.719h-4a1.382,1.382,0,0,1-1.374-1.39v-8.6a1.382,1.382,0,0,1,1.374-1.39h13.363a1.382,1.382,0,0,1,1.374,1.39v8.6A1.383,1.383,0,0,1,6079.36,2060.205Z" fill="#fff"/>
          <path id="Path_2382" data-name="Path 2382" d="M6072.618,2063.756a.234.234,0,0,1-.206-.123l-1.414-2.6a1.134,1.134,0,0,0-1-.6h-4a1.617,1.617,0,0,1-1.608-1.624v-8.6a1.619,1.619,0,0,1,1.609-1.625h13.363a1.59,1.59,0,0,1,1.139.477,1.624,1.624,0,0,1,.47,1.148v8.6a1.618,1.618,0,0,1-1.608,1.624H6075a1.143,1.143,0,0,0-1.035.672l-1.138,2.506a.235.235,0,0,1-.206.137Zm-6.621-14.7a1.148,1.148,0,0,0-1.139,1.155v8.6a1.149,1.149,0,0,0,1.139,1.155h4a1.608,1.608,0,0,1,1.41.842L6072.6,2063l.944-2.078a1.612,1.612,0,0,1,1.462-.947h4.355a1.148,1.148,0,0,0,1.139-1.154v-8.6a1.161,1.161,0,0,0-.334-.818,1.126,1.126,0,0,0-.805-.337Z"/>
        </g>
        <path id="Path_2383" data-name="Path 2383" d="M6068.153,2052.486a.234.234,0,0,1,0-.469l9.613-.025h0a.235.235,0,0,1,0,.47l-9.613.024Z"/>
        <path id="Path_2384" data-name="Path 2384" d="M6067.926,2054.765a.235.235,0,0,1,0-.47l7.124-.018h0a.234.234,0,1,1,0,.469l-7.124.019Z"/>
        <path id="Path_2385" data-name="Path 2385" d="M6068.193,2057.1a.235.235,0,0,1,0-.47l9.612-.025h0a.235.235,0,0,1,0,.47l-9.613.025Z"/>
      </g>
    </g>
  </g>
</svg>
