<svg xmlns="http://www.w3.org/2000/svg" width="190" height="190" viewBox="0 0 190 190">
  <g id="Group_1245" data-name="Group 1245" transform="translate(-5458.07 -1841.786)">
    <circle id="Ellipse_64" data-name="Ellipse 64" cx="95" cy="95" r="95" transform="translate(5458.07 1841.786)" fill="#ebf3ff"/>
    <g id="Group_1244" data-name="Group 1244">
      <g id="Group_1211" data-name="Group 1211">
        <g id="Group_1175" data-name="Group 1175">
          <path id="Path_2111" data-name="Path 2111" d="M5610.084,1982.663l-1.079.989a3.639,3.639,0,0,1-2.986.942l-114.34-17.195c-1.52-.228-2.256-1.806-2.272-3.36l-.762-78.635c-.01-.927.55-4.628.55-4.628a37.831,37.831,0,0,1,4.441-2.767,4.219,4.219,0,0,1,2.391-.355l113.228,16.712a2.32,2.32,0,0,1,1.991,2.322l.255,82.794A4.326,4.326,0,0,1,5610.084,1982.663Z" fill="#5479f7"/>
          <path id="Path_2112" data-name="Path 2112" d="M5606.619,1984.639l-114.571-16.949a3.576,3.576,0,0,1-3.062-3.578l-.252-81.9a1.615,1.615,0,0,1,1.815-1.6l114.875,16.995a2.325,2.325,0,0,1,1.991,2.327l.258,83.777A.938.938,0,0,1,5606.619,1984.639Z" fill="#99b9ff"/>
          <path id="Path_2113" data-name="Path 2113" d="M5604.072,1981.119l-109.738-15.767a3.357,3.357,0,0,1-2.932-3.33l-.235-76.232a1.533,1.533,0,0,1,1.738-1.486l110.03,15.808a2.185,2.185,0,0,1,1.907,2.166l.24,77.978A.89.89,0,0,1,5604.072,1981.119Z" fill="#caddff"/>
          <path id="Path_2114" data-name="Path 2114" d="M5505.55,1969.931l-.036,0-13.5-2a3.831,3.831,0,0,1-3.27-3.819l-.252-81.9a1.847,1.847,0,0,1,.648-1.4,1.807,1.807,0,0,1,1.447-.434l59.083,8.741a.244.244,0,1,1-.072.482l-59.083-8.741a1.325,1.325,0,0,0-1.056.32,1.363,1.363,0,0,0-.479,1.034l.252,81.9a3.347,3.347,0,0,0,2.854,3.338l13.5,2a.244.244,0,0,1-.035.485Z"/>
          <path id="Path_2115" data-name="Path 2115" d="M5595.255,1983.2a.207.207,0,0,1-.036,0l-56.648-8.38a.244.244,0,0,1,.071-.483l56.649,8.381a.244.244,0,0,1-.036.485Z"/>
          <path id="Path_2116" data-name="Path 2116" d="M5607.513,1932.037a.245.245,0,0,1-.244-.244l-.1-31.857a2.091,2.091,0,0,0-1.783-2.087l-17.308-2.561a.244.244,0,1,1,.072-.482l17.307,2.56a2.578,2.578,0,0,1,2.2,2.568l.1,31.858a.244.244,0,0,1-.243.245Z"/>
        </g>
        <g id="Group_1192" data-name="Group 1192">
          <path id="Path_2117" data-name="Path 2117" d="M5545.983,1945.91,5496.6,1939a2.392,2.392,0,0,1-2.069-2.414v-45.054a2.856,2.856,0,0,1,3.169-2.81l49.387,6.908a2.391,2.391,0,0,1,2.07,2.414V1943.1A2.858,2.858,0,0,1,5545.983,1945.91Z" fill="#fff"/>
          <g id="Group_1191" data-name="Group 1191">
            <g id="Group_1176" data-name="Group 1176">
              <path id="Path_2118" data-name="Path 2118" d="M5499.77,1934.832l-1.4-.229a1.415,1.415,0,0,1-1.109-1.393l.013-7.352a1.007,1.007,0,0,1,1.152-1.072l1.39.219a1.414,1.414,0,0,1,1.114,1.391v7.362A1.008,1.008,0,0,1,5499.77,1934.832Z" fill="#caddff"/>
            </g>
            <g id="Group_1177" data-name="Group 1177">
              <path id="Path_2119" data-name="Path 2119" d="M5504.742,1935.527l-1.405-.229a1.414,1.414,0,0,1-1.108-1.392l.015-11.994a1.007,1.007,0,0,1,1.151-1.073l1.39.22a1.411,1.411,0,0,1,1.113,1.39v12.005A1.006,1.006,0,0,1,5504.742,1935.527Z" fill="#caddff"/>
            </g>
            <g id="Group_1178" data-name="Group 1178">
              <path id="Path_2120" data-name="Path 2120" d="M5509.713,1936.223l-1.4-.229a1.415,1.415,0,0,1-1.108-1.393l.014-9.52a1.007,1.007,0,0,1,1.151-1.073l1.39.22a1.412,1.412,0,0,1,1.114,1.39v9.531A1.008,1.008,0,0,1,5509.713,1936.223Z" fill="#caddff"/>
            </g>
            <g id="Group_1180" data-name="Group 1180">
              <g id="Group_1179" data-name="Group 1179">
                <path id="Path_2121" data-name="Path 2121" d="M5514.685,1936.918l-1.405-.229a1.415,1.415,0,0,1-1.109-1.392l.016-18.729a1.007,1.007,0,0,1,1.151-1.073l1.389.219a1.414,1.414,0,0,1,1.114,1.392v18.739A1.007,1.007,0,0,1,5514.685,1936.918Z" fill="#caddff"/>
              </g>
            </g>
            <g id="Group_1181" data-name="Group 1181">
              <path id="Path_2122" data-name="Path 2122" d="M5519.656,1937.613l-1.4-.229a1.413,1.413,0,0,1-1.108-1.391l.016-23.552a1.007,1.007,0,0,1,1.151-1.074l1.389.22a1.411,1.411,0,0,1,1.113,1.39v23.563A1.006,1.006,0,0,1,5519.656,1937.613Z" fill="#caddff"/>
            </g>
            <g id="Group_1183" data-name="Group 1183">
              <g id="Group_1182" data-name="Group 1182">
                <path id="Path_2123" data-name="Path 2123" d="M5524.628,1938.309l-1.4-.229a1.415,1.415,0,0,1-1.109-1.392l.016-27.138a1.008,1.008,0,0,1,1.151-1.074l1.389.22a1.412,1.412,0,0,1,1.114,1.39v27.149A1.008,1.008,0,0,1,5524.628,1938.309Z" fill="#99b9ff"/>
              </g>
            </g>
            <g id="Group_1184" data-name="Group 1184">
              <path id="Path_2124" data-name="Path 2124" d="M5529.6,1939l-1.405-.229a1.414,1.414,0,0,1-1.108-1.392l.015-19.277a1.008,1.008,0,0,1,1.152-1.074l1.389.22a1.413,1.413,0,0,1,1.113,1.391v19.288A1.006,1.006,0,0,1,5529.6,1939Z" fill="#caddff"/>
            </g>
            <g id="Group_1186" data-name="Group 1186">
              <g id="Group_1185" data-name="Group 1185">
                <path id="Path_2125" data-name="Path 2125" d="M5534.57,1939.7l-1.4-.229a1.415,1.415,0,0,1-1.108-1.392l.016-25.581a1.007,1.007,0,0,1,1.151-1.074l1.389.22a1.412,1.412,0,0,1,1.114,1.391v25.592A1.007,1.007,0,0,1,5534.57,1939.7Z" fill="#caddff"/>
              </g>
            </g>
            <g id="Group_1188" data-name="Group 1188">
              <g id="Group_1187" data-name="Group 1187">
                <path id="Path_2126" data-name="Path 2126" d="M5539.542,1940.4l-1.4-.229a1.415,1.415,0,0,1-1.109-1.391l.017-33.264a1.008,1.008,0,0,1,1.151-1.075l1.389.22a1.413,1.413,0,0,1,1.113,1.391v33.275A1.006,1.006,0,0,1,5539.542,1940.4Z" fill="#caddff"/>
              </g>
            </g>
            <g id="Group_1190" data-name="Group 1190">
              <g id="Group_1189" data-name="Group 1189">
                <path id="Path_2127" data-name="Path 2127" d="M5544.581,1941.1l-1.406-.229a1.414,1.414,0,0,1-1.108-1.391l.016-38.427a1.008,1.008,0,0,1,1.152-1.074l1.389.219a1.414,1.414,0,0,1,1.113,1.391v38.438A1.007,1.007,0,0,1,5544.581,1941.1Z" fill="#99b9ff"/>
              </g>
            </g>
          </g>
        </g>
        <g id="Group_1195" data-name="Group 1195">
          <path id="Path_2128" data-name="Path 2128" d="M5550.111,1971.346l-20.035-3.2a1.451,1.451,0,0,1-1.156-1.41v-19.926a.989.989,0,0,1,1.156-1.039l20.035,3.2a1.452,1.452,0,0,1,1.156,1.409v19.927A.989.989,0,0,1,5550.111,1971.346Z" fill="#fff"/>
          <g id="Group_1193" data-name="Group 1193">
            <path id="Path_2129" data-name="Path 2129" d="M5534.245,1967.113l-2-.32v-14.387l2,.32Z" fill="#99b9ff"/>
            <path id="Path_2130" data-name="Path 2130" d="M5534.245,1967.113l-2-.32v-9.282l2,.32Z" fill="#caddff"/>
            <path id="Path_2131" data-name="Path 2131" d="M5538,1967.714l-2-.32v-12.266l2,.32Z" fill="#99b9ff"/>
            <path id="Path_2132" data-name="Path 2132" d="M5538,1967.714l-2-.32v-7.028l2,.32Z" fill="#caddff"/>
            <path id="Path_2133" data-name="Path 2133" d="M5541.5,1968.34l-2-.32v-11.138l2,.32Z" fill="#99b9ff"/>
            <path id="Path_2134" data-name="Path 2134" d="M5541.5,1968.34l-2-.32v-5.171l2,.32Z" fill="#caddff"/>
            <path id="Path_2135" data-name="Path 2135" d="M5545.1,1969.048l-2-.32v-14.387l2,.32Z" fill="#99b9ff"/>
            <path id="Path_2136" data-name="Path 2136" d="M5545.1,1969.048l-2-.32v-12l2,.32Z" fill="#caddff"/>
            <path id="Path_2137" data-name="Path 2137" d="M5548.732,1969.562l-2-.32v-13.393l2,.32Z" fill="#99b9ff"/>
            <path id="Path_2138" data-name="Path 2138" d="M5548.732,1969.562l-2-.32v-8.818l2,.32Z" fill="#caddff"/>
          </g>
          <path id="Path_2139" data-name="Path 2139" d="M5549.984,1969.99l-.039,0-19.406-3.1a.9.9,0,0,1-.728-.882l.076-17a.242.242,0,0,1,.243-.243h0a.243.243,0,0,1,.242.245l-.075,17a.415.415,0,0,0,.317.4l19.407,3.1a.244.244,0,0,1-.039.485Z" fill="#5479f7"/>
          <g id="Group_1194" data-name="Group 1194">
            <path id="Path_2140" data-name="Path 2140" d="M5538.2,1949.645l-6.018-.962v-1.127l6.018.962Z" fill="#99b9ff"/>
            <path id="Path_2141" data-name="Path 2141" d="M5538.219,1951.373l-6.017-.962v-1.127l6.017.962Z" fill="#99b9ff"/>
          </g>
        </g>
        <g id="Group_1199" data-name="Group 1199">
          <g id="Group_1196" data-name="Group 1196">
            <path id="Path_2142" data-name="Path 2142" d="M5582.14,1932.086l-27.449-4.811a1.379,1.379,0,0,1-1.14-1.358v-43.909a1.378,1.378,0,0,1,1.616-1.357l27.449,4.812a1.378,1.378,0,0,1,1.14,1.357v43.909A1.378,1.378,0,0,1,5582.14,1932.086Z" fill="#fff"/>
            <path id="Path_2143" data-name="Path 2143" d="M5582.379,1932.351a1.578,1.578,0,0,1-.281-.025l-27.449-4.811a1.619,1.619,0,0,1-1.342-1.6v-43.91a1.623,1.623,0,0,1,1.9-1.6l27.449,4.811a1.62,1.62,0,0,1,1.342,1.6v43.909a1.623,1.623,0,0,1-1.621,1.622Zm-.2-.505a1.135,1.135,0,0,0,1.33-1.117V1886.82a1.132,1.132,0,0,0-.938-1.117l-27.449-4.812a1.135,1.135,0,0,0-1.33,1.117v43.91a1.132,1.132,0,0,0,.938,1.116Z"/>
          </g>
          <g id="Group_1198" data-name="Group 1198">
            <g id="Group_1197" data-name="Group 1197">
              <ellipse id="Ellipse_65" data-name="Ellipse 65" cx="11.404" cy="13.104" rx="11.404" ry="13.104" transform="translate(5550.923 1899.422) rotate(-43.47)" fill="#caddff"/>
              <path id="Path_2144" data-name="Path 2144" d="M5568.435,1901.136l7.8,10.248a10.715,10.715,0,0,0,4.049-10.271,14.193,14.193,0,0,0-3.32-7.283Z" fill="#99b9ff"/>
              <path id="Path_2145" data-name="Path 2145" d="M5569.18,1889.06l-.745,12.076,8.533-7.3A14.492,14.492,0,0,0,5569.18,1889.06Z" fill="#5479f7"/>
              <ellipse id="Ellipse_66" data-name="Ellipse 66" cx="3.475" cy="3.993" rx="3.475" ry="3.993" transform="matrix(0.726, -0.688, 0.688, 0.726, 5562.946, 1900.58)" fill="#fff"/>
            </g>
            <path id="Path_2146" data-name="Path 2146" d="M5580.433,1920.56l-23.835-3.286v-2.611l23.835,3.286Z" fill="#caddff"/>
            <path id="Path_2147" data-name="Path 2147" d="M5580.487,1925.416l-23.835-3.286v-2.611l23.835,3.286Z" fill="#caddff"/>
          </g>
        </g>
        <g id="Group_1207" data-name="Group 1207">
          <g id="Group_1206" data-name="Group 1206">
            <g id="Group_1200" data-name="Group 1200">
              <path id="Path_2148" data-name="Path 2148" d="M5580.408,1943.827a38.493,38.493,0,0,0-4.761-.633,34.1,34.1,0,0,0-9.648.624.03.03,0,0,0-.011.052l9.63,9.04Z" fill="#5479f7"/>
              <path id="Path_2149" data-name="Path 2149" d="M5580.443,1954.3l-.035-10.474-4.824,9.13v10.58Z" fill="#99b9ff"/>
              <path id="Path_2150" data-name="Path 2150" d="M5575.6,1952.945l-9.721-9.115v9.918l9.751,8.972Z" fill="#5479f7"/>
              <path id="Path_2151" data-name="Path 2151" d="M5575.618,1953.154a.245.245,0,0,1-.167-.066l-9.63-9.04a.277.277,0,0,1-.078-.275.272.272,0,0,1,.2-.193,29.866,29.866,0,0,1,3.061-.506.244.244,0,0,1,.055.485c-.9.1-1.771.24-2.611.412l9.1,8.543,4.487-8.51a38.131,38.131,0,0,0-4.02-.537.246.246,0,0,1-.224-.263.243.243,0,0,1,.263-.223,38.43,38.43,0,0,1,4.4.607.243.243,0,0,1,.172.135.239.239,0,0,1,0,.218l-4.79,9.083a.243.243,0,0,1-.175.127A.3.3,0,0,1,5575.618,1953.154Z"/>
            </g>
            <g id="Group_1201" data-name="Group 1201">
              <path id="Path_2152" data-name="Path 2152" d="M5560.858,1961.636l14.643-5.494a.074.074,0,0,0,.019-.124l-9.574-9.032c-5.825,1.3-9.746,4.227-9.746,7.9C5556.2,1957.334,5557.954,1959.7,5560.858,1961.636Z" fill="#99b9ff"/>
              <path id="Path_2153" data-name="Path 2153" d="M5560.864,1961.635v7.734l14.68-6.251v-7.031Z" fill="#99b9ff"/>
              <path id="Path_2154" data-name="Path 2154" d="M5560.879,1969.385c-2.814-1.867-4.553-4.142-4.672-6.509l-.007-7.995c0,2.453,1.754,4.821,4.658,6.755Z" fill="#5479f7"/>
              <path id="Path_2155" data-name="Path 2155" d="M5560.858,1961.879a.24.24,0,0,1-.135-.04c-3.074-2.047-4.767-4.518-4.767-6.958a5.719,5.719,0,0,1,1.352-3.625.244.244,0,0,1,.381.305,5.241,5.241,0,0,0-1.245,3.32c0,2.245,1.578,4.544,4.446,6.482l14.266-5.352-9.283-8.759a23.327,23.327,0,0,0-2.632.76.244.244,0,1,1-.164-.459,23.815,23.815,0,0,1,2.815-.8.243.243,0,0,1,.221.06l9.574,9.033a.321.321,0,0,1,.1.3.311.311,0,0,1-.2.231l-14.644,5.494A.243.243,0,0,1,5560.858,1961.879Z"/>
            </g>
            <g id="Group_1203" data-name="Group 1203">
              <path id="Path_2156" data-name="Path 2156" d="M5587.225,1967.111c6.122-1.228,10.3-4.209,10.327-7.978l0,6.619c-.166,3.683-4.31,6.587-10.337,7.791Z" fill="#99b9ff"/>
              <path id="Path_2157" data-name="Path 2157" d="M5578.115,1957.624l9.091,9.43.026,6.523-9.111-9.36Z" fill="#caddff"/>
              <g id="Group_1202" data-name="Group 1202">
                <path id="Path_2158" data-name="Path 2158" d="M5587.225,1967.111c6.144-1.232,10.327-4.23,10.327-8.019,0-4.63-6.246-8.957-14.684-10.631l-4.723,9.171Z" fill="#fff"/>
                <path id="Path_2159" data-name="Path 2159" d="M5587.225,1967.355a.245.245,0,0,1-.176-.076l-9.08-9.478a.242.242,0,0,1-.041-.281l4.723-9.17a.244.244,0,0,1,.264-.128c8.762,1.738,14.881,6.208,14.881,10.87,0,3.792-4.032,6.956-10.523,8.258A.255.255,0,0,1,5587.225,1967.355Zm-8.784-9.766,8.867,9.256c6.173-1.268,10-4.232,10-7.753,0-4.4-5.873-8.639-14.308-10.355Z"/>
              </g>
            </g>
            <g id="Group_1205" data-name="Group 1205">
              <path id="Path_2160" data-name="Path 2160" d="M5560.858,1964.6c3.566,2.374,8.869,4.093,14.789,4.509a34.5,34.5,0,0,0,9.119-.513l-9.083-9.492Z" fill="#caddff"/>
              <path id="Path_2161" data-name="Path 2161" d="M5578.308,1969.446c-.886,0-1.781-.032-2.678-.1-5.736-.4-11.17-2.061-14.907-4.549a.244.244,0,0,1,.05-.432l6.486-2.4a.244.244,0,0,1,.169.457l-6.029,2.235a31.782,31.782,0,0,0,14.265,4.207,34.869,34.869,0,0,0,8.616-.425l-8.663-9.052-2.3.853a.244.244,0,1,1-.17-.457l2.452-.909a.243.243,0,0,1,.261.06l9.083,9.492a.244.244,0,0,1-.128.407A33.406,33.406,0,0,1,5578.308,1969.446Z"/>
              <g id="Group_1204" data-name="Group 1204">
                <path id="Path_2162" data-name="Path 2162" d="M5584.753,1968.6l0,4.772a34.559,34.559,0,0,1-9.1.509c-5.908-.415-11.2-2.128-14.768-4.495,0,0-.013-4.781-.008-4.778,3.566,2.37,8.863,4.086,14.776,4.5a34.528,34.528,0,0,0,9.1-.51S5584.753,1968.6,5584.753,1968.6Z" fill="#99b9ff"/>
                <path id="Path_2163" data-name="Path 2163" d="M5578.308,1974.218c-.886,0-1.781-.031-2.678-.094-5.723-.4-11.149-2.055-14.886-4.535a.251.251,0,0,1-.109-.2l-.009-4.031c0-.893,0-.893.129-.963a.246.246,0,0,1,.251.012c3.669,2.438,9.011,4.064,14.658,4.461a34.555,34.555,0,0,0,9.04-.506.245.245,0,0,1,.279.155.241.241,0,0,1,.014.106l0,4.751a.244.244,0,0,1-.2.239A33.421,33.421,0,0,1,5578.308,1974.218Zm-17.185-4.964c3.665,2.4,8.955,3.991,14.541,4.383a34.684,34.684,0,0,0,8.843-.467l0-4.276a35.242,35.242,0,0,1-8.879.457,32.255,32.255,0,0,1-14.516-4.3C5561.114,1965.991,5561.12,1968.175,5561.123,1969.254Zm23.627,4.117h0Z"/>
              </g>
            </g>
          </g>
        </g>
        <g id="Group_1208" data-name="Group 1208">
          <path id="Path_2164" data-name="Path 2164" d="M5525.331,1951.2l-30.882-4.954v-3.191l30.882,4.954Z" fill="#99b9ff"/>
          <path id="Path_2165" data-name="Path 2165" d="M5525.475,1956.319l-30.882-4.954v-3.191l30.882,4.954Z" fill="#99b9ff"/>
          <path id="Path_2166" data-name="Path 2166" d="M5525.523,1961.628l-30.883-4.954v-3.191l30.883,4.954Z" fill="#99b9ff"/>
          <path id="Path_2167" data-name="Path 2167" d="M5525.523,1966.569l-30.882-4.954v-3.191l30.882,4.954Z" fill="#99b9ff"/>
        </g>
        <g id="Group_1209" data-name="Group 1209">
          <path id="Path_2168" data-name="Path 2168" d="M5600.035,1906.428l-11.5-1.63v-2.985l11.5,1.63Z" fill="#99b9ff"/>
          <path id="Path_2169" data-name="Path 2169" d="M5601.2,1914.758l-14.7-2.084v-2.985l14.7,2.084Z" fill="#99b9ff"/>
          <path id="Path_2170" data-name="Path 2170" d="M5601.25,1919.6l-14.7-2.084v-2.985l14.7,2.084Z" fill="#99b9ff"/>
          <path id="Path_2171" data-name="Path 2171" d="M5601.3,1929.387l-14.7-2.084v-2.985l14.7,2.084Z" fill="#99b9ff"/>
          <path id="Path_2172" data-name="Path 2172" d="M5601.25,1934.27l-14.7-2.084V1929.2l14.7,2.084Z" fill="#99b9ff"/>
          <path id="Path_2173" data-name="Path 2173" d="M5601.156,1939.094l-14.7-2.084v-3.127l14.7,2.084Z" fill="#99b9ff"/>
        </g>
        <g id="Group_1210" data-name="Group 1210">
          <path id="Path_2174" data-name="Path 2174" d="M5568.348,1935.644l-14.7-2.084v-2.985l14.7,2.084Z" fill="#99b9ff"/>
          <path id="Path_2175" data-name="Path 2175" d="M5568.4,1940.488l-14.7-2.084v-2.985l14.7,2.084Z" fill="#99b9ff"/>
        </g>
      </g>
      <g id="Group_1226" data-name="Group 1226">
        <g id="Group_1214" data-name="Group 1214">
          <g id="Group_1212" data-name="Group 1212">
            <path id="Path_2176" data-name="Path 2176" d="M5500.934,1952.805c0-.18,10.084-1.773,10.735-3.616.971-2.75,2.181-6.057,2.181-6.057l2.518,1.591-1.621,7.912Z" fill="#fff"/>
            <path id="Path_2177" data-name="Path 2177" d="M5500.934,1953.049a.244.244,0,0,1-.244-.242c0-.243,0-.243,1.73-.612,2.345-.5,8.574-1.826,9.019-3.087.96-2.72,2.17-6.026,2.182-6.059a.241.241,0,0,1,.15-.147.244.244,0,0,1,.209.024l2.518,1.591a.244.244,0,0,1,.109.255l-1.621,7.912a.242.242,0,0,1-.236.2l-13.813.17Zm13.041-9.549c-.314.86-1.281,3.517-2.076,5.77-.47,1.331-4.649,2.381-8.733,3.264l11.381-.14,1.548-7.555Z"/>
          </g>
          <path id="Path_2178" data-name="Path 2178" d="M5529.7,1934.63a16.851,16.851,0,0,0-10.448.048,4.277,4.277,0,0,0-2.94,3.579l-3.568,20.542c-.176,1.494,1.82,2.945,3.226,3.478a19.239,19.239,0,0,0,6.834,1.084c3.371,0,5.82.2,7.187-.4,1.135-.5,2.843-1.7,2.9-2.937l-.248-21.115A4.286,4.286,0,0,0,5529.7,1934.63Z" fill="#5479f7"/>
          <path id="Path_2179" data-name="Path 2179" d="M5512.85,1943.457s2.848-7.888,6.041-8.647l-1.623,11.178Z" fill="#5479f7"/>
          <path id="Path_2180" data-name="Path 2180" d="M5536.339,1947.338a71.656,71.656,0,0,0-.768-7.317,6.479,6.479,0,0,0-5.052-4.94l-.5,11.524Z" fill="#5479f7"/>
          <path id="Path_2181" data-name="Path 2181" d="M5526.515,1936.345a14.122,14.122,0,0,1-4.78-.729.244.244,0,1,1,.17-.457c3.371,1.249,8.027.428,8.074.419a.244.244,0,0,1,.087.48A21.8,21.8,0,0,1,5526.515,1936.345Z"/>
          <path id="Path_2182" data-name="Path 2182" d="M5526.368,1963.635c-.488,0-1.01-.007-1.569-.014-.635-.008-1.292-.016-2-.016a19.618,19.618,0,0,1-6.921-1.1c-1.519-.575-3.573-2.115-3.381-3.735l2.406-13.854-2.177-1.247a.244.244,0,0,1-.108-.294c.118-.327,2.924-8,6.2-8.8.13-.054.242-.1.352-.131a17.133,17.133,0,0,1,10.6-.046,4.472,4.472,0,0,1,1.038.495,6.646,6.646,0,0,1,5,5.073,70.7,70.7,0,0,1,.774,7.357.244.244,0,0,1-.272.257l-3.329-.387.151,12.824c-.064,1.373-1.857,2.642-3.047,3.163A9.876,9.876,0,0,1,5526.368,1963.635Zm-13.217-20.286,2.145,1.229a.245.245,0,0,1,.119.253l-2.433,14.01c-.158,1.331,1.739,2.7,3.071,3.208a19.132,19.132,0,0,0,6.748,1.068c.709,0,1.367.008,2,.017,2.265.029,4.054.052,5.086-.4s2.7-1.595,2.754-2.724l-.154-13.087a.244.244,0,0,1,.272-.245l3.314.384a66.407,66.407,0,0,0-.744-6.988,6.169,6.169,0,0,0-4.674-4.715.249.249,0,0,1-.079-.033,3.992,3.992,0,0,0-.958-.464,16.651,16.651,0,0,0-10.3.048c-.1.033-.21.073-.337.127a.261.261,0,0,1-.063.017C5516.173,1935.741,5513.608,1942.152,5513.151,1943.349Z"/>
          <g id="Group_1213" data-name="Group 1213">
            <path id="Path_2183" data-name="Path 2183" d="M5535.541,1947.119s.308,4.025-1.287,6.728c-1.9,3.227-11.512-1.12-11.512-1.12l-1.117-.632a3.1,3.1,0,0,0-2.483-.253l-1.805.582a12.559,12.559,0,0,1,2.758-2.471,2.112,2.112,0,0,1,2.016.4,6.652,6.652,0,0,0,3.762,1l3.821-.113a1.267,1.267,0,0,0,1.224-1.155l.29-3.33Z" fill="#fff"/>
            <path id="Path_2184" data-name="Path 2184" d="M5531.341,1955.277c-3.5,0-8.412-2.2-8.7-2.328l-.02-.01-1.117-.632a2.87,2.87,0,0,0-2.288-.233l-1.8.582a.245.245,0,0,1-.277-.1.243.243,0,0,1,.015-.292,12.58,12.58,0,0,1,2.829-2.529,2.246,2.246,0,0,1,2.262.4,6.4,6.4,0,0,0,3.624.965l3.822-.114a1.021,1.021,0,0,0,.988-.932l.29-3.33a.244.244,0,0,1,.264-.222l4.333.367a.245.245,0,0,1,.223.224c.012.168.294,4.133-1.321,6.87C5533.9,1954.93,5532.731,1955.277,5531.341,1955.277Zm-8.488-2.768c.35.157,9.444,4.174,11.191,1.214a12.919,12.919,0,0,0,1.265-6.379l-3.879-.328-.269,3.087a1.511,1.511,0,0,1-1.459,1.378l-3.822.113a6.866,6.866,0,0,1-3.9-1.04c-.521-.33-1.252-.665-1.769-.386a9.689,9.689,0,0,0-2.085,1.745l.941-.3a3.362,3.362,0,0,1,2.678.273Z"/>
          </g>
        </g>
        <g id="Group_1220" data-name="Group 1220">
          <g id="Group_1217" data-name="Group 1217">
            <g id="Group_1215" data-name="Group 1215">
              <path id="Path_2185" data-name="Path 2185" d="M5520.8,1991.388l2.083,6.215s-2.269-.194-2.486-.152-2.87-5.667-2.87-5.667Z" fill="#fff"/>
              <path id="Path_2186" data-name="Path 2186" d="M5522.881,1997.846h-.021c-1.069-.092-2.267-.174-2.423-.155-.228.045-.315.062-1.778-2.951-.683-1.408-1.349-2.839-1.355-2.853a.243.243,0,0,1,.192-.345l3.273-.4a.242.242,0,0,1,.26.165l2.083,6.214a.242.242,0,0,1-.231.321Zm-2.364-.643c.406,0,1.359.072,2.015.126l-1.9-5.675-2.742.332c1.081,2.316,2.285,4.776,2.6,5.217Zm-.15.006-.018,0Z"/>
            </g>
            <g id="Group_1216" data-name="Group 1216">
              <path id="Path_2187" data-name="Path 2187" d="M5522.4,1996.237s-3.132-1.284-3.712.327c-.736,2.05-1.888,5.178-1.888,5.178a.877.877,0,0,0,.756,1.171,11.652,11.652,0,0,0,3.648-.113c1.255-.44,3.339-4.415,3.339-4.415L5523.9,1995A1.415,1.415,0,0,0,5522.4,1996.237Z" fill="#99b9ff"/>
              <path id="Path_2188" data-name="Path 2188" d="M5519.4,2003.24c-.626,0-1.287-.038-1.861-.084a1.121,1.121,0,0,1-.967-1.5c.012-.033,1.161-3.152,1.889-5.177a1.346,1.346,0,0,1,.746-.8,4.813,4.813,0,0,1,3.04.233,1.618,1.618,0,0,1,1.69-1.156.245.245,0,0,1,.205.2l.642,3.382a.246.246,0,0,1-.023.159c-.218.415-2.166,4.072-3.475,4.531A6.331,6.331,0,0,1,5519.4,2003.24Zm.774-7.246a1.9,1.9,0,0,0-.769.137.86.86,0,0,0-.485.516c-.729,2.027-1.878,5.148-1.889,5.179a.622.622,0,0,0,.064.555.629.629,0,0,0,.483.289,10.753,10.753,0,0,0,3.547-.1c.934-.328,2.562-3.089,3.164-4.223l-.589-3.1c-.284.022-.834.182-1.062,1.056a.243.243,0,0,1-.328.163A6.807,6.807,0,0,0,5520.176,1995.994Z"/>
            </g>
            <path id="Path_2189" data-name="Path 2189" d="M5520.823,2001.8h-3.217a.244.244,0,1,1,0-.488h3.217a.244.244,0,0,1,0,.488Z"/>
          </g>
          <g id="Group_1218" data-name="Group 1218">
            <path id="Path_2190" data-name="Path 2190" d="M5526.7,1992.915l-.708,6.251-2.847-.781.219-5.632Z" fill="#fff"/>
            <path id="Path_2191" data-name="Path 2191" d="M5526,1999.41a.236.236,0,0,1-.064-.009l-2.847-.78a.243.243,0,0,1-.179-.245l.219-5.632a.24.24,0,0,1,.079-.171.244.244,0,0,1,.176-.064l3.336.162a.25.25,0,0,1,.174.086.242.242,0,0,1,.056.185l-.708,6.252a.24.24,0,0,1-.1.174A.243.243,0,0,1,5526,1999.41Zm-2.6-1.209,2.386.655.646-5.71-2.829-.137Z"/>
          </g>
          <g id="Group_1219" data-name="Group 1219">
            <path id="Path_2192" data-name="Path 2192" d="M5526.265,2003.772h-4.505a1,1,0,0,1-.988-1.144,13.289,13.289,0,0,1,2.109-5.025.875.875,0,0,1,.74-.408h1.37a.463.463,0,0,1,.459.413l.1.989.6-.788a13.449,13.449,0,0,1,1.114,4.946A1,1,0,0,1,5526.265,2003.772Z" fill="#99b9ff"/>
            <path id="Path_2193" data-name="Path 2193" d="M5526.265,2004.016h-4.505a1.242,1.242,0,0,1-1.229-1.423,13.54,13.54,0,0,1,2.144-5.121,1.114,1.114,0,0,1,.946-.521h1.37a.7.7,0,0,1,.7.632l.04.374.223-.3a.244.244,0,0,1,.415.043,13.542,13.542,0,0,1,1.138,5.045,1.245,1.245,0,0,1-1.243,1.266Zm-2.644-6.577a.638.638,0,0,0-.534.294,13.086,13.086,0,0,0-2.074,4.931.754.754,0,0,0,.747.864h4.505a.756.756,0,0,0,.755-.769,13.35,13.35,0,0,0-.93-4.466l-.342.451a.244.244,0,0,1-.437-.122l-.1-.988a.216.216,0,0,0-.216-.2Z"/>
          </g>
          <path id="Path_2194" data-name="Path 2194" d="M5526.6,2002.939h-5.392a.244.244,0,1,1,0-.488h5.392a.244.244,0,1,1,0,.488Z"/>
          <path id="Path_2195" data-name="Path 2195" d="M5516.012,1955.373a1.044,1.044,0,0,1,.654-.6,16.049,16.049,0,0,1,13.3,1.913,1.05,1.05,0,0,1,.481.809,120.738,120.738,0,0,1-3.957,37.3l-3.346-.238-.683-31.792s-4.957,11.655-.926,30.2l-3.481.642a35.428,35.428,0,0,1-6.005-16.932C5511.243,1967.625,5515.109,1957.572,5516.012,1955.373Z"/>
          <path id="Path_2196" data-name="Path 2196" d="M5525.638,1980.131a.244.244,0,0,1-.01-.487c2.758-.119,3.085-4.006,3.088-4.045a.244.244,0,0,1,.486.036c0,.044-.362,4.359-3.553,4.5Z" fill="#fff"/>
          <path id="Path_2197" data-name="Path 2197" d="M5522.171,1965.923h-.007a.244.244,0,0,1-.237-.251l.114-3.846-1.978-1.391a.244.244,0,1,1,.28-.4l2.086,1.467a.246.246,0,0,1,.1.207l-.118,3.977A.244.244,0,0,1,5522.171,1965.923Z" fill="#fff"/>
        </g>
        <g id="Group_1223" data-name="Group 1223">
          <path id="Path_2198" data-name="Path 2198" d="M5526.682,1927.088c1.272-1.094,1.563-1.243,1.933-1.87a3.342,3.342,0,0,0,.52-2.861,2.851,2.851,0,0,0-2.487-1.729,3.112,3.112,0,0,0-1.9.6,4.1,4.1,0,0,0-1.755,2.451c-.072.4-.018.578-.2.826-.407.559-1.143.274-1.653.738-.641.583-.343,1.824-.319,1.921a2.9,2.9,0,0,0,2.93,2.078C5524.42,1929.175,5524.348,1929.095,5526.682,1927.088Z"/>
          <g id="Group_1221" data-name="Group 1221">
            <path id="Path_2199" data-name="Path 2199" d="M5523.175,1933.636a2.147,2.147,0,0,0,.957-1.842l-.07-3.061-.062-.058s-1.226.082-1.4-.542.689-.744.689-.744-.819-1.723,1.3-1.7c.569.005.772-.938,1.705-1.149,0,0,.462-.039.93,1.171l1.024,1.517-.512.28a5.726,5.726,0,0,1,.1,1.887.5.5,0,0,1-.342.417,3.205,3.205,0,0,1-.6.132l.165,2.048a3.022,3.022,0,0,0,1.278,2.23,15.384,15.384,0,0,0,1.368.852,25.233,25.233,0,0,1-8.118-.475S5522.418,1934.137,5523.175,1933.636Z" fill="#fff"/>
            <path id="Path_2200" data-name="Path 2200" d="M5527.177,1935.446a25.747,25.747,0,0,1-5.652-.612.244.244,0,0,1-.063-.452c.008-.005.839-.46,1.578-.95h0a1.9,1.9,0,0,0,.848-1.633l-.066-2.875c-.4,0-1.278-.085-1.461-.724a.715.715,0,0,1,.077-.6,1.03,1.03,0,0,1,.526-.376,1.467,1.467,0,0,1,.1-1.178,1.665,1.665,0,0,1,1.524-.6h0c.148,0,.281-.138.485-.363a2.18,2.18,0,0,1,1.161-.78l.034-.005c.107-.009.662.012,1.167,1.3l1.009,1.494a.244.244,0,0,1-.084.35l-.355.2a5.948,5.948,0,0,1,.071,1.787.745.745,0,0,1-.51.621,3.23,3.23,0,0,1-.419.107l.147,1.822a2.767,2.767,0,0,0,1.176,2.049,14.9,14.9,0,0,0,1.343.837.244.244,0,0,1-.083.456A21.151,21.151,0,0,1,5527.177,1935.446Zm-4.921-.955a25.858,25.858,0,0,0,6.664.408c-.217-.134-.469-.3-.731-.48a3.257,3.257,0,0,1-1.381-2.41l-.165-2.049a.244.244,0,0,1,.214-.262,2.886,2.886,0,0,0,.559-.121.253.253,0,0,0,.175-.213,5.479,5.479,0,0,0-.1-1.807.245.245,0,0,1,.121-.266l.277-.152-.874-1.294a.214.214,0,0,1-.026-.049c-.325-.842-.618-.988-.688-1.011a1.773,1.773,0,0,0-.868.621,1.184,1.184,0,0,1-.853.524c-.4-.005-.907.058-1.109.374a1.206,1.206,0,0,0,.032.98.243.243,0,0,1-.187.346.8.8,0,0,0-.471.233.226.226,0,0,0-.016.2c.093.327.818.388,1.154.366a.251.251,0,0,1,.184.066l.06.056a.25.25,0,0,1,.078.174l.07,3.06a2.38,2.38,0,0,1-1.066,2.051C5522.945,1934.081,5522.559,1934.314,5522.256,1934.491Z"/>
          </g>
          <g id="Group_1222" data-name="Group 1222">
            <path id="Path_2201" data-name="Path 2201" d="M5526.886,1929.941s-1.344.047-1.878-.684Z" fill="#fff"/>
            <path id="Path_2202" data-name="Path 2202" d="M5526.832,1930.185a2.66,2.66,0,0,1-2.021-.784.244.244,0,1,1,.394-.288,2.233,2.233,0,0,0,1.672.584.244.244,0,0,1,.017.487Z"/>
          </g>
        </g>
        <g id="Group_1225" data-name="Group 1225">
          <g id="Group_1224" data-name="Group 1224">
            <path id="Path_2203" data-name="Path 2203" d="M5499.346,1952.008H5512.2l-9.531-14.658a1.638,1.638,0,0,0-1.375-.736h-10.434a.817.817,0,0,0-.711,1.254Z"/>
            <path id="Path_2204" data-name="Path 2204" d="M5496.6,1941.754a2.718,2.718,0,0,0,2.007,1.164c.691,0,.912-.521.494-1.164a2.719,2.719,0,0,0-2.007-1.163C5496.407,1940.591,5496.186,1941.112,5496.6,1941.754Z" fill="#5479f7"/>
            <path id="Path_2205" data-name="Path 2205" d="M5500.628,1953.232h21.405a1.329,1.329,0,0,0,1.329-1.329H5499.3A1.329,1.329,0,0,0,5500.628,1953.232Z"/>
            <path id="Path_2206" data-name="Path 2206" d="M5511.056,1952.266h-11.041a.244.244,0,1,1,0-.488h11.041a.244.244,0,0,1,0,.488Z" fill="#fff"/>
          </g>
        </g>
      </g>
      <g id="Group_1240" data-name="Group 1240">
        <g id="Group_1231" data-name="Group 1231">
          <g id="Group_1227" data-name="Group 1227">
            <path id="Path_2207" data-name="Path 2207" d="M5597.835,1937.623a9.221,9.221,0,0,1-6.651-1.587c-3.291-2.3-5.371-3.9-5.371-3.9a2.56,2.56,0,0,0-.71-1.79c-.705-.528-1.123-2.326-1.675-2.314l.2,2.038s-1.672-.811-2.528-1.307a1.581,1.581,0,0,0-1.441-.2s2.963,3.743,3.916,4.09,1.457,1.784,1.989,2.514l.531.731s3.938,6.807,11.742,6.15Z" fill="#fff"/>
            <path id="Path_2208" data-name="Path 2208" d="M5596.793,1942.339c-7.02,0-10.716-5.99-10.9-6.3l-.525-.721a8.27,8.27,0,0,1-.475-.782c-.376-.67-.8-1.43-1.4-1.647-.99-.36-3.716-3.779-4.024-4.168a.248.248,0,0,1-.047-.2.245.245,0,0,1,.129-.165,1.822,1.822,0,0,1,1.673.208c.586.34,1.574.836,2.12,1.107l-.156-1.6a.245.245,0,0,1,.061-.185.24.24,0,0,1,.176-.082c.44-.014.727.542,1.052,1.182a3.75,3.75,0,0,0,.775,1.18,2.629,2.629,0,0,1,.8,1.861c.434.33,2.4,1.819,5.271,3.82a9.056,9.056,0,0,0,6.462,1.548.245.245,0,0,1,.293.239v4.428a.245.245,0,0,1-.223.243C5597.494,1942.324,5597.139,1942.339,5596.793,1942.339Zm-16.7-13.616c1.187,1.472,2.953,3.482,3.562,3.7a3.743,3.743,0,0,1,1.657,1.866,7.917,7.917,0,0,0,.445.734l.531.731.014.021c.039.066,3.879,6.534,11.287,6.045v-3.915a9.51,9.51,0,0,1-6.547-1.673c-3.257-2.272-5.359-3.887-5.38-3.9a.248.248,0,0,1-.1-.192,2.331,2.331,0,0,0-.613-1.6,3.928,3.928,0,0,1-.917-1.349c-.081-.159-.2-.387-.309-.576l.138,1.431a.243.243,0,0,1-.349.243c-.068-.034-1.689-.822-2.543-1.316A1.679,1.679,0,0,0,5580.1,1928.723Z"/>
          </g>
          <g id="Group_1228" data-name="Group 1228">
            <path id="Path_2209" data-name="Path 2209" d="M5595.555,1937.11l1.742,7.171s3.64-.57,3.827,1.008a64.54,64.54,0,0,1-.49,8.465c-.2,1.821-.523,4.054,1.779,4.631s10.7-1.18,12.9-.212,2.98-.081,2.8-1.787-.625-9.514-.625-9.514l1.54,5.147,4.2-.457s-.928-11.262-6.5-13.415-8.03-2.25-12.2-1.9S5597.457,1937.6,5595.555,1937.11Z" fill="#5479f7"/>
            <path id="Path_2210" data-name="Path 2210" d="M5616.764,1958.789a3.97,3.97,0,0,1-1.552-.392c-1.149-.506-4.293-.21-7.066.052a23.739,23.739,0,0,1-5.792.173c-2.436-.611-2.184-2.89-1.981-4.721l.019-.174a64.917,64.917,0,0,0,.49-8.409.688.688,0,0,0-.291-.487c-.735-.557-2.6-.412-3.256-.309a.244.244,0,0,1-.275-.183l-1.742-7.171a.239.239,0,0,1,.066-.231.244.244,0,0,1,.232-.063,12.323,12.323,0,0,0,4.546-.279c1.267-.209,2.7-.446,4.341-.586,4.1-.349,6.647-.274,12.3,1.91s6.62,13.157,6.659,13.623a.245.245,0,0,1-.217.263l-4.2.456a.244.244,0,0,1-.26-.172l-.941-3.146c.145,2.44.383,6.29.5,7.417a2.226,2.226,0,0,1-.639,2.146A1.574,1.574,0,0,1,5616.764,1958.789Zm-3.74-1.156a6.481,6.481,0,0,1,2.385.317c.913.4,1.61.458,2.016.162a1.823,1.823,0,0,0,.441-1.7c-.181-1.693-.622-9.448-.627-9.526a.244.244,0,0,1,.478-.083l1.481,4.953,3.758-.409c-.174-1.622-1.4-11.069-6.325-12.972-5.587-2.157-7.974-2.229-12.087-1.879-1.619.138-3.045.373-4.3.581a15.056,15.056,0,0,1-4.36.351l1.6,6.583c.649-.078,2.526-.233,3.4.432a1.177,1.177,0,0,1,.48.818,69.792,69.792,0,0,1-.489,8.52l-.019.175c-.2,1.812-.409,3.686,1.615,4.194a23.86,23.86,0,0,0,5.627-.186C5609.833,1957.8,5611.6,1957.633,5613.024,1957.633Z"/>
          </g>
          <g id="Group_1230" data-name="Group 1230">
            <path id="Path_2211" data-name="Path 2211" d="M5610.958,1927.382a1.437,1.437,0,0,1-.429,1.858,5.571,5.571,0,0,0-1.832,1.988c-.887,1.79.17,2.979,2.885,2.8s2.8.249,5.257,1.464,3.488.542,3.537-1.651-2.327-4.879-3.451-5.293a2.862,2.862,0,0,1-.515-.313,7.741,7.741,0,0,1-1.588-1.783c-1.042-1.076-3.616-.889-3.989-.015A1.089,1.089,0,0,0,5610.958,1927.382Z"/>
            <path id="Path_2212" data-name="Path 2212" d="M5616.608,1926.189c-.721.6-1.13,1.713-.74,2.182s1.433.117,2.153-.482.845-1.217.455-1.687A1.275,1.275,0,0,0,5616.608,1926.189Z"/>
            <g id="Group_1229" data-name="Group 1229">
              <path id="Path_2213" data-name="Path 2213" d="M5616.007,1931.185a.562.562,0,0,0-.563-.041c-.056-.353-.133-.649-.133-.649.07-1.484-2.607-2-2.607-2h-.1a8.547,8.547,0,0,0-.872,1.394.775.775,0,0,1-.241.291l-.447.325a.326.326,0,0,0-.057.474l.257.3c-.6,1.856.506,2.051.506,2.051a3.5,3.5,0,0,0,.464.084,4.137,4.137,0,0,1-3.342,2.961.242.242,0,0,0-.144.424,7.218,7.218,0,0,0,6.272,1.472.284.284,0,0,0,.119-.5c-.654-.527-1.484-1.838-.512-4.943.112-.073.212-.144.295-.21.271.192.725.046,1.03-.339S5616.274,1931.4,5616.007,1931.185Z" fill="#fff"/>
              <path id="Path_2214" data-name="Path 2214" d="M5613.329,1938.686a7.3,7.3,0,0,1-4.764-1.7.474.474,0,0,1-.145-.513.491.491,0,0,1,.428-.338,3.752,3.752,0,0,0,3.023-2.524c-.061-.012-.12-.025-.179-.04a1.069,1.069,0,0,1-.672-.5,2.166,2.166,0,0,1-.052-1.731l-.171-.2a.568.568,0,0,1,.1-.828l.447-.325a.54.54,0,0,0,.165-.2,8.962,8.962,0,0,1,.9-1.434.244.244,0,0,1,.194-.1h.1a.233.233,0,0,1,.046,0c.117.023,2.842.568,2.805,2.215.016.062.05.2.084.38a.723.723,0,0,1,.519.144h0a.781.781,0,0,1,.269.689,1.385,1.385,0,0,1-.308.749,1.136,1.136,0,0,1-1.194.472c-.037.027-.075.054-.115.08-.9,2.95-.1,4.146.458,4.6a.529.529,0,0,1,.184.541.521.521,0,0,1-.409.39A8.705,8.705,0,0,1,5613.329,1938.686Zm-.613-9.94a8.3,8.3,0,0,0-.769,1.249,1.023,1.023,0,0,1-.316.38l-.447.325a.081.081,0,0,0-.015.119l.257.3a.244.244,0,0,1,.046.232,1.86,1.86,0,0,0-.034,1.46.6.6,0,0,0,.35.277l.017,0a3.38,3.38,0,0,0,.433.078.244.244,0,0,1,.18.115.248.248,0,0,1,.021.212,4.352,4.352,0,0,1-3.55,3.119,6.927,6.927,0,0,0,6.059,1.414.036.036,0,0,0,.03-.028.042.042,0,0,0-.016-.045c-.663-.534-1.621-1.92-.592-5.206a.241.241,0,0,1,.1-.131c.1-.065.2-.133.278-.2a.243.243,0,0,1,.292-.007c.141.1.462.006.7-.291a.916.916,0,0,0,.2-.481.319.319,0,0,0-.086-.271.353.353,0,0,0-.323,0,.245.245,0,0,1-.329-.189c-.053-.337-.128-.624-.128-.627a.217.217,0,0,1-.008-.073C5615.121,1929.353,5613.091,1928.832,5612.716,1928.746Z"/>
            </g>
            <path id="Path_2215" data-name="Path 2215" d="M5612.617,1933.692a2.87,2.87,0,0,1-.444-.035.244.244,0,0,1,.073-.482,1.418,1.418,0,0,0,1.308-.285.244.244,0,0,1,.382.3A1.68,1.68,0,0,1,5612.617,1933.692Z"/>
          </g>
        </g>
        <g id="Group_1236" data-name="Group 1236">
          <g id="Group_1232" data-name="Group 1232">
            <path id="Path_2216" data-name="Path 2216" d="M5607.871,1994.191l.133,4.947,1.748.189.864-5.324Z" fill="#fff"/>
            <path id="Path_2217" data-name="Path 2217" d="M5609.751,1999.571h-.026l-1.748-.189a.244.244,0,0,1-.217-.236l-.133-4.947a.243.243,0,0,1,.227-.25l2.745-.188a.245.245,0,0,1,.257.283l-.865,5.323A.244.244,0,0,1,5609.751,1999.571Zm-1.509-.652,1.3.141.778-4.792-2.2.151Z"/>
          </g>
          <g id="Group_1233" data-name="Group 1233">
            <path id="Path_2218" data-name="Path 2218" d="M5597.956,1995.816l-.279,3.94,2.309.189.824-4.129Z" fill="#fff"/>
            <path id="Path_2219" data-name="Path 2219" d="M5599.986,2000.189h-.02l-2.309-.189a.244.244,0,0,1-.223-.26l.279-3.941a.244.244,0,0,1,.243-.226h2.854a.243.243,0,0,1,.189.089.245.245,0,0,1,.051.2l-.825,4.129A.244.244,0,0,1,5599.986,2000.189Zm-2.048-.657,1.852.152.723-3.625h-2.33Z"/>
          </g>
          <g id="Group_1234" data-name="Group 1234">
            <path id="Path_2220" data-name="Path 2220" d="M5600.6,2001.642a.6.6,0,0,0,.263-.479,6.789,6.789,0,0,0-.216-2.272c-.31-.614-1.586.242-1.586.242a5.665,5.665,0,0,0-1.185-1.253c-.226-.113-1.551.769-2.887,1.971-1.463,1.318-2.124,1.738-2.44,2.874a.886.886,0,0,0,.8,1.109A11.673,11.673,0,0,0,5600.6,2001.642Z" fill="#fff"/>
            <path id="Path_2221" data-name="Path 2221" d="M5593.939,2004.1c-.226,0-.43-.009-.609-.022a1.132,1.132,0,0,1-.848-.48,1.107,1.107,0,0,1-.165-.937,4.839,4.839,0,0,1,1.879-2.429c.192-.169.4-.354.633-.561.1-.094,2.569-2.3,3.159-2.009a4.717,4.717,0,0,1,1.138,1.147,2.086,2.086,0,0,1,1.333-.356.621.621,0,0,1,.408.329,6.5,6.5,0,0,1,.243,2.389.835.835,0,0,1-.372.675A12.3,12.3,0,0,1,5593.939,2004.1Zm3.867-5.981a10.668,10.668,0,0,0-2.651,1.915c-.231.208-.443.394-.637.565-1.019.9-1.485,1.306-1.731,2.193a.619.619,0,0,0,.094.525.647.647,0,0,0,.484.275,11.431,11.431,0,0,0,7.1-2.152.348.348,0,0,0,.154-.282,6.081,6.081,0,0,0-.19-2.156.14.14,0,0,0-.1-.078,2.088,2.088,0,0,0-1.135.412.244.244,0,0,1-.334-.059A5.535,5.535,0,0,0,5597.806,1998.118Z"/>
          </g>
          <path id="Path_2222" data-name="Path 2222" d="M5594.607,2003.043a6.766,6.766,0,0,1-1.429-.133.244.244,0,0,1,.11-.475,8.8,8.8,0,0,0,6.939-1.9.244.244,0,0,1,.305.381A9.449,9.449,0,0,1,5594.607,2003.043Z"/>
          <g id="Group_1235" data-name="Group 1235">
            <path id="Path_2223" data-name="Path 2223" d="M5607.18,2000.341l.026-2.708a.817.817,0,0,1,1.288-.154s.688-.965,1.966.238c0,0,1.8,3.352,2.594,5.345a.824.824,0,0,1-.742,1.132,4.99,4.99,0,0,1-2.358-.339,16.751,16.751,0,0,1-2.512-2.738A1.252,1.252,0,0,1,5607.18,2000.341Z" fill="#fff"/>
            <path id="Path_2224" data-name="Path 2224" d="M5611.984,2004.442a4.222,4.222,0,0,1-2.166-.385,16.549,16.549,0,0,1-2.569-2.79,1.489,1.489,0,0,1-.312-.928l.025-2.708a.253.253,0,0,1,.04-.133,1.248,1.248,0,0,1,.79-.517.985.985,0,0,1,.68.174,1.207,1.207,0,0,1,.661-.28,1.96,1.96,0,0,1,1.494.664.28.28,0,0,1,.048.063c.018.033,1.813,3.386,2.6,5.37a1.067,1.067,0,0,1-.963,1.466C5612.2,2004.441,5612.092,2004.442,5611.984,2004.442Zm-4.535-6.725-.025,2.627a1.009,1.009,0,0,0,.211.624,16.83,16.83,0,0,0,2.456,2.685,4.6,4.6,0,0,0,2.215.3.564.564,0,0,0,.466-.258.573.573,0,0,0,.055-.539c-.738-1.849-2.369-4.921-2.563-5.285a1.506,1.506,0,0,0-1.083-.508.731.731,0,0,0-.489.261.245.245,0,0,1-.361.04.613.613,0,0,0-.477-.2A.7.7,0,0,0,5607.449,1997.717Zm-.269,2.624h0Z"/>
          </g>
          <rect id="Rectangle_1569" data-name="Rectangle 1569" width="0.488" height="1.948" rx="0.244" transform="translate(5608.25 1997.235)"/>
          <path id="Path_2225" data-name="Path 2225" d="M5597.255,1996.039a118.271,118.271,0,0,1,.422-18.893c.882-7.3,3.722-17.15,4.737-20.527a1.725,1.725,0,0,1,1.624-1.23,45.329,45.329,0,0,1,6.217.262,10.761,10.761,0,0,0,4.4-.012s2.351,2.692,2.159,7.752-5.677,26.408-5.469,31.418a7.187,7.187,0,0,1-4.235.466l.991-28.769s-2.05,5.923-3.012,9.98a19.444,19.444,0,0,1-2.144,5.447,60.2,60.2,0,0,1-1.707,14.071A7.424,7.424,0,0,1,5597.255,1996.039Z"/>
          <path id="Path_2226" data-name="Path 2226" d="M5600.714,1985.477a.241.241,0,0,1-.138-.043.243.243,0,0,1-.063-.339l1.511-2.2a.244.244,0,1,1,.4.276l-1.511,2.2A.244.244,0,0,1,5600.714,1985.477Z" fill="#fff"/>
          <path id="Path_2227" data-name="Path 2227" d="M5610.872,1980.132a4.038,4.038,0,0,1-.922-.1.244.244,0,0,1,.12-.473,3.131,3.131,0,0,0,2.326-.352.243.243,0,1,1,.29.391A3.033,3.033,0,0,1,5610.872,1980.132Z" fill="#fff"/>
        </g>
        <g id="Group_1239" data-name="Group 1239">
          <g id="Group_1237" data-name="Group 1237">
            <path id="Path_2228" data-name="Path 2228" d="M5614.693,1957.223H5603.2l5.078-12.5h11.495Z" fill="#fff"/>
            <path id="Path_2229" data-name="Path 2229" d="M5614.694,1957.467H5603.2a.245.245,0,0,1-.226-.336l5.078-12.5a.244.244,0,0,1,.226-.152h11.494a.245.245,0,0,1,.2.108.242.242,0,0,1,.023.227l-5.078,12.5A.242.242,0,0,1,5614.694,1957.467Zm-11.133-.488h10.968l4.88-12.013h-10.968Z"/>
          </g>
          <g id="Group_1238" data-name="Group 1238">
            <path id="Path_2230" data-name="Path 2230" d="M5610.353,1953.286a19.128,19.128,0,0,0-2.912-1.423c-.91-.249-.221.52.434.833s.675.726.675.726-3.582-.115-3.983-.136.2.537,1.272.716a2.646,2.646,0,0,0,1.074,1.339c.776.433,3.3,0,3.3,0a20.14,20.14,0,0,0,7.9,1.045,4.525,4.525,0,0,0,4.646-4.616l-3.136.29S5618.313,1955.006,5610.353,1953.286Z" fill="#fff"/>
            <path id="Path_2231" data-name="Path 2231" d="M5617.045,1956.651a19.808,19.808,0,0,1-6.86-1.058c-.472.077-2.613.4-3.39-.039a2.807,2.807,0,0,1-1.134-1.337c-.68-.142-1.505-.508-1.462-.907.015-.132.121-.281.38-.267.313.016,2.6.091,3.56.122a1.347,1.347,0,0,0-.369-.249c-.238-.113-1.16-.67-.99-1.124.122-.329.576-.2.725-.164a18.291,18.291,0,0,1,2.937,1.428c7.644,1.642,8.941-1.067,8.953-1.094a.244.244,0,0,1,.2-.144l3.136-.29a.242.242,0,0,1,.264.215,4.237,4.237,0,0,1-1.072,3.136,5.2,5.2,0,0,1-3.806,1.75Q5617.564,1956.652,5617.045,1956.651Zm-6.833-1.554a.231.231,0,0,1,.094.019,20.159,20.159,0,0,0,7.793,1.026,4.717,4.717,0,0,0,3.455-1.581,3.836,3.836,0,0,0,.974-2.525l-2.76.256c-.369.585-2.278,2.786-9.466,1.232a.222.222,0,0,1-.072-.027,20.1,20.1,0,0,0-2.78-1.377,2.343,2.343,0,0,0,.53.356c.764.366.811.877.814.934a.244.244,0,0,1-.251.256c-.116,0-2.305-.074-3.4-.114a3.254,3.254,0,0,0,.741.209.243.243,0,0,1,.191.164,2.423,2.423,0,0,0,.962,1.2,7.608,7.608,0,0,0,3.139-.028Z"/>
          </g>
        </g>
      </g>
      <g id="Group_1243" data-name="Group 1243">
        <g id="Group_1241" data-name="Group 1241">
          <path id="Path_2232" data-name="Path 2232" d="M5575.038,1877.165a.255.255,0,0,1-.081-.014c-.918-.319-1.852-.623-2.778-.9a.246.246,0,0,1,.142-.472c.932.28,1.874.586,2.8.907a.247.247,0,0,1-.081.48Z"/>
          <path id="Path_2233" data-name="Path 2233" d="M5533.948,1876.708a.244.244,0,0,1-.082-.474,57.663,57.663,0,0,1,18.83-3.3,65.563,65.563,0,0,1,19.624,2.841.244.244,0,1,1-.14.467c-12.912-3.888-26.46-3.729-38.15.446A.235.235,0,0,1,5533.948,1876.708Z"/>
          <path id="Path_2234" data-name="Path 2234" d="M5540.722,1878.584a.244.244,0,0,1-.066-.479,57.187,57.187,0,0,1,28.162-.5.244.244,0,1,1-.108.475,56.707,56.707,0,0,0-27.921.49A.224.224,0,0,1,5540.722,1878.584Z"/>
          <path id="Path_2235" data-name="Path 2235" d="M5581.716,1881.4a1.372,1.372,0,1,1,.046,0Zm0-2.205h-.029a.843.843,0,1,0,.029,0Z"/>
          <path id="Path_2236" data-name="Path 2236" d="M5531.343,1878.239a.246.246,0,0,1-.185-.085.242.242,0,0,1-.047-.232c.313-.991.713-1.96.717-1.969a.244.244,0,0,1,.4-.073l1.5,1.61a.245.245,0,0,1-.142.407l-2.206.339A.211.211,0,0,1,5531.343,1878.239Zm.794-1.745c-.113.29-.279.728-.438,1.2l1.358-.209Z"/>
        </g>
        <g id="Group_1242" data-name="Group 1242">
          <path id="Path_2237" data-name="Path 2237" d="M5497.159,1978.293l-.032,0a.245.245,0,0,1-.21-.274l.166-1.25a.244.244,0,1,1,.483.064l-.165,1.25A.244.244,0,0,1,5497.159,1978.293Z"/>
          <path id="Path_2238" data-name="Path 2238" d="M5496.774,1981.206l-.033,0a.243.243,0,0,1-.209-.274l.165-1.25a.244.244,0,0,1,.484.064l-.166,1.25A.244.244,0,0,1,5496.774,1981.206Z"/>
          <path id="Path_2239" data-name="Path 2239" d="M5496.218,1979.014a.163.163,0,0,1-.032,0l-1.251-.165a.244.244,0,0,1,.064-.484l1.251.166a.244.244,0,0,1-.032.485Z"/>
          <path id="Path_2240" data-name="Path 2240" d="M5499.131,1979.4l-.032,0-1.251-.166a.244.244,0,1,1,.064-.483l1.251.165a.244.244,0,0,1-.032.486Z"/>
        </g>
        <path id="Path_2241" data-name="Path 2241" d="M5501.371,1985.595a1.336,1.336,0,0,1-.484-.092,1.355,1.355,0,0,1-.758-.734,1.389,1.389,0,0,1,.694-1.815,1.329,1.329,0,0,1,1.032-.027,1.359,1.359,0,0,1,.758.734,1.39,1.39,0,0,1-.694,1.815A1.333,1.333,0,0,1,5501.371,1985.595Zm-.349-2.2a.9.9,0,0,0-.445,1.177.871.871,0,0,0,.486.473.845.845,0,0,0,.656-.017.9.9,0,0,0,.446-1.177.874.874,0,0,0-.487-.473A.845.845,0,0,0,5501.022,1983.4Z"/>
      </g>
    </g>
  </g>
</svg>
