<svg xmlns="http://www.w3.org/2000/svg" width="190" height="190" viewBox="0 0 190 190">
  <g id="Group_1174" data-name="Group 1174" transform="translate(-1058 -5328.563)">
    <circle id="Ellipse_63" data-name="Ellipse 63" cx="95" cy="95" r="95" transform="translate(1058 5328.563)" fill="#ebf3ff"/>
    <g id="Group_1127" data-name="Group 1127" transform="translate(1089.231 5373.697)">
      <rect id="Rectangle_1566" data-name="Rectangle 1566" width="129.086" height="95.49" rx="4" transform="translate(2.049 0.407)" fill="#5479f7"/>
      <rect id="Rectangle_1567" data-name="Rectangle 1567" width="129.086" height="95.49" rx="5" transform="translate(0.195 0.406)" fill="#99b9ff"/>
      <rect id="Rectangle_1568" data-name="Rectangle 1568" width="114.891" height="77.772" rx="4" transform="translate(7.206 6.326)" fill="#caddff"/>
      <g id="Group_1126" data-name="Group 1126">
        <path id="Path_2038" data-name="Path 2038" d="M5377.788,607.05a.253.253,0,0,1-.253-.253V584.981a5.674,5.674,0,0,1,5.667-5.668l22.345-.154h0a.253.253,0,0,1,0,.506l-22.347.153a5.168,5.168,0,0,0-5.164,5.162V606.8A.253.253,0,0,1,5377.788,607.05Z" transform="translate(-5377.535 -579.16)"/>
        <path id="Path_2039" data-name="Path 2039" d="M5383.2,905.537a5.674,5.674,0,0,1-5.668-5.667V860.619a.253.253,0,0,1,.506,0V899.87a5.167,5.167,0,0,0,5.162,5.162l1.8,0h0a.253.253,0,0,1,0,.506Z" transform="translate(-5377.535 -809.388)"/>
        <path id="Path_2040" data-name="Path 2040" d="M5537.9,1106.7a.253.253,0,1,1,0-.506l77.8-.09h0a.253.253,0,0,1,0,.505l-77.8.09Z" transform="translate(-5508.622 -1010.578)"/>
        <path id="Path_2041" data-name="Path 2041" d="M5987.9,666.9a.253.253,0,0,1-.253-.252l-.212-80.969a5.168,5.168,0,0,0-5.162-5.163l-17.208.015h0a.253.253,0,0,1,0-.506l17.208-.015a5.674,5.674,0,0,1,5.668,5.668l.212,80.969a.253.253,0,0,1-.252.254Z" transform="translate(-5858.348 -579.853)"/>
        <path id="Path_2042" data-name="Path 2042" d="M5737.538,612.649h-36.267a.253.253,0,1,1,0-.506h36.267a.253.253,0,1,1,0,.506Z" transform="translate(-5642.376 -606.164)"/>
        <path id="Path_2043" data-name="Path 2043" d="M5523.955,1041.557a.253.253,0,1,1,0-.505l77.072-.022a.253.253,0,1,1,0,.506Z" transform="translate(-5497.205 -957.301)"/>
        <path id="Path_2044" data-name="Path 2044" d="M5984.557,674.557h0a.253.253,0,0,1-.252-.253l.073-58.085a3.574,3.574,0,0,0-3.57-3.57l-10.627.172a.246.246,0,0,1-.257-.249.253.253,0,0,1,.249-.257l10.631-.172a4.081,4.081,0,0,1,4.08,4.076l-.073,58.085A.253.253,0,0,1,5984.557,674.557Z" transform="translate(-5862.533 -606.164)"/>
      </g>
    </g>
    <g id="Group_1134" data-name="Group 1134" transform="translate(1195.378 5434.533)">
      <g id="Group_1129" data-name="Group 1129" transform="translate(5.608)">
        <g id="Group_1128" data-name="Group 1128">
          <path id="Path_2045" data-name="Path 2045" d="M6001.144,946.93a58.692,58.692,0,0,1-2.81-33.167s10.213,8.558,6.531,33.167Z" transform="translate(-5996.919 -913.51)" fill="#caddff"/>
          <path id="Path_2046" data-name="Path 2046" d="M6003.757,946.041h-3.722a.252.252,0,0,1-.229-.148,48.076,48.076,0,0,1-2.84-9.618,61.162,61.162,0,0,1,.013-23.7.253.253,0,0,1,.41-.144c.106.089,2.626,2.24,4.719,7.455,1.921,4.788,3.81,13.175,1.9,25.943A.253.253,0,0,1,6003.757,946.041Zm-3.556-.506h3.338c1.836-12.51-.008-20.727-1.886-25.426a21.228,21.228,0,0,0-4.269-6.988,60.707,60.707,0,0,0,.073,23.039A49.159,49.159,0,0,0,6000.2,945.535Z" transform="translate(-5995.811 -912.368)"/>
        </g>
        <path id="Path_2047" data-name="Path 2047" d="M6010.129,955.682h-.014a.253.253,0,0,1-.239-.266c.5-9.227-3.658-28.928-3.7-29.126a.253.253,0,1,1,.494-.105c.042.2,4.218,19.966,3.71,29.259A.253.253,0,0,1,6010.129,955.682Z" transform="translate(-6004.293 -923.516)" fill="#fff"/>
      </g>
      <g id="Group_1131" data-name="Group 1131" transform="translate(11.18 9.685)">
        <g id="Group_1130" data-name="Group 1130">
          <path id="Path_2048" data-name="Path 2048" d="M6033.021,967.187s-8.489,15.339-3.382,21.976h2.73S6037.83,977.173,6033.021,967.187Z" transform="translate(-6027.741 -966.934)" fill="#fff"/>
          <path id="Path_2049" data-name="Path 2049" d="M6031.182,988.274h-2.731a.25.25,0,0,1-.2-.1c-2.172-2.822-2.261-7.434-.265-13.708a53.429,53.429,0,0,1,3.626-8.545.244.244,0,0,1,.229-.13.253.253,0,0,1,.221.143c2.513,5.219,2.2,10.977,1.5,14.887a34.176,34.176,0,0,1-2.147,7.3A.253.253,0,0,1,6031.182,988.274Zm-2.605-.506h2.439c.586-1.38,4.858-12.08.8-21.155C6030.5,969.158,6024.254,981.917,6028.576,987.769Z" transform="translate(-6026.552 -965.792)"/>
        </g>
        <path id="Path_2050" data-name="Path 2050" d="M6042.835,988.68a.253.253,0,0,1-.252-.243c-.246-6.337,2.086-22.269,2.11-22.429a.253.253,0,0,1,.5.074c-.023.16-2.349,16.045-2.1,22.336a.253.253,0,0,1-.243.262Z" transform="translate(-6039.662 -965.792)"/>
      </g>
      <g id="Group_1133" data-name="Group 1133" transform="translate(0 15.403)">
        <g id="Group_1132" data-name="Group 1132">
          <path id="Path_2051" data-name="Path 2051" d="M5966.272,998.73s7.232,2.467,9.851,17.076h-2.844S5967.342,1007.783,5966.272,998.73Z" transform="translate(-5966.02 -998.477)" fill="#fff"/>
          <path id="Path_2052" data-name="Path 2052" d="M5974.981,1014.917h-2.845a.252.252,0,0,1-.2-.1c-.06-.081-5.988-8.181-7.054-17.2a.252.252,0,0,1,.333-.269,10.666,10.666,0,0,1,4.052,3.133c1.969,2.253,4.6,6.535,5.966,14.138a.25.25,0,0,1-.055.207A.254.254,0,0,1,5974.981,1014.917Zm-2.715-.506h2.412c-2.249-12.108-7.731-15.649-9.24-16.409C5966.551,1006.163,5971.594,1013.467,5972.267,1014.411Z" transform="translate(-5964.878 -997.335)"/>
        </g>
        <path id="Path_2053" data-name="Path 2053" d="M5984.632,1030.138a.252.252,0,0,1-.249-.212c-1.074-6.489-5.724-13.031-5.771-13.1a.253.253,0,0,1,.411-.295c.048.066,4.766,6.7,5.859,13.309a.253.253,0,0,1-.208.291A.3.3,0,0,1,5984.632,1030.138Z" transform="translate(-5976.083 -1012.968)"/>
      </g>
      <path id="Path_2054" data-name="Path 2054" d="M5981.63,1086.528h17.842l.4,8.44a3.629,3.629,0,0,1-3.625,3.8h-10.19a4.435,4.435,0,0,1-4.435-4.439Z" transform="translate(-5978.587 -1054.956)" fill="#5479f7"/>
    </g>
    <g id="Group_1138" data-name="Group 1138" transform="translate(1102.045 5356.201)">
      <g id="Group_1135" data-name="Group 1135" transform="translate(21.382 120.158)">
        <path id="Path_2055" data-name="Path 2055" d="M5590.107,1174.459a57.726,57.726,0,0,1-19.791-3.464.253.253,0,1,1,.172-.475c14.811,5.378,31.813,4.337,46.647-2.857a.253.253,0,0,1,.221.455,62.509,62.509,0,0,1-23.287,6.211Q5592.081,1174.459,5590.107,1174.459Z" transform="translate(-5570.15 -1164.467)"/>
        <path id="Path_2056" data-name="Path 2056" d="M5618.69,1167.011a54.327,54.327,0,0,1-12.764-1.516.253.253,0,1,1,.119-.491,55.427,55.427,0,0,0,33.563-2.559.253.253,0,1,1,.186.47A57.261,57.261,0,0,1,5618.69,1167.011Z" transform="translate(-5599.283 -1160.2)"/>
        <path id="Path_2057" data-name="Path 2057" d="M5802.627,1152.534a1.193,1.193,0,1,1,.712-2.151,1.193,1.193,0,0,1-.538,2.139A1.217,1.217,0,0,1,5802.627,1152.534Zm0-1.881a.677.677,0,0,0-.1.008.688.688,0,0,0,.2,1.361.688.688,0,0,0,.581-.781.687.687,0,0,0-.679-.588Z" transform="translate(-5759.506 -1150.147)"/>
        <path id="Path_2058" data-name="Path 2058" d="M5831.758,1155.682a.252.252,0,0,1-.2-.1l-2.265-3.1a.253.253,0,0,1,.2-.4l3.776-.133a.256.256,0,0,1,.217.109.253.253,0,0,1,.025.241c-.007.016-.7,1.674-1.521,3.251a.253.253,0,0,1-.205.135Zm-1.779-3.115,1.742,2.382c.505-1,.94-1.975,1.161-2.484Z" transform="translate(-5782.272 -1151.62)"/>
      </g>
      <g id="Group_1136" data-name="Group 1136" transform="translate(94.659)">
        <path id="Path_2059" data-name="Path 2059" d="M6042.837,504.513a.25.25,0,0,1-.145-.046,56.114,56.114,0,0,0-9.667-5.43.253.253,0,0,1,.2-.463,56.625,56.625,0,0,1,9.754,5.479.252.252,0,0,1-.146.46Z" transform="translate(-6022.267 -496.518)"/>
        <path id="Path_2060" data-name="Path 2060" d="M6006.29,488.725a.254.254,0,0,1-.089-.016c-.825-.313-1.671-.612-2.515-.889a.253.253,0,0,1,.157-.48c.851.28,1.7.581,2.537.9a.253.253,0,0,1-.09.489Z" transform="translate(-5998.228 -487.326)"/>
        <path id="Path_2061" data-name="Path 2061" d="M5994.494,509.5a.253.253,0,0,1-.151-.05,51.919,51.919,0,0,0-19.781-9.022.253.253,0,0,1,.111-.493,52.414,52.414,0,0,1,19.973,9.111.253.253,0,0,1-.151.455Z" transform="translate(-5974.365 -497.645)"/>
      </g>
      <g id="Group_1137" data-name="Group 1137" transform="translate(0 6.311)">
        <path id="Path_2062" data-name="Path 2062" d="M5464.459,523.954a.253.253,0,0,1-.253-.253v-1.307a.253.253,0,0,1,.506,0V523.7A.253.253,0,0,1,5464.459,523.954Z" transform="translate(-5462.029 -522.141)"/>
        <path id="Path_2063" data-name="Path 2063" d="M5464.459,540.753a.253.253,0,0,1-.253-.253v-1.307a.253.253,0,0,1,.506,0V540.5A.253.253,0,0,1,5464.459,540.753Z" transform="translate(-5462.029 -535.895)"/>
        <path id="Path_2064" data-name="Path 2064" d="M5453.761,534.652h-1.308a.253.253,0,1,1,0-.506h1.308a.253.253,0,1,1,0,.506Z" transform="translate(-5452.2 -531.97)"/>
        <path id="Path_2065" data-name="Path 2065" d="M5470.561,534.652h-1.307a.253.253,0,1,1,0-.506h1.307a.253.253,0,1,1,0,.506Z" transform="translate(-5465.955 -531.97)"/>
      </g>
      <path id="Path_2066" data-name="Path 2066" d="M5486.44,514.268a1.381,1.381,0,0,1-.5-.095,1.4,1.4,0,0,1-.786-.761,1.441,1.441,0,0,1,.719-1.881h0a1.377,1.377,0,0,1,1.07-.028,1.4,1.4,0,0,1,.785.761,1.441,1.441,0,0,1-.719,1.881A1.38,1.38,0,0,1,5486.44,514.268Zm-.362-2.276a.934.934,0,0,0-.462,1.22.9.9,0,0,0,.5.49.874.874,0,0,0,.68-.018.934.934,0,0,0,.462-1.22.906.906,0,0,0-.5-.49.873.873,0,0,0-.68.018Z" transform="translate(-5479.082 -507.043)"/>
    </g>
    <g id="Group_1151" data-name="Group 1151" transform="translate(1113.871 5393.016)">
      <g id="Group_1139" data-name="Group 1139" transform="translate(0 36.488)">
        <path id="Path_2067" data-name="Path 2067" d="M5521.679,907.547l-1.975-.083a1.723,1.723,0,0,1-1.559-1.786l.021-17.031a1.639,1.639,0,0,1,1.619-1.722l1.954.072a1.72,1.72,0,0,1,1.566,1.783v17.044A1.637,1.637,0,0,1,5521.679,907.547Z" transform="translate(-5518.145 -886.924)" fill="#ebf3ff"/>
      </g>
      <g id="Group_1140" data-name="Group 1140" transform="translate(6.992 40.129)">
        <path id="Path_2068" data-name="Path 2068" d="M5560.25,924.123l-1.975-.083a1.723,1.723,0,0,1-1.559-1.786l.02-13.519a1.639,1.639,0,0,1,1.619-1.722l1.955.072a1.72,1.72,0,0,1,1.566,1.783V922.4A1.638,1.638,0,0,1,5560.25,924.123Z" transform="translate(-5556.716 -907.012)" fill="#ebf3ff"/>
      </g>
      <g id="Group_1141" data-name="Group 1141" transform="translate(13.983 27.185)">
        <path id="Path_2069" data-name="Path 2069" d="M5598.813,865.793l-1.976-.083a1.722,1.722,0,0,1-1.559-1.785l.021-26.594a1.639,1.639,0,0,1,1.619-1.723l1.954.072a1.721,1.721,0,0,1,1.566,1.783v26.606A1.637,1.637,0,0,1,5598.813,865.793Z" transform="translate(-5595.278 -835.609)" fill="#ebf3ff"/>
      </g>
      <g id="Group_1142" data-name="Group 1142" transform="translate(20.974 20.467)">
        <path id="Path_2070" data-name="Path 2070" d="M5637.38,835.585l-1.976-.083a1.722,1.722,0,0,1-1.559-1.785l.022-33.441a1.639,1.639,0,0,1,1.619-1.723l1.954.072a1.72,1.72,0,0,1,1.566,1.782v33.453A1.639,1.639,0,0,1,5637.38,835.585Z" transform="translate(-5633.845 -798.552)" fill="#ebf3ff"/>
      </g>
      <g id="Group_1143" data-name="Group 1143" transform="translate(27.966 15.505)">
        <path id="Path_2071" data-name="Path 2071" d="M5675.948,813.307l-1.976-.083a1.723,1.723,0,0,1-1.559-1.785l.023-38.533a1.639,1.639,0,0,1,1.619-1.723l1.953.072a1.72,1.72,0,0,1,1.566,1.782v38.545A1.638,1.638,0,0,1,5675.948,813.307Z" transform="translate(-5672.413 -771.182)" fill="#ebf3ff"/>
      </g>
      <g id="Group_1144" data-name="Group 1144" transform="translate(63.06 40.432)">
        <path id="Path_2072" data-name="Path 2072" d="M5869.531,925.794l-1.975-.083a1.723,1.723,0,0,1-1.559-1.786l.02-13.519a1.64,1.64,0,0,1,1.619-1.722l1.955.072a1.721,1.721,0,0,1,1.566,1.783v13.531A1.638,1.638,0,0,1,5869.531,925.794Z" transform="translate(-5865.998 -908.684)" fill="#ebf3ff"/>
      </g>
      <g id="Group_1145" data-name="Group 1145" transform="translate(70.051 27.488)">
        <path id="Path_2073" data-name="Path 2073" d="M5908.1,867.465l-1.976-.083a1.722,1.722,0,0,1-1.559-1.785l.022-26.593a1.639,1.639,0,0,1,1.619-1.723l1.954.072a1.721,1.721,0,0,1,1.566,1.783v26.606A1.637,1.637,0,0,1,5908.1,867.465Z" transform="translate(-5904.561 -837.281)" fill="#ebf3ff"/>
      </g>
      <g id="Group_1146" data-name="Group 1146" transform="translate(77.042 20.77)">
        <path id="Path_2074" data-name="Path 2074" d="M5946.663,837.257l-1.976-.083a1.723,1.723,0,0,1-1.559-1.785l.022-33.441a1.639,1.639,0,0,1,1.619-1.723l1.953.072a1.72,1.72,0,0,1,1.566,1.782v33.453A1.639,1.639,0,0,1,5946.663,837.257Z" transform="translate(-5943.128 -800.224)" fill="#ebf3ff"/>
      </g>
      <g id="Group_1147" data-name="Group 1147" transform="translate(34.958 26.796)">
        <path id="Path_2075" data-name="Path 2075" d="M5714.518,864.427l-1.976-.083a1.722,1.722,0,0,1-1.559-1.785l.021-27.372a1.639,1.639,0,0,1,1.619-1.723l1.954.072a1.721,1.721,0,0,1,1.566,1.784V862.7A1.638,1.638,0,0,1,5714.518,864.427Z" transform="translate(-5710.983 -833.464)" fill="#ebf3ff"/>
      </g>
      <g id="Group_1148" data-name="Group 1148" transform="translate(41.95 17.976)">
        <path id="Path_2076" data-name="Path 2076" d="M5753.085,824.724l-1.976-.083a1.723,1.723,0,0,1-1.559-1.785l.022-36.322a1.64,1.64,0,0,1,1.619-1.723l1.954.072a1.721,1.721,0,0,1,1.566,1.783V823A1.637,1.637,0,0,1,5753.085,824.724Z" transform="translate(-5749.55 -784.81)" fill="#ebf3ff"/>
      </g>
      <g id="Group_1149" data-name="Group 1149" transform="translate(48.941 7.198)">
        <path id="Path_2077" data-name="Path 2077" d="M5791.652,776.177l-1.976-.083a1.722,1.722,0,0,1-1.559-1.784l.023-47.23a1.64,1.64,0,0,1,1.619-1.724l1.953.072a1.721,1.721,0,0,1,1.566,1.783v47.243A1.637,1.637,0,0,1,5791.652,776.177Z" transform="translate(-5788.117 -725.356)" fill="#ebf3ff"/>
      </g>
      <g id="Group_1150" data-name="Group 1150" transform="translate(56.028)">
        <path id="Path_2078" data-name="Path 2078" d="M5830.743,743.8l-1.976-.083a1.722,1.722,0,0,1-1.559-1.784l.023-54.56a1.64,1.64,0,0,1,1.619-1.724l1.953.072a1.721,1.721,0,0,1,1.566,1.783v54.573A1.638,1.638,0,0,1,5830.743,743.8Z" transform="translate(-5827.208 -685.651)" fill="#ebf3ff"/>
      </g>
    </g>
    <g id="Group_1171" data-name="Group 1171" transform="translate(1083.859 5387.465)">
      <g id="Group_1160" data-name="Group 1160">
        <g id="Group_1152" data-name="Group 1152">
          <path id="Path_2079" data-name="Path 2079" d="M5384.123,675.027a6.472,6.472,0,0,0-6.373-1.777c-2.5.683-3.762,2.846-4.651,4.372-1.572,2.7-.813,3.674-2.048,5.24-2.188,2.775-7.5.938-10.081,3.069-6.21,5.121-2.825,13.584,2.679,17.58,3.671,2.664,8.665,1.123,10.023.7,4.123-1.272,10.955-3.765,11.617-9.719.445-4-3.642-7.212-1.446-10.549a9.352,9.352,0,0,0,1.437-2.143A6.614,6.614,0,0,0,5384.123,675.027Z" transform="translate(-5357.637 -668.865)"/>
          <path id="Path_2080" data-name="Path 2080" d="M5445.107,656.689c.939-.762.345-3.01-.256-4.222-.226-.454-1.234-2.488-2.56-2.409-1.362.081-2.667,2.367-2.18,4.179C5440.719,656.5,5444.006,657.582,5445.107,656.689Z" transform="translate(-5425.075 -650.056)"/>
        </g>
        <g id="Group_1153" data-name="Group 1153" transform="translate(3.644 19.486)">
          <path id="Path_2081" data-name="Path 2081" d="M5408.247,758.492a19.858,19.858,0,0,1,12.314.056,5.042,5.042,0,0,1,3.464,4.218l4.205,24.211c.208,1.76-2.144,3.471-3.8,4.1a22.682,22.682,0,0,1-8.054,1.277c-3.974,0-8.771-.023-10.383-.728l-.146-.066a5.448,5.448,0,0,1-3.09-5.432l.857-3.559a47.287,47.287,0,0,0,1.3-11.989l-.138-7.047A5.049,5.049,0,0,1,5408.247,758.492Z" transform="translate(-5398.202 -757.543)" fill="#5479f7"/>
          <path id="Path_2082" data-name="Path 2082" d="M5510.516,774.135s-3.356-9.3-7.121-10.191l1.914,13.174Z" transform="translate(-5480.615 -762.784)" fill="#5479f7"/>
          <path id="Path_2083" data-name="Path 2083" d="M5379.447,777.12a4.505,4.505,0,0,1-1.531-4.794c.46-1.583,1.042-3.491,1.549-4.87a9.116,9.116,0,0,1,6.721-6.109c.22-.053,2.708-.383,2.708-.383l-1.5,14.441-6.4,2.62Z" transform="translate(-5377.736 -760.343)" fill="#5479f7"/>
        </g>
        <path id="Path_2084" data-name="Path 2084" d="M5411.06,887.119a.253.253,0,0,1-.224-.371c1.339-2.543,4.035-4.289,7.8-5.049a22.31,22.31,0,0,1,8.061-.1,16.841,16.841,0,0,1,5.063,2.152.253.253,0,1,1-.275.424,16.639,16.639,0,0,0-4.885-2.08c-3.763-.743-12.458-.526-15.311,4.89A.252.252,0,0,1,5411.06,887.119Z" transform="translate(-5401.168 -839.363)"/>
        <g id="Group_1157" data-name="Group 1157" transform="translate(19.086 24.705)">
          <g id="Group_1155" data-name="Group 1155">
            <g id="Group_1154" data-name="Group 1154">
              <path id="Path_2085" data-name="Path 2085" d="M5465.225,801.2l16.484-.025a.908.908,0,0,0,.881-.692l2.8-11.63a.909.909,0,0,0-.884-1.127l-16.484.025a.909.909,0,0,0-.881.692l-2.8,11.631A.909.909,0,0,0,5465.225,801.2Z" transform="translate(-5464.061 -787.477)" fill="#99b9ff"/>
              <path id="Path_2086" data-name="Path 2086" d="M5464.081,800.315a1.163,1.163,0,0,1-1.128-1.44l2.8-11.629a1.16,1.16,0,0,1,1.126-.885l16.484-.025h0a1.162,1.162,0,0,1,1.128,1.44l-2.8,11.629a1.16,1.16,0,0,1-1.126.885l-16.484.025Zm19.281-13.474h0l-16.484.025a.655.655,0,0,0-.636.5l-2.8,11.629a.657.657,0,0,0,.637.815h0l16.484-.025a.656.656,0,0,0,.636-.5l2.8-11.629a.656.656,0,0,0-.637-.814Z" transform="translate(-5462.919 -786.336)"/>
            </g>
            <path id="Path_2087" data-name="Path 2087" d="M5519.642,818.976a1.218,1.218,0,1,1-.886-1.548A1.264,1.264,0,0,1,5519.642,818.976Z" transform="translate(-5507.391 -811.767)" fill="#fff"/>
          </g>
          <g id="Group_1156" data-name="Group 1156" transform="translate(15.278 5.382)">
            <path id="Path_2088" data-name="Path 2088" d="M5553.441,817.588l-.209.836a.577.577,0,0,1-.807.381l-2.788-1.322a.682.682,0,0,0-.941.4c-.262.794-.041,2.205,3.509,3.645,2.169.879,2.246-1.5,1.893-2.955A1.786,1.786,0,0,0,5553.441,817.588Z" transform="translate(-5548.36 -817.164)" fill="#fff"/>
            <path id="Path_2089" data-name="Path 2089" d="M5551.883,820.829a2.514,2.514,0,0,1-.935-.209c-3.616-1.465-3.983-2.961-3.654-3.958a.929.929,0,0,1,.517-.563.941.941,0,0,1,.773.015l2.788,1.322a.324.324,0,0,0,.453-.214l.21-.836a.253.253,0,0,1,.387-.148,2.038,2.038,0,0,1,.759,1.132c.257,1.057.3,2.518-.44,3.154A1.269,1.269,0,0,1,5551.883,820.829Zm-3.7-4.3a.435.435,0,0,0-.171.035.419.419,0,0,0-.236.256c-.369,1.119.826,2.3,3.364,3.331.57.231,1,.228,1.272-.009.525-.453.514-1.692.28-2.651a1.483,1.483,0,0,0-.272-.554l-.1.408a.83.83,0,0,1-1.161.548l-2.788-1.322A.438.438,0,0,0,5548.181,816.529Z" transform="translate(-5547.199 -816.023)"/>
          </g>
        </g>
        <g id="Group_1158" data-name="Group 1158" transform="translate(4.14 25.009)">
          <path id="Path_2090" data-name="Path 2090" d="M5392.851,791.089s-7.4,4.171-8.93,5.479-3.183,2.3-1.023,5.155c1.835,2.425,5.066.257,10.763-7.914a1.9,1.9,0,0,1,1.159-.722,2.478,2.478,0,0,0,1.783-2.079s2.7.383,2.938-.933l-4.056-.646a1.666,1.666,0,0,0-1.484.478Z" transform="translate(-5381.612 -789.151)" fill="#fff"/>
          <path id="Path_2091" data-name="Path 2091" d="M5383.447,801.77a2.319,2.319,0,0,1-1.888-1.036c-2.138-2.824-.691-4.033.708-5.2.117-.1.235-.2.353-.3,1.492-1.279,8.341-5.153,8.938-5.49l1.125-1.155a1.916,1.916,0,0,1,1.709-.551l4.052.645a.253.253,0,0,1,.209.295c-.236,1.305-2.308,1.227-3,1.163a2.657,2.657,0,0,1-1.914,2.05,1.643,1.643,0,0,0-1.007.62c-4.232,6.071-7.168,8.917-9.238,8.958Zm10.611-13.255a1.409,1.409,0,0,0-1.012.427l-1.151,1.181a.239.239,0,0,1-.057.044c-.074.042-7.4,4.174-8.889,5.451q-.179.153-.357.3c-1.384,1.156-2.476,2.069-.629,4.509a1.812,1.812,0,0,0,1.521.835c1.869-.037,4.758-2.9,8.833-8.741a2.14,2.14,0,0,1,1.312-.824c.537-.12,1.249-.546,1.592-1.894a.255.255,0,0,1,.281-.188c.022,0,2.054.265,2.555-.482l-3.748-.6A1.435,1.435,0,0,0,5394.058,788.515Zm-2.344,1.432h0Z" transform="translate(-5380.475 -788.009)"/>
        </g>
        <g id="Group_1159" data-name="Group 1159" transform="translate(14.678 8.517)">
          <path id="Path_2092" data-name="Path 2092" d="M5448.044,705.648a1.032,1.032,0,0,0,1.194-.2,6.022,6.022,0,0,0,.875-1.121l.453.009a.267.267,0,0,0,.271-.254l.078-1.767a3.284,3.284,0,0,0,.52-1.435,2.731,2.731,0,0,0-1.123-2.125,2.333,2.333,0,0,0-3.006.534c-.325.488-.852.839-1.172.782-.3-.053-.423-.31-.572-.577a.918.918,0,0,0-1.623-.178c-.669.795-.205,1.525.209,2.135.167.246-.013.929-.082,1.218l-.978,4.167a3.32,3.32,0,0,1-2.044,2.342l-1.047.4s1.156,3.508,5.787,3.409c3.534-.076,3.264-2.975,3.264-2.975l-.464-.2a2.777,2.777,0,0,1-1.588-3.153l.312-1.375Z" transform="translate(-5439.746 -698.188)" fill="#fff"/>
          <path id="Path_2093" data-name="Path 2093" d="M5444.454,712.092a5.9,5.9,0,0,1-5.837-3.585.253.253,0,0,1,.15-.315l1.046-.4a3.065,3.065,0,0,0,1.889-2.163l.994-4.236c.169-.706.137-.9.1-.95a1.86,1.86,0,0,1-.194-2.44,1.192,1.192,0,0,1,1.04-.505,1.368,1.368,0,0,1,1,.723l.028.052c.134.243.211.372.367.4a1.353,1.353,0,0,0,.917-.673,2.558,2.558,0,0,1,3.328-.621,2.978,2.978,0,0,1,1.264,2.373,3.5,3.5,0,0,1-.522,1.49l-.075,1.7a.523.523,0,0,1-.519.5h-.011l-.309-.006a6.3,6.3,0,0,1-.835,1.043,1.284,1.284,0,0,1-1.487.247h0l-.445-.223-.24,1.06a2.529,2.529,0,0,0,1.443,2.866l.464.2a.253.253,0,0,1,.15.208,3.1,3.1,0,0,1-.73,2.181,3.662,3.662,0,0,1-2.78,1.07Zm-5.268-3.519a5.4,5.4,0,0,0,5.264,3.014l.188,0a3.185,3.185,0,0,0,2.413-.9,2.58,2.58,0,0,0,.608-1.654l-.318-.14a3.033,3.033,0,0,1-1.731-3.44l.311-1.375a.253.253,0,0,1,.36-.17l.733.367a.779.779,0,0,0,.9-.151,5.8,5.8,0,0,0,.839-1.074.259.259,0,0,1,.221-.121l.453.009a.013.013,0,0,0,.013-.013l.078-1.767a.253.253,0,0,1,.037-.121,3.049,3.049,0,0,0,.483-1.324,2.525,2.525,0,0,0-.981-1.877,2.1,2.1,0,0,0-2.685.447c-.33.5-.944.976-1.426.891a1.052,1.052,0,0,1-.721-.653l-.028-.05a.872.872,0,0,0-.6-.466.728.728,0,0,0-.6.327c-.522.621-.222,1.173.226,1.83a1.925,1.925,0,0,1-.029,1.352l-.016.067-.978,4.167a3.57,3.57,0,0,1-2.2,2.52Z" transform="translate(-5438.604 -697.037)"/>
        </g>
      </g>
      <g id="Group_1170" data-name="Group 1170" transform="translate(11.15 44.669)">
        <g id="Group_1164" data-name="Group 1164" transform="translate(6.913 43.689)">
          <g id="Group_1161" data-name="Group 1161" transform="translate(1.963)">
            <path id="Path_2094" data-name="Path 2094" d="M5471.956,1138.849l-2.455,7.324s2.674-.228,2.93-.178,3.383-6.68,3.383-6.68Z" transform="translate(-5469.248 -1138.596)" fill="#fff"/>
            <path id="Path_2095" data-name="Path 2095" d="M5468.359,1145.284a.252.252,0,0,1-.239-.333l2.455-7.324a.251.251,0,0,1,.269-.171l3.858.467a.25.25,0,0,1,.19.128.255.255,0,0,1,.009.229c-.008.017-.792,1.7-1.6,3.363-1.713,3.527-1.815,3.507-2.063,3.458-.173-.024-1.59.074-2.859.182Zm2.629-7.3-2.268,6.764c.806-.066,2.033-.159,2.478-.152.392-.531,2.024-3.915,3.1-6.213Zm.349,6.622Zm-.011,0,.011,0Z" transform="translate(-5468.107 -1137.455)"/>
          </g>
          <g id="Group_1163" data-name="Group 1163" transform="translate(0 4.257)">
            <g id="Group_1162" data-name="Group 1162">
              <path id="Path_2096" data-name="Path 2096" d="M5461.2,1163.779s3.691-1.513,4.375.386c.868,2.416,2.226,6.1,2.226,6.1a1.034,1.034,0,0,1-.892,1.38,13.716,13.716,0,0,1-4.3-.133c-1.48-.519-3.936-5.2-3.936-5.2l.757-3.985A1.667,1.667,0,0,1,5461.2,1163.779Z" transform="translate(-5458.417 -1162.069)" fill="#99b9ff"/>
              <path id="Path_2097" data-name="Path 2097" d="M5463.59,1170.866a7.432,7.432,0,0,1-2.21-.245c-1.53-.536-3.819-4.836-4.075-5.325a.25.25,0,0,1-.025-.164l.757-3.985a.252.252,0,0,1,.212-.2,1.89,1.89,0,0,1,1.967,1.372c.667-.239,2.458-.789,3.588-.287a1.545,1.545,0,0,1,.861.919c.858,2.387,2.212,6.063,2.226,6.1a1.287,1.287,0,0,1-1.108,1.72C5465.106,1170.821,5464.328,1170.866,5463.59,1170.866Zm-5.8-5.727c.707,1.333,2.64,4.614,3.754,5a12.679,12.679,0,0,0,4.195.119.782.782,0,0,0,.674-1.043c-.013-.035-1.367-3.713-2.226-6.1a1.046,1.046,0,0,0-.591-.628c-1.182-.526-3.427.381-3.45.39a.253.253,0,0,1-.34-.17,1.465,1.465,0,0,0-1.314-1.269Z" transform="translate(-5457.275 -1160.936)"/>
            </g>
            <path id="Path_2098" data-name="Path 2098" d="M5485.528,1204.084h-3.792a.253.253,0,0,1,0-.505h3.792a.253.253,0,1,1,0,.505Z" transform="translate(-5477.096 -1195.849)"/>
          </g>
        </g>
        <g id="Group_1168" data-name="Group 1168" transform="translate(3.71 45.297)">
          <g id="Group_1165" data-name="Group 1165" transform="translate(0.661)">
            <path id="Path_2099" data-name="Path 2099" d="M5444.646,1147.913l.834,7.367,3.355-.92-.258-6.638Z" transform="translate(-5444.394 -1147.469)" fill="#fff"/>
            <path id="Path_2100" data-name="Path 2100" d="M5444.339,1154.392a.255.255,0,0,1-.142-.043.252.252,0,0,1-.109-.181l-.834-7.368a.252.252,0,0,1,.239-.281l3.931-.191a.253.253,0,0,1,.265.243l.259,6.638a.255.255,0,0,1-.186.254l-3.355.92A.255.255,0,0,1,5444.339,1154.392Zm-.552-7.381.77,6.806,2.877-.789-.241-6.183Z" transform="translate(-5443.252 -1146.328)"/>
          </g>
          <g id="Group_1167" data-name="Group 1167" transform="translate(0 5.235)">
            <g id="Group_1166" data-name="Group 1166">
              <path id="Path_2101" data-name="Path 2101" d="M5442.181,1184.353h5.309a1.177,1.177,0,0,0,1.166-1.349,15.7,15.7,0,0,0-2.486-5.923,1.034,1.034,0,0,0-.873-.48h-1.614a.544.544,0,0,0-.542.487l-.122,1.165-.489-.5a.367.367,0,0,0-.612.14,18.618,18.618,0,0,0-.916,5.262A1.178,1.178,0,0,0,5442.181,1184.353Z" transform="translate(-5440.75 -1176.349)" fill="#99b9ff"/>
              <path id="Path_2102" data-name="Path 2102" d="M5446.347,1183.464h-5.309a1.431,1.431,0,0,1-1.431-1.456,18.813,18.813,0,0,1,.928-5.336.62.62,0,0,1,1.033-.238l.112.115.066-.628a.8.8,0,0,1,.792-.714h1.614a1.278,1.278,0,0,1,1.086.6,15.922,15.922,0,0,1,2.522,6.021,1.429,1.429,0,0,1-1.415,1.638Zm-5.222-6.713a.129.129,0,0,0-.027,0,.11.11,0,0,0-.082.075,18.317,18.317,0,0,0-.9,5.188.926.926,0,0,0,.925.941h5.309a.924.924,0,0,0,.915-1.059,15.438,15.438,0,0,0-2.449-5.824.786.786,0,0,0-.659-.363h-1.614a.29.29,0,0,0-.29.261l-.122,1.165a.253.253,0,0,1-.433.15l-.489-.5A.111.111,0,0,0,5441.125,1176.751Z" transform="translate(-5439.607 -1175.207)"/>
            </g>
            <path id="Path_2103" data-name="Path 2103" d="M5451.391,1211.471h-5.376a.253.253,0,0,1,0-.506h5.376a.253.253,0,0,1,0,.506Z" transform="translate(-5444.646 -1204.483)"/>
          </g>
        </g>
        <g id="Group_1169" data-name="Group 1169">
          <path id="Path_2104" data-name="Path 2104" d="M5436.368,897.953a1.233,1.233,0,0,0-.771-.71,18.914,18.914,0,0,0-15.676,2.255,1.237,1.237,0,0,0-.567.954,142.292,142.292,0,0,0,4.664,43.964l3.944-.281.8-37.47s5.843,13.737,1.092,35.6l4.1.757a41.761,41.761,0,0,0,7.078-19.956C5441.989,912.393,5437.432,900.545,5436.368,897.953Z" transform="translate(-5419.143 -896.458)"/>
          <path id="Path_2105" data-name="Path 2105" d="M5432.756,1040.46h-.011c-3.731-.161-4.151-5.216-4.155-5.267a.253.253,0,1,1,.5-.038c0,.047.391,4.658,3.673,4.8a.253.253,0,0,1-.011.505Z" transform="translate(-5426.877 -1009.82)" fill="#caddff"/>
          <path id="Path_2106" data-name="Path 2106" d="M5472.494,941.843a.253.253,0,0,1-.252-.245l-.105-3.56a2.34,2.34,0,0,1,1-1.99l1.536-1.08a.253.253,0,1,1,.291.414l-1.536,1.08a1.837,1.837,0,0,0-.782,1.562l.105,3.56a.253.253,0,0,1-.245.26Z" transform="translate(-5462.528 -927.949)" fill="#caddff"/>
        </g>
      </g>
    </g>
    <g id="Group_1173" data-name="Group 1173" transform="translate(1119.765 5404.662)">
      <path id="Path_2107" data-name="Path 2107" d="M5571.636,872.017c-.284,0-.572,0-.854-.011a.253.253,0,1,1,.014-.505c.661.018,1.336.014,2.005-.01a.253.253,0,0,1,.019.505C5572.425,872.01,5572.027,872.017,5571.636,872.017Zm-2.866-.129h-.023c-.674-.061-1.355-.146-2.023-.25a.253.253,0,0,1,.078-.5c.658.1,1.327.186,1.991.246a.253.253,0,0,1-.023.5Zm6.055-.027a.253.253,0,0,1-.024-.5c.658-.064,1.327-.149,1.991-.253a.253.253,0,1,1,.078.5c-.672.105-1.352.192-2.02.256Zm-10.049-.6a.261.261,0,0,1-.056-.006c-.658-.147-1.322-.319-1.974-.509a.253.253,0,0,1,.143-.485c.641.187,1.294.356,1.942.5a.253.253,0,0,1-.055.5Zm14.042-.024a.253.253,0,0,1-.053-.5c.646-.138,1.3-.3,1.952-.472a.253.253,0,1,1,.132.488c-.658.178-1.323.339-1.979.479A.25.25,0,0,1,5578.818,871.238Zm3.9-1.051a.253.253,0,0,1-.078-.493c.628-.2,1.267-.427,1.9-.665a.253.253,0,1,1,.179.473c-.639.24-1.285.466-1.92.672A.249.249,0,0,1,5582.723,870.187Zm-21.826-.059a.256.256,0,0,1-.089-.016,14.443,14.443,0,0,1-1.868-.858.253.253,0,0,1,.244-.443,13.852,13.852,0,0,0,1.8.828.253.253,0,0,1-.089.49Zm25.612-1.364a.253.253,0,0,1-.1-.485c.609-.26,1.225-.539,1.834-.83a.253.253,0,1,1,.218.456c-.615.294-1.238.575-1.853.838A.249.249,0,0,1,5586.508,868.764Zm-29.147-.569a.251.251,0,0,1-.15-.05,16.208,16.208,0,0,1-1.567-1.325.253.253,0,1,1,.35-.365,15.763,15.763,0,0,0,1.519,1.284.253.253,0,0,1-.15.456Zm32.8-1.172a.253.253,0,0,1-.118-.477c.585-.307,1.179-.634,1.766-.97a.253.253,0,1,1,.251.439c-.592.34-1.191.669-1.781.979A.254.254,0,0,1,5590.16,867.023Zm-35.715-1.616a.252.252,0,0,1-.2-.092,18.485,18.485,0,0,1-1.212-1.654.253.253,0,1,1,.424-.276,18.126,18.126,0,0,0,1.178,1.608.253.253,0,0,1-.194.413Zm39.227-.4a.253.253,0,0,1-.133-.468c.563-.349,1.133-.715,1.7-1.09a.253.253,0,0,1,.28.421c-.567.378-1.143.747-1.71,1.1A.251.251,0,0,1,5593.672,865.011Zm3.37-2.242a.253.253,0,0,1-.147-.459c.542-.385,1.089-.787,1.627-1.193a.253.253,0,0,1,.3.4c-.542.41-1.093.814-1.639,1.2A.25.25,0,0,1,5597.042,862.768Zm-44.8-.744a.253.253,0,0,1-.226-.138,19.494,19.494,0,0,1-.832-1.872.253.253,0,1,1,.472-.181,19.055,19.055,0,0,0,.81,1.823.253.253,0,0,1-.11.34A.256.256,0,0,1,5552.24,862.024Zm48.032-1.7a.253.253,0,0,1-.158-.45c.521-.417,1.044-.849,1.557-1.284a.253.253,0,1,1,.327.386c-.516.438-1.044.873-1.568,1.293A.249.249,0,0,1,5600.272,860.326Zm-49.477-2.072a.253.253,0,0,1-.244-.188,18.907,18.907,0,0,1-.42-2,.253.253,0,0,1,.5-.076,18.4,18.4,0,0,0,.408,1.951.252.252,0,0,1-.179.309A.257.257,0,0,1,5550.8,858.254Zm52.567-.546a.253.253,0,0,1-.169-.441c.5-.448,1-.907,1.487-1.366a.253.253,0,0,1,.347.368c-.49.461-.994.924-1.5,1.375A.251.251,0,0,1,5603.363,857.708Zm2.948-2.78a.253.253,0,0,1-.178-.432c.484-.481.958-.967,1.412-1.444a.253.253,0,0,1,.367.348c-.457.481-.936.97-1.422,1.454A.252.252,0,0,1,5606.312,854.928Zm-56.12-.663a.252.252,0,0,1-.252-.244c-.008-.2-.011-.4-.011-.6,0-.487.021-.976.064-1.452a.253.253,0,0,1,.5.046c-.042.461-.063.935-.063,1.406q0,.29.011.582a.253.253,0,0,1-.244.262Zm58.91-2.279a.253.253,0,0,1-.189-.421c.516-.581.792-.919.794-.922l.2.158h0l.23-.1c.076.168.076.168-.843,1.2A.253.253,0,0,1,5609.1,851.986Z" transform="translate(-5549.929 -832.349)" fill="#5479f7"/>
      <g id="Group_1172" data-name="Group 1172" transform="translate(50.003)">
        <path id="Path_2108" data-name="Path 2108" d="M5825.76,758.088l20.361,7.16,15.588-15.524Z" transform="translate(-5825.76 -749.725)" fill="#5479f7"/>
        <path id="Path_2109" data-name="Path 2109" d="M5868.518,787.051l-2.471-7.712,19.673-6.8-16.094,8.054,4.256,1.5Z" transform="translate(-5858.744 -768.407)" fill="#99b9ff"/>
        <path id="Path_2110" data-name="Path 2110" d="M5882.1,822.805a.257.257,0,0,1-.042,0,.235.235,0,0,1-.19-.272l.6-3.36a.235.235,0,1,1,.462.082l-.6,3.359A.235.235,0,0,1,5882.1,822.805Z" transform="translate(-5871.692 -806.422)" fill="#caddff"/>
      </g>
    </g>
  </g>
</svg>
