<svg xmlns="http://www.w3.org/2000/svg" width="190" height="190" viewBox="0 0 190 190">
  <g id="Group_1269" data-name="Group 1269" transform="translate(-5708.304 -1953.483)">
    <circle id="Ellipse_67" data-name="Ellipse 67" cx="95" cy="95" r="95" transform="translate(5708.304 1953.483)" fill="#ebf3ff"/>
    <g id="Group_1268" data-name="Group 1268">
      <g id="Group_1248" data-name="Group 1248">
        <g id="Group_1246" data-name="Group 1246">
          <path id="Path_2242" data-name="Path 2242" d="M5799.637,2109.183c-1.848-2.039,8.658-6.949,7.809-14.626-.775-7.014-10.106-7.982-10.424-14.443-.34-6.914,10.176-9.233,9.54-16.254-.49-5.411-6.882-5.649-7.923-11.39-1.251-6.9,7.6-8.638,9.662-18.085,1.928-8.824-4.682-12.375-.754-19.581.512-.938,3.721-6.557,8.948-7.112,8.5-.9,20.751,11.762,20.212,23.737-.454,10.084-9.634,12.134-9.212,22.763.358,9.01,7.048,9.912,5.551,17.062-1.771,8.462-11.731,10.025-12.946,19.49-.635,4.958,1.9,6.092.235,9.71C5816.824,2108.094,5801.674,2111.43,5799.637,2109.183Z" fill="#99b9ff"/>
          <path id="Path_2243" data-name="Path 2243" d="M5802.965,2107.657a.233.233,0,0,1-.218-.146.236.236,0,0,1,.128-.308c6.272-2.589,10.079-5.752,11.314-9.4.917-2.709.051-4.794-.865-7-.981-2.362-2-4.8-1.169-8.306.871-3.693,2.856-5.482,4.775-7.211,1.756-1.583,3.415-3.078,3.938-5.95.739-4.062-1.521-6.625-3.914-9.339-2.345-2.659-4.77-5.409-4.309-9.705.37-3.455,2.366-5.6,4.48-7.863,2.295-2.462,4.669-5.008,5.515-9.578a18.646,18.646,0,0,0-1.26-10.558.236.236,0,0,1,.437-.178,19.113,19.113,0,0,1,1.287,10.822c-.871,4.7-3.4,7.419-5.634,9.814-2.059,2.208-4,4.293-4.356,7.592-.438,4.089,1.917,6.759,4.2,9.342,2.361,2.679,4.8,5.448,4.023,9.735-.551,3.031-2.269,4.578-4.086,6.217-1.866,1.681-3.794,3.419-4.632,6.968-.791,3.354.194,5.724,1.146,8.017s1.85,4.456.876,7.334c-1.281,3.783-5.177,7.041-11.581,9.685A.234.234,0,0,1,5802.965,2107.657Z" fill="#caddff"/>
        </g>
        <g id="Group_1247" data-name="Group 1247">
          <path id="Path_2244" data-name="Path 2244" d="M5803.727,2117.919c-.693-1.255,6.4-3.873,11.679-13.637,3.194-5.913,4.121-11.486,4.948-16.714,2.045-12.936-.807-15.174,2.05-21.368,3.429-7.433,8.814-5.184,13.948-12.986,6.333-9.622.323-16.359,6.915-25.106,3.6-4.779,10.361-9.354,16.8-7.913,3.9.872,8.177,4.06,8.633,7.914.44,3.72-3.009,5.29-5.382,10.085-4.237,8.562,2.143,12.878-.279,21.384-3.287,11.544-17.013,10.53-21.58,24.346-1.839,5.565.235,6.192-1.362,11.491C5834.705,2113.3,5805.1,2120.4,5803.727,2117.919Z" fill="#99b9ff"/>
          <path id="Path_2245" data-name="Path 2245" d="M5808.889,2116.9a.236.236,0,0,1-.111-.444c10.3-5.469,16.459-11.976,18.317-19.341a31.925,31.925,0,0,0,.562-9.752c-.233-4.747-.453-9.231,2.923-14.131a20.558,20.558,0,0,1,7.607-6.427c2.88-1.64,5.366-3.055,6.876-6.929,1.052-2.7.892-4.7.689-7.233a30.934,30.934,0,0,1,.424-9.517,37.673,37.673,0,0,1,4.72-12.06.236.236,0,1,1,.4.243,37.161,37.161,0,0,0-4.662,11.909,30.459,30.459,0,0,0-.416,9.387,15.061,15.061,0,0,1-.721,7.443c-1.569,4.029-4.247,5.553-7.081,7.167a19.906,19.906,0,0,0-7.452,6.284c-3.286,4.77-3.069,9.176-2.84,13.841a32.275,32.275,0,0,1-.576,9.89,23.341,23.341,0,0,1-5.132,9.535A46.245,46.245,0,0,1,5809,2116.871.233.233,0,0,1,5808.889,2116.9Z" fill="#caddff"/>
        </g>
      </g>
      <g id="Group_1261" data-name="Group 1261">
        <g id="Group_1251" data-name="Group 1251">
          <g id="Group_1250" data-name="Group 1250">
            <path id="Path_2246" data-name="Path 2246" d="M5759.272,2119.955h60.763a4.083,4.083,0,0,0,4.143-4.726l-14.962-118.2a5.532,5.532,0,0,0-5.339-4.726l-57.713-.675c-6.625,0-7.524,2.79-7.194,5.4l14.962,118.2A5.534,5.534,0,0,0,5759.272,2119.955Z"/>
            <path id="Path_2247" data-name="Path 2247" d="M5762.928,2119.955h60.763a4.09,4.09,0,0,0,4.143-4.741l-14.962-118.575a5.54,5.54,0,0,0-5.339-4.741H5746.77a4.09,4.09,0,0,0-4.143,4.741l14.962,118.575A5.54,5.54,0,0,0,5762.928,2119.955Z" fill="#99b9ff"/>
            <g id="Group_1249" data-name="Group 1249">
              <path id="Path_2248" data-name="Path 2248" d="M5824.372,2115.377l-14.286-113.219a1.28,1.28,0,0,0-1.233-1.094h-61.09a.945.945,0,0,0-.957,1.1l14.286,113.218a1.281,1.281,0,0,0,1.233,1.095h61.09A.945.945,0,0,0,5824.372,2115.377Z" fill="#caddff"/>
              <path id="Path_2249" data-name="Path 2249" d="M5823.415,2116.708h-61.09a1.524,1.524,0,0,1-1.467-1.3l-14.286-113.219a1.206,1.206,0,0,1,.283-.962,1.187,1.187,0,0,1,.908-.4h61.09a1.524,1.524,0,0,1,1.467,1.3l14.286,113.219a1.2,1.2,0,0,1-.283.962A1.192,1.192,0,0,1,5823.415,2116.708ZM5747.763,2001.3a.723.723,0,0,0-.554.238.736.736,0,0,0-.168.591l14.286,113.219a1.037,1.037,0,0,0,1,.888h61.09a.726.726,0,0,0,.554-.238.743.743,0,0,0,.169-.591l-14.287-113.219a1.037,1.037,0,0,0-1-.888Z" fill="#5479f7"/>
            </g>
            <path id="Path_2250" data-name="Path 2250" d="M5777.912,1997.929a1.532,1.532,0,0,0,1.552-1.776,2.074,2.074,0,0,0-2-1.776,1.532,1.532,0,0,0-1.552,1.776A2.075,2.075,0,0,0,5777.912,1997.929Z" fill="#caddff"/>
            <path id="Path_2251" data-name="Path 2251" d="M5818.664,2042.775a.236.236,0,0,1-.234-.207l-1.755-13.909a.236.236,0,0,1,.468-.059l1.755,13.909a.235.235,0,0,1-.2.264Z"/>
            <path id="Path_2252" data-name="Path 2252" d="M5823.691,2120.191h-60.763a5.791,5.791,0,0,1-5.574-4.948l-14.961-118.574a4.441,4.441,0,0,1,1.034-3.552,4.378,4.378,0,0,1,3.343-1.455h60.763a5.79,5.79,0,0,1,5.574,4.948l.846,6.708a.236.236,0,1,1-.468.059l-.847-6.708a5.3,5.3,0,0,0-5.1-4.535H5746.77a3.911,3.911,0,0,0-2.989,1.3,3.978,3.978,0,0,0-.92,3.18l14.962,118.574a5.3,5.3,0,0,0,5.1,4.535h60.763a3.914,3.914,0,0,0,2.989-1.295,3.982,3.982,0,0,0,.92-3.181l-3.673-29.108a.236.236,0,0,1,.469-.059l3.672,29.108a4.441,4.441,0,0,1-1.034,3.552A4.378,4.378,0,0,1,5823.691,2120.191Z"/>
          </g>
        </g>
        <g id="Group_1260" data-name="Group 1260">
          <path id="Path_2253" data-name="Path 2253" d="M5810,2004.3c3.068.124,6.006,3.362,4.858,7.773-.937,3.6-4.944,4.021-7.058,5.654-6.839,5.283-10.7,24.289-20.364,28.451-7.715,3.32-22.615.595-28.4-9.1-5.506-9.224-4.94-21.48,3.22-25.972,7.335-4.039,12.49,5.174,20.192,1.532,7.593-3.59,7.964-7.333,12.395-8.99C5799.6,2001.864,5801.309,2003.95,5810,2004.3Z"/>
          <g id="Group_1252" data-name="Group 1252">
            <path id="Path_2254" data-name="Path 2254" d="M5808.968,2090.01a60.143,60.143,0,0,0,11.42-3.819c3.732-1.719,8.025-4.974,8.949-5.059a14.831,14.831,0,0,1,2.637.024c2.832.246,4.992,1.111,11.149-4.061,6.989-5.87-5.569-1.887-5.569-1.887a16.191,16.191,0,0,0,2.17-2.928c.239-.854-.169-1.444-2.029-.265-2.953,1.872-2.236,2.455-4.979,3.6a58.971,58.971,0,0,1-15.712,3.3,62.675,62.675,0,0,1-12.262-.681S5802.233,2091.554,5808.968,2090.01Z" fill="#fff"/>
            <path id="Path_2255" data-name="Path 2255" d="M5807.943,2090.37a3.054,3.054,0,0,1-2.2-.853c-2.821-2.713-1.3-10.98-1.235-11.331a.235.235,0,0,1,.272-.189,62.946,62.946,0,0,0,12.21.679,58.683,58.683,0,0,0,15.632-3.283,6.3,6.3,0,0,0,2.5-1.633,12.632,12.632,0,0,1,2.447-1.944c1.066-.676,1.779-.86,2.18-.562.271.2.342.588.2,1.09a10.651,10.651,0,0,1-1.686,2.405c.681-.2,1.725-.482,2.791-.711,3.415-.732,4.109-.274,4.333.134.341.62-.33,1.606-2.114,3.1-5.639,4.737-8.011,4.475-10.521,4.2-.264-.029-.529-.058-.8-.082a14.545,14.545,0,0,0-2.594-.024,15.949,15.949,0,0,0-3.033,1.7,54.76,54.76,0,0,1-5.839,3.335,59.043,59.043,0,0,1-11.414,3.823l-.052.012A4.83,4.83,0,0,1,5807.943,2090.37Zm1.025-.36h0Zm-4.033-11.51c-.225,1.355-1.253,8.377,1.139,10.677a2.893,2.893,0,0,0,2.842.6l.052-.012a58.663,58.663,0,0,0,11.322-3.791,54.465,54.465,0,0,0,5.785-3.307,12.745,12.745,0,0,1,3.241-1.773,15.021,15.021,0,0,1,2.678.024c.276.024.545.053.812.083,2.406.266,4.681.518,10.166-4.089,2.15-1.806,2.077-2.382,2-2.516-.419-.762-4.551.146-7.351,1.034a.236.236,0,0,1-.247-.382,14.432,14.432,0,0,0,2.119-2.834c.08-.287.069-.511-.03-.584-.056-.042-.4-.21-1.646.581a12.152,12.152,0,0,0-2.367,1.881,6.751,6.751,0,0,1-2.648,1.734,59.223,59.223,0,0,1-15.79,3.318A63.927,63.927,0,0,1,5804.935,2078.5Z"/>
          </g>
          <g id="Group_1253" data-name="Group 1253">
            <path id="Path_2256" data-name="Path 2256" d="M5766.568,2054.458c-1.66,4.166-4.222,12.613-5.4,16.6a1.923,1.923,0,0,0,1.6,2.455l13.932,1.743s5.046,15.049-12,40.942l-.042.275,50.876-.1.193-.168s-1.143-13.8-1.143-17.863c0-4.812-.6-14.335.5-20.386s6.876-8.113,6.876-8.113.581-17.02-3.438-21.176C5808.638,2038.436,5774.289,2035.077,5766.568,2054.458Z" fill="#5479f7"/>
            <path id="Path_2257" data-name="Path 2257" d="M5815.776,2116.012a.236.236,0,0,1-.235-.216c-.012-.135-1.193-13.57-1.193-17.461,0-1.112-.031-2.449-.067-4-.117-4.962-.276-11.759.573-16.431,1.011-5.557,5.942-7.846,6.876-8.233.044-1.71.327-17.021-3.376-20.85-2.9-2.994-8.118-5.519-14.33-6.928a47.641,47.641,0,0,0-19.307-.438c-6.3,1.242-14.517,4.52-17.93,13.088-1.7,4.263-4.376,13.13-5.448,16.745a1.468,1.468,0,0,0,1.284,1.88l13.883,1.176a.236.236,0,0,1,.2.16c.054.16,1.3,4,.528,11.035-.712,6.469-3.365,16.959-11.954,30.192a.236.236,0,0,1-.4-.257c8.527-13.136,11.165-23.538,11.877-29.95a29.314,29.314,0,0,0-.459-10.723l-13.722-1.162a1.94,1.94,0,0,1-1.7-2.485c1.074-3.621,3.756-12.5,5.461-16.786,3.492-8.765,11.867-12.112,18.278-13.376a48.12,48.12,0,0,1,19.5.441c6.3,1.428,11.607,4,14.565,7.06,4.041,4.18,3.527,20.649,3.5,21.348a.24.24,0,0,1-.157.215c-.056.02-5.661,2.092-6.723,7.933-.84,4.624-.682,11.393-.565,16.335.036,1.551.067,2.89.067,4.008,0,3.871,1.179,17.285,1.191,17.42a.236.236,0,0,1-.214.256Z"/>
            <path id="Path_2258" data-name="Path 2258" d="M5778.136,2069.957a.233.233,0,0,1-.143-.049c-2.009-1.536-9.2-4.494-13.508-2.053a.236.236,0,0,1-.232-.411c4.491-2.547,11.95.5,14.027,2.089a.236.236,0,0,1-.144.424Z"/>
          </g>
          <g id="Group_1256" data-name="Group 1256">
            <path id="Path_2259" data-name="Path 2259" d="M5838.708,2075.108l-12.911-6.1.145-24.406,15.352,6.757Z" fill="#fff"/>
            <path id="Path_2260" data-name="Path 2260" d="M5804.455,2075.388l26.079-6.927-4.592-23.855-21.487,6.706Z" fill="#fff"/>
            <g id="Group_1254" data-name="Group 1254">
              <path id="Path_2261" data-name="Path 2261" d="M5819.856,2081.929l21.3-6.63.14-23.936-21.3,6.63Z" fill="#caddff"/>
              <path id="Path_2262" data-name="Path 2262" d="M5819.856,2082.165a.237.237,0,0,1-.141-.047.233.233,0,0,1-.095-.191l.14-23.936a.237.237,0,0,1,.166-.224l21.3-6.63a.236.236,0,0,1,.306.227l-.14,23.936a.234.234,0,0,1-.165.224l-21.3,6.63A.248.248,0,0,1,5819.856,2082.165Zm.375-24-.137,23.441,20.824-6.482.138-23.441Z"/>
            </g>
            <g id="Group_1255" data-name="Group 1255">
              <path id="Path_2263" data-name="Path 2263" d="M5819.979,2081.929l-15.715-6.338v-24.076l15.715,6.338Z" fill="#99b9ff"/>
              <path id="Path_2264" data-name="Path 2264" d="M5819.979,2082.165a.232.232,0,0,1-.089-.018l-15.714-6.338a.237.237,0,0,1-.148-.219v-24.076a.236.236,0,0,1,.325-.219l15.714,6.338a.237.237,0,0,1,.148.219v24.077a.237.237,0,0,1-.236.236Zm-15.479-6.734,15.243,6.148v-23.567l-15.243-6.148Z"/>
            </g>
            <path id="Path_2265" data-name="Path 2265" d="M5804.264,2051.75a.236.236,0,0,1-.071-.461l21.677-6.908a.232.232,0,0,1,.166.009l15.353,6.757a.236.236,0,0,1-.191.432l-15.27-6.721-21.592,6.881A.252.252,0,0,1,5804.264,2051.75Z"/>
            <path id="Path_2266" data-name="Path 2266" d="M5828.692,2055.523l.013,4.752,4.358-1.286-.013-4.8Z" fill="#99b9ff"/>
            <path id="Path_2267" data-name="Path 2267" d="M5828.633,2055.05l-2.56-1.536,3.82-1.339,2.953,1.575Z" fill="#99b9ff"/>
          </g>
          <g id="Group_1258" data-name="Group 1258">
            <g id="Group_1257" data-name="Group 1257">
              <path id="Path_2268" data-name="Path 2268" d="M5799.429,2017.446c1.317.658,1.143,2.079,2.188,2.328.361.085,4.821-.562,7.786-6.747.349-.728,2.137-.326,3.012,2.163.763,2.173.085,3.5,2.543,6.293.235.268.044.706-.237.925l-1.492,1.293a2.644,2.644,0,0,0-.606,1.457c-.1,1.231-.216,3.839-.63,4.194-1.378,1.181-5,.493-5,.493l-3.406,11.356c-.255,1.6,1.86,2.4,1.86,2.4,1.362.55-3.355,2.421-9.727,2.114a16.97,16.97,0,0,1-7.3-2.062.753.753,0,0,1-.071-1.274,18.014,18.014,0,0,0,1.631-1.311,26.468,26.468,0,0,0,8.268-16.574c.154-1.226-1.947-1.325-2.116-3.611C5795.958,2018.5,5798.1,2016.779,5799.429,2017.446Z" fill="#fff"/>
              <path id="Path_2269" data-name="Path 2269" d="M5797.087,2045.986c-.453,0-.914-.01-1.38-.033a17.285,17.285,0,0,1-7.4-2.091.988.988,0,0,1-.093-1.672,17.527,17.527,0,0,0,1.61-1.294,26.248,26.248,0,0,0,8.192-16.429c.05-.4-.212-.644-.68-1.046a3.387,3.387,0,0,1-1.437-2.518,3.788,3.788,0,0,1,1.588-3.4,2.026,2.026,0,0,1,2.047-.267,3,3,0,0,1,1.309,1.436c.233.433.417.775.829.873.031,0,4.481-.285,7.518-6.619a.877.877,0,0,1,.885-.457c.829.045,1.943.881,2.562,2.644a10.581,10.581,0,0,1,.441,1.888,7.318,7.318,0,0,0,2.057,4.327.675.675,0,0,1,.161.522,1.119,1.119,0,0,1-.43.745l-1.482,1.285a2.5,2.5,0,0,0-.526,1.3c-.014.182-.029.393-.045.623-.158,2.232-.305,3.422-.666,3.732-1.266,1.084-4.175.712-4.989.582l-3.342,11.14c-.206,1.386,1.693,2.123,1.713,2.13.414.167.4.443.377.554C5805.71,2044.832,5801.817,2045.986,5797.087,2045.986Zm1.706-28.45a1.908,1.908,0,0,0-1.044.358,3.309,3.309,0,0,0-1.38,2.974,2.95,2.95,0,0,0,1.275,2.195c.475.408.924.794.84,1.463a26.706,26.706,0,0,1-8.344,16.72,18.22,18.22,0,0,1-1.653,1.329.516.516,0,0,0,.049.874,16.815,16.815,0,0,0,7.194,2.033,26.483,26.483,0,0,0,6.888-.529c1.9-.424,2.7-.905,2.815-1.091a.363.363,0,0,0-.076-.039c-.089-.034-2.287-.888-2-2.659a.28.28,0,0,1,.007-.031l3.407-11.356a.236.236,0,0,1,.27-.164c.035.006,3.528.653,4.8-.44.279-.24.436-2.46.5-3.408.016-.231.031-.444.046-.626a2.814,2.814,0,0,1,.7-1.624l1.483-1.286a.675.675,0,0,0,.259-.424.2.2,0,0,0-.045-.165,7.714,7.714,0,0,1-2.168-4.563,10.166,10.166,0,0,0-.421-1.808c-.544-1.55-1.492-2.294-2.142-2.33a.431.431,0,0,0-.434.19c-2.984,6.224-7.545,7-8.054,6.874-.618-.147-.88-.636-1.134-1.108a2.542,2.542,0,0,0-1.1-1.238A1.178,1.178,0,0,0,5798.793,2017.536Z"/>
            </g>
            <path id="Path_2270" data-name="Path 2270" d="M5806.992,2030.081a.245.245,0,0,1-.038,0,5.327,5.327,0,0,1-3.083-1.471.236.236,0,0,1,.34-.327,4.87,4.87,0,0,0,2.818,1.332.236.236,0,0,1-.037.469Z"/>
          </g>
          <g id="Group_1259" data-name="Group 1259">
            <path id="Path_2271" data-name="Path 2271" d="M5802.651,2082.953c-6.052,3.456-23.665,15.341-36.36,12.963-2.741-.513-4.069-6.482-4.193-11.345-.067-2.654,1.035-9.654,1.394-12.472.286-2.248,2.953-2.213,2.953-2.213,6.673-.2,8.553,1.463,9.246,2.164a3.2,3.2,0,0,1,.723,2.641c-.142,1.256-.589,3.121-.762,5.112a6.212,6.212,0,0,0,.009,1.287,2.656,2.656,0,0,0,3.313,2.238c3.762-.981,26.949-7.2,26.99-7.211a31.187,31.187,0,0,1,4.229-1.13c1.359-.163,6.805.113,6.942.6.2.7-.254,1.021-1.123,1.37a27.455,27.455,0,0,1-4.166.639c.285.416,4.751,2.638,7.049,2.667,1.473.019,4.631.778,3.706,2.179-1.185,1.793-6.828,2.835-10.051,2.524-1.813-.175-4.787-1.407-7.4-2.473A3.628,3.628,0,0,0,5802.651,2082.953Z" fill="#fff"/>
            <path id="Path_2272" data-name="Path 2272" d="M5769.78,2096.46a19.146,19.146,0,0,1-3.533-.312c-2.824-.529-4.253-6.369-4.385-11.571a88.557,88.557,0,0,1,1.071-10.126c.132-.945.246-1.761.325-2.382.309-2.428,3.16-2.414,3.19-2.419,7-.21,8.814,1.63,9.411,2.234a3.42,3.42,0,0,1,.79,2.833c-.058.51-.162,1.1-.282,1.784-.177,1-.377,2.138-.48,3.323a6.122,6.122,0,0,0,.008,1.238,2.4,2.4,0,0,0,1.034,1.694,2.439,2.439,0,0,0,1.985.344c3.01-.785,18.645-4.975,24.531-6.553,2.387-.639,2.456-.658,2.467-.66a14.3,14.3,0,0,0,1.378-.414,13.82,13.82,0,0,1,2.875-.72,27.754,27.754,0,0,1,3.974.055c3.083.218,3.174.542,3.223.716.267.951-.477,1.338-1.262,1.653a20.872,20.872,0,0,1-3.611.595c1.222.709,4.563,2.233,6.409,2.256,1.127.014,3.454.462,3.991,1.475a1,1,0,0,1-.091,1.07c-1.283,1.942-7.116,2.934-10.271,2.629-1.788-.173-4.67-1.348-7.213-2.385l-.257-.1c-.853-.347-2.252.426-2.289.446-.7.4-1.565.919-2.561,1.516C5793.6,2088.64,5780.557,2096.46,5769.78,2096.46Zm-3.338-26.338c-.2,0-2.465.041-2.716,2.007-.079.623-.193,1.441-.326,2.387a88.592,88.592,0,0,0-1.066,10.049c.132,5.178,1.548,10.66,4,11.119a18.739,18.739,0,0,0,3.454.3c10.637,0,23.6-7.777,30.176-11.72,1-.6,1.861-1.116,2.57-1.521h0c.066-.037,1.628-.91,2.7-.473l.258.1c2.512,1.025,5.36,2.186,7.079,2.352,3.38.326,8.754-.788,9.832-2.419a.528.528,0,0,0,.068-.589c-.384-.724-2.376-1.209-3.579-1.224-2.238-.028-6.865-2.22-7.242-2.77a.236.236,0,0,1,.174-.368,27.545,27.545,0,0,0,4.1-.624c.958-.384,1.1-.638,1-1.044-.539-.35-5.3-.64-6.7-.472a13.441,13.441,0,0,0-2.781.7,14.492,14.492,0,0,1-1.424.427l-2.449.656c-5.886,1.578-21.522,5.768-24.534,6.553a2.9,2.9,0,0,1-2.37-.41,2.871,2.871,0,0,1-1.236-2.028,6.505,6.505,0,0,1-.01-1.335c.1-1.205.307-2.352.485-3.364.119-.676.222-1.26.278-1.755a2.963,2.963,0,0,0-.652-2.443c-.566-.573-2.273-2.3-9.076-2.1Z"/>
          </g>
        </g>
      </g>
      <g id="Group_1263" data-name="Group 1263">
        <g id="Group_1262" data-name="Group 1262">
          <circle id="Ellipse_68" data-name="Ellipse 68" cx="12.464" cy="12.464" r="12.464" transform="matrix(0.984, -0.176, 0.176, 0.984, 5824.931, 2014.981)" fill="#fff"/>
          <path id="Path_2273" data-name="Path 2273" d="M5839.4,2013.064a11.992,11.992,0,1,1-11.992,11.992A12.006,12.006,0,0,1,5839.4,2013.064Zm0-.472a12.464,12.464,0,1,0,12.464,12.464A12.464,12.464,0,0,0,5839.4,2012.592Z"/>
        </g>
        <path id="Path_2274" data-name="Path 2274" d="M5838.713,2033.671a1.549,1.549,0,0,1-1.335-.763l-5.2-8.814a1.55,1.55,0,1,1,2.671-1.575l3.814,6.465,5.815-10.612a1.551,1.551,0,0,1,2.72,1.49l-7.126,13a1.552,1.552,0,0,1-1.335.805Z" fill="#5479f7"/>
      </g>
      <g id="Group_1267" data-name="Group 1267">
        <g id="Group_1264" data-name="Group 1264">
          <path id="Path_2275" data-name="Path 2275" d="M5858.189,2012.557a.235.235,0,0,1-.21-.344l.561-1.084a.236.236,0,0,1,.42.217l-.562,1.084A.234.234,0,0,1,5858.189,2012.557Z"/>
          <path id="Path_2276" data-name="Path 2276" d="M5856.882,2015.083a.232.232,0,0,1-.108-.027.236.236,0,0,1-.1-.318l.561-1.084a.236.236,0,0,1,.42.217l-.561,1.084A.237.237,0,0,1,5856.882,2015.083Z"/>
          <path id="Path_2277" data-name="Path 2277" d="M5857.1,2012.905a.238.238,0,0,1-.108-.026l-1.084-.561a.236.236,0,1,1,.217-.419l1.084.561a.236.236,0,0,1-.109.445Z"/>
          <path id="Path_2278" data-name="Path 2278" d="M5859.621,2014.212a.235.235,0,0,1-.109-.026l-1.084-.561a.236.236,0,0,1,.217-.42l1.084.561a.236.236,0,0,1-.108.446Z"/>
        </g>
        <g id="Group_1265" data-name="Group 1265">
          <path id="Path_2279" data-name="Path 2279" d="M5854.474,2103.584a.236.236,0,0,1-.16-.409,39.457,39.457,0,0,0,9.935-14.377.236.236,0,1,1,.438.176,39.913,39.913,0,0,1-10.053,14.548A.231.231,0,0,1,5854.474,2103.584Z"/>
          <path id="Path_2280" data-name="Path 2280" d="M5840.5,2111.7a.236.236,0,0,1-.127-.435c.147-.094,14.765-9.524,20.246-22.264a.236.236,0,1,1,.433.186c-5.539,12.876-20.277,22.381-20.425,22.476A.235.235,0,0,1,5840.5,2111.7Z"/>
        </g>
        <g id="Group_1266" data-name="Group 1266">
          <path id="Path_2281" data-name="Path 2281" d="M5849.328,2004.567a.232.232,0,0,1-.17-.073,43.35,43.35,0,0,0-14.008-9.872.236.236,0,1,1,.186-.434,43.809,43.809,0,0,1,14.163,9.98.237.237,0,0,1-.007.334A.24.24,0,0,1,5849.328,2004.567Z"/>
          <path id="Path_2282" data-name="Path 2282" d="M5854,2006.572a.237.237,0,0,1-.191-.1,45.476,45.476,0,0,0-20.963-15.61.236.236,0,1,1,.17-.44,45.946,45.946,0,0,1,21.175,15.772.236.236,0,0,1-.191.375Z"/>
        </g>
        <path id="Path_2283" data-name="Path 2283" d="M5745.49,2102.48a1.512,1.512,0,1,1,.921-.314A1.511,1.511,0,0,1,5745.49,2102.48Zm-.637-2.337a1.041,1.041,0,1,0,1.459.19A1.041,1.041,0,0,0,5744.853,2100.143Z"/>
      </g>
    </g>
  </g>
</svg>
