<svg xmlns="http://www.w3.org/2000/svg" width="197.333" height="120" viewBox="0 0 197.333 120">
  <g id="Group_1345" data-name="Group 1345" transform="translate(-872 -1299.2)">
    <text id="ZoomChartify" transform="translate(899 1367)" font-size="20" font-family="Roboto-Regular, Roboto"><tspan x="0" y="0">ZoomChartify</tspan></text>
    <g id="Path_2388" data-name="Path 2388" transform="translate(840 1328)" fill="none" stroke-dasharray="5">
      <path d="M32,0H162.013V-28.8L229.333,32,162.013,91.2V64H32Z" stroke="none"/>
      <path d="M 169.4341125488281 -22.09775543212891 L 173.1447601318359 -18.74649047851562 L 171.8042602539062 -17.26220703125 L 168.0935974121094 -20.61349487304688 L 169.4341125488281 -22.09776306152344 Z M 176.8554229736328 -15.39521026611328 C 176.8554229736328 -15.39521026611328 178.8544311523438 -13.58983612060547 179.9180297851562 -12.62924957275391 L 179.9214172363281 -12.62619781494141 C 179.9258270263672 -12.62220764160156 179.9301147460938 -12.61832427978516 179.9345092773438 -12.61437225341797 L 179.9391479492188 -12.61017608642578 C 179.9403686523438 -12.60907745361328 179.941650390625 -12.60791778564453 179.94287109375 -12.6068115234375 L 180.5661010742188 -12.04393768310547 L 179.2255859375 -10.55967712402344 L 175.5149230957031 -13.91094207763672 L 176.8554229736328 -15.39521026611328 Z M 184.2767639160156 -8.692680358886719 L 187.9874267578125 -5.341415405273438 L 186.6469268798828 -3.857154846191406 L 182.9362487792969 -7.208419799804688 L 184.2767639160156 -8.692680358886719 Z M 191.6980743408203 -1.990150451660156 L 195.4087371826172 1.361114501953125 L 194.0682373046875 2.84539794921875 L 190.3575744628906 -0.505889892578125 L 191.6980895996094 -1.990150451660156 Z M 199.1194000244141 4.712398529052734 C 199.1194000244141 4.712398529052734 202.8300476074219 8.063663482666016 202.8300476074219 8.063663482666016 L 201.4895629882812 9.547924041748047 L 197.7789001464844 6.196662902832031 L 199.1194000244141 4.712398529052734 Z M 206.5407104492188 11.41492462158203 C 206.5407104492188 11.41492462158203 207.3557739257812 12.15103912353516 208.2218170166016 12.93319702148438 L 208.2229461669922 12.93421173095703 C 208.2367095947266 12.94664001464844 208.2505340576172 12.95912933349609 208.2643127441406 12.97157669067383 L 208.2677459716797 12.97467803955078 C 208.2732849121094 12.97967910766602 208.2788543701172 12.98470687866211 208.2843933105469 12.98971176147461 L 210.2513885498047 14.76619720458984 L 208.9108734130859 16.25045013427734 L 205.2002105712891 12.89918899536133 L 206.5407104492188 11.41492462158203 Z M 213.9620513916016 18.11745834350586 L 217.6726989746094 21.46872329711914 L 216.3322143554688 22.9530029296875 L 212.6215209960938 19.60171508789062 L 213.9620513916016 18.11745071411133 Z M 221.3833618164062 24.82000350952148 C 221.3833618164062 24.82000350952148 225.0940246582031 28.17126846313477 225.0940246582031 28.17126846313477 L 223.7535247802734 29.6555290222168 L 220.0428771972656 26.30426788330078 L 221.3833618164062 24.82000350952148 Z M 227.8392333984375 30.65058708190918 L 229.3333740234375 32.00000381469727 C 229.3333740234375 32.00000381469727 229.3333740234375 32.00000381469727 229.3333740234375 32.00000381469727 C 229.3333740234375 32.00000381469727 229.3333740234375 32.00000381469727 229.3333740234375 32.00000381469727 L 229.3333740234375 32.00000381469727 C 229.3333740234375 32.00000381469727 229.3333740234375 32.00000381469727 229.3333740234375 32.00000381469727 L 226.1136016845703 34.83139419555664 L 224.7928771972656 33.32950592041016 L 227.8392333984375 30.65058708190918 Z M 221.0381317138672 36.63131713867188 L 222.3588714599609 38.13321685791016 C 222.3588714599609 38.13321685791016 218.6041259765625 41.43502807617188 218.6041259765625 41.43502807617188 L 217.2834167480469 39.93313598632812 L 221.0381317138672 36.63131713867188 Z M 213.5286865234375 43.23497772216797 L 214.8494262695312 44.73686981201172 L 211.1026153564453 48.03171539306641 C 211.1024322509766 48.0318717956543 211.1022796630859 48.03200531005859 211.1021118164062 48.03215789794922 L 211.1002807617188 48.03376007080078 C 211.1002807617188 48.03376007080078 211.1002655029297 48.03377532958984 211.1002655029297 48.03377532958984 L 211.0946960449219 48.03868865966797 L 209.7739715576172 46.53679275512695 L 213.5286865234375 43.23497772216797 Z M 206.0192413330078 49.83860778808594 L 207.3399810791016 51.34050369262695 L 205.0136108398438 53.38624954223633 C 205.0115966796875 53.38801574707031 205.0094604492188 53.389892578125 205.0074615478516 53.39165878295898 L 205.0025939941406 53.39594268798828 C 204.9999084472656 53.39829254150391 204.9973449707031 53.40054321289062 204.9946899414062 53.40289306640625 L 204.98974609375 53.4072380065918 C 204.9894104003906 53.40753173828125 204.9889221191406 53.40796661376953 204.9885864257812 53.40825653076172 L 204.9801788330078 53.41564178466797 C 204.9742889404297 53.42082214355469 204.9683685302734 53.42603302001953 204.9624938964844 53.43120193481445 L 204.9603271484375 53.43310546875 C 204.9577789306641 53.43534851074219 204.9552307128906 53.43759155273438 204.9526672363281 53.4398307800293 L 204.9372863769531 53.453369140625 C 204.2030181884766 54.09906387329102 203.5852355957031 54.64231872558594 203.5852355957031 54.64231872558594 L 202.2644958496094 53.14042663574219 L 206.0192413330078 49.83860778808594 Z M 198.5097961425781 56.44226837158203 L 199.8305053710938 57.94413375854492 C 199.8305053710938 57.94413375854492 198.7711486816406 58.87571716308594 197.7778930664062 59.74916839599609 L 197.7767791748047 59.75015640258789 C 197.7662658691406 59.75939178466797 197.7558441162109 59.76856231689453 197.745361328125 59.77777862548828 L 196.0757751464844 61.24596786499023 L 194.7550659179688 59.74408340454102 L 198.5097961425781 56.44226837158203 Z M 191.0003204345703 63.0458984375 L 192.321044921875 64.54779052734375 L 192.0197601318359 64.812744140625 C 192.0181884765625 64.81413269042969 192.0166320800781 64.81549072265625 192.0150451660156 64.81688690185547 L 192.0121765136719 64.81941223144531 C 192.0089111328125 64.82228088378906 192.0056915283203 64.82511901855469 192.0023803710938 64.82802581787109 L 191.9997863769531 64.83030700683594 C 191.9960021972656 64.83364105224609 191.9921875 64.83699035644531 191.9883422851562 64.84037017822266 L 191.9850463867188 64.84327697753906 C 191.9848327636719 64.84346008300781 191.9845123291016 64.84374237060547 191.9843139648438 64.84392547607422 L 191.9673461914062 64.85884094238281 C 191.0323181152344 65.68106842041016 188.5663146972656 67.849609375 188.5663146972656 67.849609375 L 187.24560546875 66.34771728515625 L 191.0003204345703 63.0458984375 Z M 183.4908752441406 69.64952850341797 L 184.8116149902344 71.15142822265625 C 184.8116149902344 71.15142822265625 181.0568695068359 74.45323944091797 181.0568695068359 74.45323944091797 L 179.7361602783203 72.95137023925781 L 183.4908752441406 69.64952850341797 Z M 175.9814147949219 76.25318908691406 L 177.3021545410156 77.75508117675781 L 173.5474243164062 81.05690002441406 L 172.2266845703125 79.55500793457031 L 175.9814147949219 76.25318908691406 Z M 168.4719848632812 82.85681915283203 L 169.7926940917969 84.35871887207031 C 169.7926940917969 84.35871887207031 166.0379791259766 87.66053009033203 166.0379791259766 87.66053009033203 L 164.7172393798828 86.15866088867188 L 168.4719848632812 82.85681915283203 Z M 162.0127868652344 86.56034851074219 L 164.0127868652344 86.56034851074219 L 164.0127868652344 89.44143676757812 L 162.0127868652344 91.20018768310547 C 162.0127868652344 91.20018768310547 162.0127868652344 91.20018768310547 162.0127868652344 91.20018768310547 L 162.0127868652344 91.20018768310547 C 162.0127868652344 91.20018768310547 162.0127868652344 91.20018768310547 162.0127868652344 91.20018768310547 L 162.0127868652344 86.56034851074219 Z M 162.0127868652344 76.56034851074219 L 164.0127868652344 76.56034851074219 L 164.0127868652344 81.56034851074219 L 162.0127868652344 81.56034851074219 L 162.0127868652344 76.56034851074219 Z M 162.0127868652344 66.56034851074219 L 164.0127868652344 66.56034851074219 L 164.0127868652344 71.56034851074219 L 162.0127868652344 71.56034851074219 L 162.0127868652344 66.56034851074219 Z M 154.5731353759766 62.00000381469727 L 159.5731353759766 62.00000381469727 L 159.5731353759766 64 C 159.5731353759766 64 154.5731353759766 64 154.5731353759766 64 L 154.5731353759766 62.00000381469727 Z M 144.5731353759766 62.00000381469727 L 149.5731353759766 62.00000381469727 L 149.5731353759766 64 C 149.5731353759766 64 144.5731353759766 64 144.5731353759766 64 L 144.5731353759766 62.00000381469727 Z M 134.5731353759766 62.00000381469727 L 139.5731353759766 62.00000381469727 L 139.5731353759766 64 C 139.5731353759766 64 134.5731353759766 64 134.5731353759766 64 L 134.5731353759766 62.00000381469727 Z M 124.5731353759766 62.00000381469727 L 129.5731353759766 62.00000381469727 L 129.5731353759766 64 C 129.5731353759766 64 124.5731353759766 64 124.5731353759766 64 L 124.5731353759766 62.00000381469727 Z M 114.5731353759766 62.00000381469727 L 119.5731353759766 62.00000381469727 L 119.5731353759766 64 C 119.5731353759766 64 114.5731353759766 64 114.5731353759766 64 L 114.5731353759766 62.00000381469727 Z M 104.5731353759766 62.00000381469727 L 109.5731353759766 62.00000381469727 L 109.5731353759766 64 C 109.5731353759766 64 104.5731353759766 64 104.5731353759766 64 L 104.5731353759766 62.00000381469727 Z M 94.57313537597656 62.00000381469727 L 99.57313537597656 62.00000381469727 L 99.57313537597656 64 C 99.57313537597656 64 94.57313537597656 64 94.57313537597656 64 L 94.57313537597656 62.00000381469727 Z M 84.57313537597656 62.00000381469727 L 89.57313537597656 62.00000381469727 L 89.57313537597656 64 C 89.57313537597656 64 84.57313537597656 64 84.57313537597656 64 L 84.57313537597656 62.00000381469727 Z M 74.57313537597656 62.00000381469727 L 79.57313537597656 62.00000381469727 L 79.57313537597656 64 C 79.57313537597656 64 74.57313537597656 64 74.57313537597656 64 L 74.57313537597656 62.00000381469727 Z M 64.57313537597656 62.00000381469727 L 69.57313537597656 62.00000381469727 L 69.57313537597656 64 C 69.57313537597656 64 64.57313537597656 64 64.57313537597656 64 L 64.57313537597656 62.00000381469727 Z M 54.57313537597656 62.00000381469727 L 59.57313537597656 62.00000381469727 L 59.57313537597656 64 C 59.57313537597656 64 54.57313537597656 64 54.57313537597656 64 L 54.57313537597656 62.00000381469727 Z M 44.57313537597656 62.00000381469727 L 49.57313537597656 62.00000381469727 L 49.57313537597656 64 C 49.57313537597656 64 44.57313537597656 64 44.57313537597656 64 L 44.57313537597656 62.00000381469727 Z M 34.57313537597656 62.00000381469727 L 39.57313537597656 62.00000381469727 L 39.57313537597656 64 C 39.57313537597656 64 34.57313537597656 64 34.57313537597656 64 L 34.57313537597656 62.00000381469727 Z M 32 56.57313537597656 L 34 56.57313537597656 L 34 61.57313537597656 L 32 61.57313537597656 L 32 56.57313537597656 Z M 32 46.57313537597656 L 34 46.57313537597656 L 34 51.57313537597656 L 32 51.57313537597656 L 32 46.57313537597656 Z M 32 36.57313537597656 L 34 36.57313537597656 L 34 41.57313537597656 L 32 41.57313537597656 L 32 36.57313537597656 Z M 32 26.57313537597656 L 34 26.57313537597656 L 34 31.57313537597656 L 32 31.57313537597656 L 32 26.57313537597656 Z M 32 16.57313537597656 L 34 16.57313537597656 L 34 21.57313537597656 L 32 21.57313537597656 L 32 16.57313537597656 Z M 32 6.573135375976562 L 34 6.573135375976562 L 34 11.57313537597656 L 32 11.57313537597656 L 32 6.573135375976562 Z M 32 3.814697265625e-06 L 35.42686462402344 3.814697265625e-06 L 35.42686462402344 2.000003814697266 L 32 2.000003814697266 L 32 3.814697265625e-06 Z M 40.42686462402344 3.814697265625e-06 L 45.42686462402344 3.814697265625e-06 L 45.42686462402344 2.000003814697266 L 40.42686462402344 2.000003814697266 L 40.42686462402344 3.814697265625e-06 Z M 50.42686462402344 3.814697265625e-06 L 55.42686462402344 3.814697265625e-06 L 55.42686462402344 2.000003814697266 L 50.42686462402344 2.000003814697266 L 50.42686462402344 3.814697265625e-06 Z M 60.42686462402344 3.814697265625e-06 L 65.42686462402344 3.814697265625e-06 L 65.42686462402344 2.000003814697266 L 60.42686462402344 2.000003814697266 L 60.42686462402344 3.814697265625e-06 Z M 70.42686462402344 3.814697265625e-06 L 75.42686462402344 3.814697265625e-06 L 75.42686462402344 2.000003814697266 L 70.42686462402344 2.000003814697266 L 70.42686462402344 3.814697265625e-06 Z M 80.42686462402344 3.814697265625e-06 L 85.42686462402344 3.814697265625e-06 L 85.42686462402344 2.000003814697266 L 80.42686462402344 2.000003814697266 L 80.42686462402344 3.814697265625e-06 Z M 90.42686462402344 3.814697265625e-06 L 95.42686462402344 3.814697265625e-06 L 95.42686462402344 2.000003814697266 L 90.42686462402344 2.000003814697266 L 90.42686462402344 3.814697265625e-06 Z M 100.4268646240234 3.814697265625e-06 L 105.4268646240234 3.814697265625e-06 L 105.4268646240234 2.000003814697266 L 100.4268646240234 2.000003814697266 L 100.4268646240234 3.814697265625e-06 Z M 110.4268646240234 3.814697265625e-06 L 115.4268646240234 3.814697265625e-06 L 115.4268646240234 2.000003814697266 L 110.4268646240234 2.000003814697266 L 110.4268646240234 3.814697265625e-06 Z M 120.4268646240234 3.814697265625e-06 L 125.4268646240234 3.814697265625e-06 L 125.4268646240234 2.000003814697266 L 120.4268646240234 2.000003814697266 L 120.4268646240234 3.814697265625e-06 Z M 130.4268646240234 3.814697265625e-06 L 135.4268798828125 3.814697265625e-06 L 135.4268798828125 2.000003814697266 L 130.4268646240234 2.000003814697266 L 130.4268646240234 3.814697265625e-06 Z M 140.4268798828125 3.814697265625e-06 L 145.4268798828125 3.814697265625e-06 L 145.4268798828125 2.000003814697266 L 140.4268798828125 2.000003814697266 L 140.4268798828125 3.814697265625e-06 Z M 150.4268798828125 3.814697265625e-06 L 155.4268798828125 3.814697265625e-06 L 155.4268798828125 2.000003814697266 L 150.4268798828125 2.000003814697266 L 150.4268798828125 3.814697265625e-06 Z M 162.0127868652344 -3.414077758789062 L 164.0127868652344 -3.414077758789062 L 164.0127868652344 2.000003814697266 L 160.4268798828125 2.000003814697266 L 160.4268798828125 3.814697265625e-06 L 162.0127868652344 3.814697265625e-06 L 162.0127868652344 -3.414077758789062 Z M 162.0127868652344 -13.41407775878906 L 164.0127868652344 -13.41407775878906 L 164.0127868652344 -8.414077758789062 L 162.0127868652344 -8.414077758789062 L 162.0127868652344 -13.41407775878906 Z M 162.0127868652344 -23.41407775878906 L 164.0127868652344 -23.41407775878906 L 164.0127868652344 -18.41407775878906 L 162.0127868652344 -18.41407775878906 L 162.0127868652344 -23.41407775878906 Z M 162.0127868652344 -28.80028533935547 L 162.4404296875 -28.41407775878906 C 162.4494018554688 -28.40596008300781 162.4584655761719 -28.39777374267578 162.4676818847656 -28.38945770263672 L 162.4679107666016 -28.38924407958984 C 162.49755859375 -28.36246490478516 162.5284118652344 -28.3345947265625 162.5602722167969 -28.30583953857422 L 162.5603485107422 -28.30576324462891 C 162.5650939941406 -28.30148315429688 162.5699462890625 -28.29710388183594 162.5747222900391 -28.29277801513672 L 162.5785675048828 -28.28931427001953 C 162.5801696777344 -28.28786468505859 162.5818176269531 -28.286376953125 162.5834045410156 -28.28492736816406 L 162.5856018066406 -28.282958984375 C 162.5868530273438 -28.28181457519531 162.5881958007812 -28.28061676025391 162.5894622802734 -28.27947235107422 L 162.6015625 -28.26854705810547 C 162.6036071777344 -28.26669311523438 162.6055908203125 -28.264892578125 162.607666015625 -28.26303100585938 L 162.6098175048828 -28.26108551025391 C 162.6147918701172 -28.256591796875 162.6198120117188 -28.25205993652344 162.6248321533203 -28.24752807617188 L 162.6263732910156 -28.24612426757812 C 162.6315002441406 -28.24150085449219 162.6366882324219 -28.23682403564453 162.641845703125 -28.23216247558594 L 162.6427764892578 -28.23131561279297 C 162.64794921875 -28.22665405273438 162.6532135009766 -28.22189331054688 162.6584167480469 -28.21718597412109 L 162.6598205566406 -28.21592712402344 C 162.6800537109375 -28.19763946533203 162.7006530761719 -28.17904663085938 162.7215576171875 -28.16017150878906 L 162.7306823730469 -28.15192413330078 C 162.752685546875 -28.13204956054688 162.7751770019531 -28.11174011230469 162.7978515625 -28.09126281738281 L 162.8009033203125 -28.08851623535156 C 162.8240661621094 -28.06758117675781 162.8474426269531 -28.04647827148438 162.8712615966797 -28.02496337890625 L 162.8768310546875 -28.01993560791016 C 162.8814086914062 -28.01580047607422 162.8861694335938 -28.01150512695312 162.8907623291016 -28.00734710693359 L 162.8937530517578 -28.00464630126953 C 162.8995361328125 -27.99942016601562 162.9051818847656 -27.99433898925781 162.9109802246094 -27.98908233642578 L 162.9111328125 -27.98896026611328 C 162.9231567382812 -27.97809600830078 162.9351196289062 -27.96729278564453 162.9472961425781 -27.956298828125 L 162.9507446289062 -27.95317840576172 C 162.9626312255859 -27.94244384765625 162.9744567871094 -27.93175506591797 162.9864807128906 -27.9208984375 L 162.9889984130859 -27.91863250732422 C 163.0003204345703 -27.90840911865234 163.0116577148438 -27.89817047119141 163.0230865478516 -27.88784027099609 L 163.030029296875 -27.88156890869141 C 163.0413818359375 -27.87132263183594 163.0529174804688 -27.86090087890625 163.0643768310547 -27.85055541992188 L 163.0680541992188 -27.84722900390625 C 163.0796203613281 -27.83677673339844 163.0913543701172 -27.82618713378906 163.10302734375 -27.81564331054688 L 163.1096496582031 -27.80966949462891 C 163.1208190917969 -27.79958343505859 163.13232421875 -27.78917694091797 163.1435852050781 -27.77901458740234 L 163.1506195068359 -27.77266693115234 C 163.1556701660156 -27.76809692382812 163.1607666015625 -27.76350402832031 163.1658325195312 -27.75892639160156 L 163.1677398681641 -27.7572021484375 C 163.1698608398438 -27.75529479980469 163.1719970703125 -27.75336456298828 163.1741027832031 -27.75144958496094 L 163.211669921875 -27.717529296875 C 163.2125244140625 -27.71675872802734 163.2136383056641 -27.71575164794922 163.2144927978516 -27.71498107910156 L 163.2201843261719 -27.70983123779297 C 163.2213592529297 -27.70877075195312 163.2225341796875 -27.70771789550781 163.2237091064453 -27.70664978027344 L 163.2306213378906 -27.70040893554688 C 163.2421875 -27.68996429443359 163.2539672851562 -27.67932891845703 163.2655944824219 -27.66881561279297 L 163.2730102539062 -27.66211700439453 C 163.2784118652344 -27.65724182128906 163.2836456298828 -27.65251922607422 163.2890625 -27.64763641357422 L 163.2902526855469 -27.64655303955078 C 163.3079986572266 -27.63053131103516 163.3255310058594 -27.61470031738281 163.3434143066406 -27.59853363037109 L 163.3997039794922 -27.54769897460938 C 163.3998107910156 -27.54759979248047 163.3999328613281 -27.54750061035156 163.4000396728516 -27.54740142822266 L 163.4076843261719 -27.54048919677734 C 163.4090118408203 -27.53929901123047 163.4103546142578 -27.5380859375 163.4116821289062 -27.53688812255859 L 163.4196166992188 -27.52973175048828 C 163.4209289550781 -27.52853393554688 163.4222106933594 -27.52738189697266 163.4235229492188 -27.52618408203125 L 163.4738006591797 -27.48078918457031 C 163.4740295410156 -27.48058319091797 163.4739685058594 -27.48063659667969 163.4741821289062 -27.48043823242188 L 163.4827728271484 -27.47267913818359 C 163.4846496582031 -27.47097778320312 163.4865417480469 -27.46928405761719 163.4884338378906 -27.46757507324219 L 163.4913787841797 -27.46490478515625 C 163.4934997558594 -27.46299743652344 163.4956512451172 -27.46105194091797 163.4977722167969 -27.45914459228516 L 163.5375671386719 -27.42318725585938 C 163.5380249023438 -27.42278289794922 163.5383605957031 -27.42247772216797 163.5388031005859 -27.42208099365234 L 163.5460510253906 -27.41551971435547 C 163.5482940673828 -27.41350555419922 163.5507202148438 -27.41131591796875 163.5529479980469 -27.40929412841797 L 163.5567626953125 -27.40584564208984 C 163.5578918457031 -27.40483856201172 163.5591125488281 -27.40372467041016 163.5602416992188 -27.40271759033203 L 163.5799255371094 -27.38494110107422 C 163.5804748535156 -27.38443756103516 163.5811767578125 -27.38381195068359 163.5817260742188 -27.38330078125 L 163.5910339355469 -27.37490081787109 C 163.5917053222656 -27.37429809570312 163.592529296875 -27.37355804443359 163.5932006835938 -27.37295532226562 L 163.6011962890625 -27.36571502685547 C 163.6018676757812 -27.3651123046875 163.6024932861328 -27.36455535888672 163.6031646728516 -27.36394500732422 L 163.6240234375 -27.34511566162109 C 163.6240234375 -27.34511566162109 163.624267578125 -27.34489440917969 163.624267578125 -27.34489440917969 L 163.6346282958984 -27.33553314208984 C 163.6349639892578 -27.33522796630859 163.6354064941406 -27.33481597900391 163.6357574462891 -27.33451080322266 L 163.7212524414062 -27.25730133056641 C 163.7215881347656 -27.25699615478516 163.7218170166016 -27.25679016113281 163.7221527099609 -27.25648498535156 L 165.7234497070312 -25.44902038574219 L 164.3829498291016 -23.96475982666016 L 162.0127868652344 -26.10535430908203 L 162.0127868652344 -28.80028533935547 Z" stroke="none" fill="#dbdbdb"/>
    </g>
  </g>
</svg>
