<svg xmlns="http://www.w3.org/2000/svg" width="119.011" height="72.372" viewBox="0 0 119.011 72.372">
  <g id="Group_1380" data-name="Group 1380" transform="translate(-872 -1299.2)">
    <text id="ZoomChartify" transform="translate(888.284 1339.631)" font-size="12" font-family="Roboto-Regular, Roboto"><tspan x="0" y="0">ZoomChartify</tspan></text>
    <g id="Path_2388" data-name="Path 2388" transform="translate(840 1328)" fill="none" stroke-dasharray="5">
      <path d="M32-11.431h78.41V-28.8l40.6,36.669-40.6,35.7v-16.4H32Z" stroke="none"/>
      <path d="M 110.4104537963867 -28.8003044128418 C 110.4104537963867 -28.8003044128418 110.4248962402344 -28.78725433349609 110.4519729614258 -28.76280212402344 L 110.4523391723633 -28.76247406005859 C 110.4658050537109 -28.75031280517578 110.4823532104492 -28.73536682128906 110.5017929077148 -28.71780776977539 L 110.5028762817383 -28.71682739257812 C 110.5075912475586 -28.71257019042969 110.5124053955078 -28.70821762084961 110.517448425293 -28.70366668701172 L 110.5175628662109 -28.70356369018555 C 110.5226898193359 -28.69893646240234 110.5278854370117 -28.69424057006836 110.5333480834961 -28.68930816650391 L 110.5343475341797 -28.68840789794922 C 110.5395584106445 -28.68369674682617 110.5449447631836 -28.67883682250977 110.5504531860352 -28.67385864257812 L 110.5522155761719 -28.67226409912109 C 110.5533447265625 -28.67124557495117 110.5545501708984 -28.67015838623047 110.5556869506836 -28.66912841796875 L 110.5561828613281 -28.66868591308594 C 110.5574188232422 -28.66756820678711 110.5586471557617 -28.66646194458008 110.5598983764648 -28.66533279418945 L 110.5637664794922 -28.66183471679688 C 110.5639114379883 -28.66170120239258 110.5639953613281 -28.66162872314453 110.5641403198242 -28.6614990234375 L 110.5660781860352 -28.65974807739258 C 110.566276550293 -28.65956878662109 110.5664367675781 -28.65942764282227 110.5666275024414 -28.65924835205078 L 110.5815887451172 -28.64574432373047 C 110.5824584960938 -28.64495849609375 110.5832672119141 -28.64422225952148 110.5841445922852 -28.6434326171875 L 110.5846710205078 -28.6429557800293 C 110.5854415893555 -28.64225769042969 110.5860824584961 -28.64167785644531 110.5868606567383 -28.64097595214844 L 110.5871276855469 -28.6407356262207 C 110.5875930786133 -28.64031600952148 110.588005065918 -28.63994598388672 110.5884704589844 -28.63952255249023 L 110.5906524658203 -28.63755035400391 C 110.5918045043945 -28.63651275634766 110.5930557250977 -28.63537979125977 110.5942230224609 -28.63433074951172 L 110.5948944091797 -28.63372039794922 C 110.5954818725586 -28.63319396972656 110.5960540771484 -28.63267517089844 110.5966339111328 -28.63214874267578 L 110.6024322509766 -28.62691116333008 C 110.6028671264648 -28.62652206420898 110.6033477783203 -28.6260871887207 110.6037826538086 -28.62569808959961 L 110.6164245605469 -28.61427307128906 C 110.6167068481445 -28.6140251159668 110.6169357299805 -28.61381912231445 110.6172103881836 -28.61356735229492 L 110.6380996704102 -28.59470367431641 C 110.6387329101562 -28.5941276550293 110.6393661499023 -28.59355926513672 110.640007019043 -28.59298324584961 L 114.1211166381836 -25.44903182983398 L 112.7806015014648 -23.96476745605469 L 112.4104537963867 -24.29906845092773 L 112.4104537963867 -20.83246994018555 L 110.4104537963867 -20.83246994018555 L 110.4104537963867 -25.83246994018555 L 110.7126083374023 -25.83246994018555 L 110.4104537963867 -26.10536575317383 L 110.4104537963867 -28.8003044128418 Z M 117.8317642211914 -22.09777069091797 C 117.8317642211914 -22.09777069091797 118.3426971435547 -21.63632583618164 118.9852905273438 -21.05597305297852 L 118.9858169555664 -21.05550003051758 C 118.9889831542969 -21.05263519287109 118.992073059082 -21.04984664916992 118.9952545166016 -21.04697418212891 L 118.9960784912109 -21.04622650146484 C 118.9985198974609 -21.04402542114258 119.0009613037109 -21.04181671142578 119.0034027099609 -21.03961181640625 L 119.0083160400391 -21.03517913818359 C 119.0104370117188 -21.03326034545898 119.0127258300781 -21.03119277954102 119.0148544311523 -21.02927017211914 L 119.0168838500977 -21.02743911743164 C 119.0195465087891 -21.0250358581543 119.0221710205078 -21.02266311645508 119.0248413085938 -21.02025604248047 L 119.0276641845703 -21.01770401000977 C 119.0333099365234 -21.01259994506836 119.0389633178711 -21.00749969482422 119.0446319580078 -21.00237655639648 L 119.0505676269531 -20.99701690673828 C 119.0557098388672 -20.99237442016602 119.0608673095703 -20.98771667480469 119.0660171508789 -20.98306274414062 L 119.0693206787109 -20.98008346557617 C 119.0717926025391 -20.97785186767578 119.0742950439453 -20.9755859375 119.0767669677734 -20.97335052490234 L 119.0783843994141 -20.97189331054688 C 119.0810699462891 -20.96946334838867 119.0837249755859 -20.96706771850586 119.08642578125 -20.96463394165039 L 119.0906066894531 -20.96084976196289 C 119.0932006835938 -20.95851135253906 119.0957336425781 -20.95623016357422 119.0983200073242 -20.95388793945312 L 119.0984268188477 -20.95379257202148 C 119.1014556884766 -20.9510612487793 119.1043395996094 -20.94844818115234 119.1073760986328 -20.94571304321289 L 119.1096496582031 -20.94365692138672 C 119.1127853393555 -20.94082260131836 119.1159210205078 -20.93799209594727 119.1190643310547 -20.93515396118164 L 119.1192779541016 -20.93495559692383 C 119.1221008300781 -20.93241119384766 119.1248626708984 -20.92991256713867 119.127685546875 -20.92736434936523 L 119.1316680908203 -20.92377471923828 C 119.1323165893555 -20.92318725585938 119.1328353881836 -20.92271423339844 119.1334838867188 -20.92212677001953 L 119.1360092163086 -20.91984939575195 C 119.1366577148438 -20.91925811767578 119.1373596191406 -20.91863250732422 119.1380081176758 -20.91804504394531 L 119.1424560546875 -20.91402816772461 C 119.1426696777344 -20.91383361816406 119.1428375244141 -20.91368103027344 119.1430511474609 -20.91348648071289 L 121.5424346923828 -18.74649810791016 L 120.2019348144531 -17.26223754882812 L 116.4912643432617 -20.61350250244141 L 117.8317642211914 -22.09777069091797 Z M 125.2530975341797 -15.39522933959961 L 128.9637451171875 -12.04396820068359 L 127.6232452392578 -10.55970191955566 L 123.9125823974609 -13.91096878051758 L 125.2530975341797 -15.39523506164551 Z M 132.6744079589844 -8.692697525024414 L 135.9753265380859 -5.71148681640625 C 135.9757690429688 -5.711084365844727 135.9762268066406 -5.710668563842773 135.9766845703125 -5.710268020629883 L 135.9786224365234 -5.708513259887695 C 135.9788513183594 -5.70831298828125 135.9791259765625 -5.708063125610352 135.9793395996094 -5.707862854003906 L 135.9817657470703 -5.70567512512207 C 135.9824981689453 -5.705009460449219 135.9832763671875 -5.704309463500977 135.9840087890625 -5.703645706176758 L 135.9917755126953 -5.696630477905273 C 135.9949951171875 -5.693727493286133 135.9980316162109 -5.690986633300781 136.0012054443359 -5.688114166259766 L 136.0026550292969 -5.68681526184082 C 136.0068359375 -5.683032989501953 136.0110168457031 -5.679254531860352 136.0151519775391 -5.675521850585938 L 136.0161895751953 -5.674581527709961 C 136.0203247070312 -5.670854568481445 136.0244140625 -5.667152404785156 136.0284881591797 -5.663476943969727 L 136.0300598144531 -5.66206169128418 C 136.03173828125 -5.660543441772461 136.0334930419922 -5.658956527709961 136.03515625 -5.657447814941406 L 136.0368347167969 -5.655942916870117 C 136.0373840332031 -5.655439376831055 136.0380249023438 -5.654865264892578 136.03857421875 -5.654365539550781 L 136.0446472167969 -5.64887809753418 C 136.0460357666016 -5.647634506225586 136.0474090576172 -5.646387100219727 136.0487823486328 -5.645151138305664 L 136.0496978759766 -5.644323348999023 C 136.0516052246094 -5.642593383789062 136.0535278320312 -5.640857696533203 136.0554351806641 -5.639139175415039 L 136.0560302734375 -5.63861083984375 C 136.2601318359375 -5.454275131225586 136.3850860595703 -5.341419219970703 136.3850860595703 -5.341419219970703 L 135.0445709228516 -3.857170104980469 L 131.3338928222656 -7.20843505859375 L 132.6744079589844 -8.692703247070312 Z M 140.0957336425781 -1.990152359008789 C 140.0957336425781 -1.990152359008789 143.806396484375 1.361114501953125 143.806396484375 1.361114501953125 L 142.4658813476562 2.845380783081055 L 138.7552337646484 -0.5059022903442383 L 140.0957336425781 -1.990152359008789 Z M 147.5170593261719 4.712380409240723 C 147.5170593261719 4.712380409240723 148.5680694580078 5.661604881286621 149.5172424316406 6.51883602142334 L 149.5172424316406 6.518833160400391 L 151.0113677978516 7.868247509002686 L 149.4994964599609 9.197746276855469 L 146.1765441894531 6.196647644042969 L 147.5170593261719 4.712380409240723 Z M 145.7169799804688 9.860696792602539 L 147.0377197265625 11.36258125305176 C 147.0377197265625 11.36258125305176 143.2829895019531 14.66439723968506 143.2829895019531 14.66439723968506 L 141.9622650146484 13.16251373291016 L 145.7169799804688 9.860696792602539 Z M 138.2075347900391 16.46433067321777 L 139.5282592773438 17.96623039245605 L 136.6216888427734 20.5222053527832 C 136.6205139160156 20.52323532104492 136.6193542480469 20.52425765991211 136.6181793212891 20.52528762817383 L 136.6029968261719 20.53864288330078 C 136.5921325683594 20.54819297790527 136.5814666748047 20.55756759643555 136.5707550048828 20.56699562072754 L 136.5686950683594 20.56879806518555 C 136.5447998046875 20.58982086181641 136.5212707519531 20.61050415039062 136.4981079101562 20.63087844848633 L 136.4970703125 20.63178825378418 C 136.0702819824219 21.00710105895996 135.7735290527344 21.26804733276367 135.7735290527344 21.26804733276367 L 134.4528045654297 19.76614761352539 L 138.2075347900391 16.46433067321777 Z M 130.6980895996094 23.0679817199707 L 132.0188140869141 24.56986427307129 L 131.0557556152344 25.4167594909668 C 131.0550384521484 25.41738319396973 131.0545349121094 25.4178352355957 131.0538177490234 25.41846084594727 L 131.0503082275391 25.42155075073242 C 131.0492858886719 25.42244338989258 131.0482482910156 25.42334938049316 131.0472412109375 25.42424392700195 L 131.0463714599609 25.42500686645508 C 131.0455627441406 25.42572212219238 131.0448760986328 25.42632293701172 131.0440673828125 25.42704010009766 L 131.0408935546875 25.42982864379883 C 131.0387420654297 25.43171310424805 131.0365905761719 25.43360137939453 131.0344543457031 25.43548965454102 L 131.0311889648438 25.43835067749023 C 131.0251617431641 25.44365692138672 131.0188751220703 25.44918823242188 131.0128173828125 25.45452117919922 L 131.0124359130859 25.45485305786133 C 131.0093383789062 25.45756530761719 131.0060882568359 25.4604377746582 131.0029907226562 25.46315765380859 L 131.0023498535156 25.46372604370117 C 130.9997711181641 25.46599197387695 130.9971160888672 25.46832084655762 130.9945373535156 25.4705924987793 L 130.9874572753906 25.4768180847168 C 130.9859008789062 25.47818374633789 130.9844970703125 25.47941207885742 130.9829406738281 25.48077964782715 L 130.9828338623047 25.48087692260742 C 129.8714599609375 26.45819473266602 128.2640838623047 27.87168121337891 128.2640838623047 27.87168121337891 L 126.9433517456055 26.36979675292969 L 130.6980895996094 23.0679817199707 Z M 123.1886291503906 29.6716136932373 L 124.5093536376953 31.17351341247559 C 124.5093536376953 31.17351341247559 124.4510192871094 31.22481155395508 124.3489074707031 31.31460571289062 L 124.3469543457031 31.31631660461426 C 124.3218231201172 31.33842277526855 124.2940063476562 31.36288070678711 124.2638397216797 31.38940620422363 L 124.2625274658203 31.39056777954102 C 124.2329483032227 31.41657638549805 124.2009887695312 31.4446849822998 124.1670074462891 31.47455978393555 L 124.1591415405273 31.48148155212402 C 124.1582336425781 31.4822826385498 124.1573486328125 31.48306083679199 124.1564331054688 31.48386383056641 L 124.1557464599609 31.48446655273438 C 124.1537017822266 31.48626136779785 124.1516723632812 31.48804473876953 124.1496200561523 31.48985290527344 L 124.1489715576172 31.49041938781738 C 124.1449279785156 31.49397659301758 124.1407318115234 31.49766731262207 124.1366271972656 31.50127410888672 L 124.1344680786133 31.50317764282227 C 124.1304321289062 31.50672912597656 124.1264343261719 31.5102424621582 124.1223449707031 31.51383972167969 L 124.1208190917969 31.51517868041992 C 124.1189193725586 31.5168514251709 124.1168975830078 31.51863098144531 124.1149826049805 31.52031326293945 L 124.1143493652344 31.5208683013916 C 124.1126556396484 31.52235794067383 124.1109313964844 31.52387046813965 124.1092376708984 31.52536773681641 L 124.0916900634766 31.54079437255859 C 124.0910186767578 31.54138946533203 124.0903015136719 31.54201698303223 124.0896224975586 31.5426139831543 L 124.0895462036133 31.54268074035645 C 124.0885620117188 31.54354476928711 124.0875015258789 31.54447937011719 124.0865173339844 31.54534530639648 L 124.0852813720703 31.54643249511719 C 124.0845947265625 31.54703330993652 124.083984375 31.54756927490234 124.0833053588867 31.54817008972168 L 124.0733032226562 31.55696105957031 C 124.0732269287109 31.55702781677246 124.0731353759766 31.55711555480957 124.0730590820312 31.55718421936035 L 120.7546310424805 34.47532653808594 L 119.4338989257812 32.97344970703125 L 123.1886291503906 29.6716136932373 Z M 115.6791687011719 36.27526473999023 L 116.9999008178711 37.77714538574219 C 116.9999008178711 37.77714538574219 115.1023330688477 39.44583129882812 114.0051422119141 40.41067504882812 L 114.0048141479492 40.41096115112305 C 113.9988861083984 40.41617584228516 113.9928970336914 40.42144012451172 113.9870147705078 40.42661666870117 L 113.9869384765625 40.42668151855469 C 113.9822692871094 40.4307861328125 113.9775161743164 40.43496704101562 113.9728775024414 40.43904876708984 L 113.9669342041016 40.44427490234375 C 113.9668426513672 40.44435882568359 113.9666748046875 40.44450378417969 113.9665832519531 40.44458389282227 L 113.9589080810547 40.45133209228516 C 113.9580764770508 40.45206451416016 113.9571838378906 40.45285034179688 113.9563522338867 40.45358276367188 L 113.9550323486328 40.45473861694336 C 113.9543914794922 40.45530700683594 113.9538192749023 40.45580673217773 113.9531784057617 40.45637130737305 L 113.9498901367188 40.45925903320312 C 113.9491577148438 40.45990753173828 113.9485549926758 40.46043395996094 113.9478225708008 40.46108245849609 L 113.9412460327148 40.46685791015625 C 113.9407043457031 40.46734237670898 113.9401321411133 40.46784210205078 113.939582824707 40.46832275390625 L 113.9189071655273 40.48650360107422 C 113.9187316894531 40.48666381835938 113.9186401367188 40.48674392700195 113.91845703125 40.48690414428711 L 113.2451629638672 41.0789794921875 L 112.4104537963867 40.12975311279297 L 112.4104537963867 41.81301116943359 L 111.8036346435547 42.34663009643555 L 110.4104537963867 42.34663009643555 L 110.4104537963867 37.34663009643555 L 112.4104537963867 37.34663009643555 L 112.4104537963867 39.14970397949219 L 115.6791687011719 36.27526473999023 Z M 110.4104537963867 27.34663009643555 L 112.4104537963867 27.34663009643555 L 112.4104537963867 32.34663009643555 L 110.4104537963867 32.34663009643555 L 110.4104537963867 27.34663009643555 Z M 100.5896987915039 25.16738128662109 L 105.5896987915039 25.16738128662109 L 105.5896987915039 27.16738128662109 C 105.5896987915039 27.16738128662109 100.5896987915039 27.16738128662109 100.5896987915039 27.16738128662109 L 100.5896987915039 25.16738128662109 Z M 90.58969879150391 25.16738128662109 L 95.58969879150391 25.16738128662109 L 95.58969879150391 27.16738128662109 C 95.58969879150391 27.16738128662109 90.58969879150391 27.16738128662109 90.58969879150391 27.16738128662109 L 90.58969879150391 25.16738128662109 Z M 80.58969879150391 25.16738128662109 L 85.58969879150391 25.16738128662109 L 85.58969879150391 27.16738128662109 C 85.58969879150391 27.16738128662109 80.58969879150391 27.16738128662109 80.58969879150391 27.16738128662109 L 80.58969879150391 25.16738128662109 Z M 70.58969879150391 25.16738128662109 L 75.58969879150391 25.16738128662109 L 75.58969879150391 27.16738128662109 C 75.58969879150391 27.16738128662109 70.58969879150391 27.16738128662109 70.58969879150391 27.16738128662109 L 70.58969879150391 25.16738128662109 Z M 60.58969879150391 25.16738128662109 L 65.58969879150391 25.16738128662109 L 65.58969879150391 27.16738128662109 C 65.58969879150391 27.16738128662109 60.58969879150391 27.16738128662109 60.58969879150391 27.16738128662109 L 60.58969879150391 25.16738128662109 Z M 50.58970642089844 25.16738128662109 L 55.58969879150391 25.16738128662109 L 55.58969879150391 27.16738128662109 C 55.58969879150391 27.16738128662109 50.58970642089844 27.16738128662109 50.58970642089844 27.16738128662109 L 50.58970642089844 25.16738128662109 Z M 40.58970642089844 25.16738128662109 L 45.58970642089844 25.16738128662109 L 45.58970642089844 27.16738128662109 C 45.58970642089844 27.16738128662109 40.58970642089844 27.16738128662109 40.58970642089844 27.16738128662109 L 40.58970642089844 25.16738128662109 Z M 32 25.16738128662109 L 35.58970642089844 25.16738128662109 L 35.58970642089844 27.16738128662109 C 35.58970642089844 27.16738128662109 32 27.16738128662109 32 27.16738128662109 L 32 25.16738128662109 Z M 32 15.75708103179932 L 34 15.75708103179932 L 34 20.757080078125 L 32 20.757080078125 L 32 15.75708103179932 Z M 32 5.757081031799316 L 34 5.757081031799316 L 34 10.757080078125 L 32 10.757080078125 L 32 5.757081031799316 Z M 32 -4.242919921875 L 34 -4.242919921875 L 34 0.7570810317993164 L 32 0.7570810317993164 L 32 -4.242919921875 Z M 32 -11.4309024810791 L 34.81201171875 -11.4309024810791 L 34.81201171875 -9.430902481079102 L 34 -9.430902481079102 L 34 -9.242919921875 L 32 -9.242919921875 L 32 -11.4309024810791 Z M 39.81201171875 -11.4309024810791 L 44.81201171875 -11.4309024810791 L 44.81201171875 -9.430902481079102 L 39.81201171875 -9.430902481079102 L 39.81201171875 -11.4309024810791 Z M 49.81201171875 -11.4309024810791 L 54.81201171875 -11.4309024810791 L 54.81201171875 -9.430902481079102 L 49.81201171875 -9.430902481079102 L 49.81201171875 -11.4309024810791 Z M 59.81201934814453 -11.4309024810791 L 64.81201934814453 -11.4309024810791 L 64.81201934814453 -9.430902481079102 L 59.81201934814453 -9.430902481079102 L 59.81201934814453 -11.4309024810791 Z M 69.81201934814453 -11.4309024810791 L 74.81201934814453 -11.4309024810791 L 74.81201934814453 -9.430902481079102 L 69.81201934814453 -9.430902481079102 L 69.81201934814453 -11.4309024810791 Z M 79.81201934814453 -11.4309024810791 L 84.81201934814453 -11.4309024810791 L 84.81201934814453 -9.430902481079102 L 79.81201934814453 -9.430902481079102 L 79.81201934814453 -11.4309024810791 Z M 89.81201934814453 -11.4309024810791 L 94.81201934814453 -11.4309024810791 L 94.81201934814453 -9.430902481079102 L 89.81201934814453 -9.430902481079102 L 89.81201934814453 -11.4309024810791 Z M 99.81201934814453 -11.4309024810791 L 104.8120193481445 -11.4309024810791 L 104.8120193481445 -9.430902481079102 L 99.81201934814453 -9.430902481079102 L 99.81201934814453 -11.4309024810791 Z M 110.4104537963867 -15.83246994018555 L 112.4104537963867 -15.83246994018555 L 112.4104537963867 -9.430902481079102 L 109.8120193481445 -9.430902481079102 L 109.8120193481445 -11.4309024810791 L 110.4104537963867 -11.4309024810791 L 110.4104537963867 -15.83246994018555 Z" stroke="none" fill="#dbdbdb"/>
    </g>
  </g>
</svg>
